{
date = "2013-03-12 14:16:52 +0200";
familyName = "Open Sans Hebrew";
fontMaster = (
{
alignmentZones = (
"{3209, 20}",
"{1462, 23}",
"{1290, 30}",
"{1118, 23}",
"{0, 20}",
"{-492, 0}",
"{-1008, 20}"
);
ascender = 3209;
capHeight = 1462;
customParameters = (
{
name = postscriptUnderlinePosition;
value = "-205";
},
{
name = postscriptUnderlineThickness;
value = 102;
}
);
descender = "-1008";
horizontalStems = (
219,
258,
340
);
id = "ECE8EDD2-0EDB-4EFB-866E-7B25CF44A28E";
verticalStems = (
252,
305,
350
);
weight = Bold;
weightValue = 700;
widthValue = 5;
xHeight = 1118;
}
);
glyphs = (
{
glyphname = A;
lastChange = "2013-03-07 06:32:14 +0200";
layers = (
{
anchors = (
{
name = ogonek;
position = "{1272, 10}";
},
{
name = top;
position = "{707, 1462}";
}
);
layerId = "ECE8EDD2-0EDB-4EFB-866E-7B25CF44A28E";
name = Bold;
paths = (
{
closed = 1;
nodes = (
"516 1468 LINE",
"0 0 LINE",
"334 0 LINE",
"440 348 LINE",
"972 348 LINE",
"1079 0 LINE",
"1413 0 LINE",
"895 1468 LINE"
);
},
{
closed = 1;
nodes = (
"712 1217 OFFCURVE",
"721 1184 OFFCURVE",
"733 1143 CURVE SMOOTH",
"899 608 LINE",
"518 608 LINE",
"622 945 OFFCURVE",
"685 1156 OFFCURVE",
"707 1241 CURVE"
);
}
);
width = 1413;
}
);
unicode = 0041;
},
{
glyphname = Aacute;
lastChange = "2013-03-07 06:32:14 +0200";
layers = (
{
layerId = "ECE8EDD2-0EDB-4EFB-866E-7B25CF44A28E";
name = Bold;
paths = (
{
closed = 1;
nodes = (
"516 1468 LINE",
"0 0 LINE",
"334 0 LINE",
"440 348 LINE",
"973 348 LINE",
"1079 0 LINE",
"1413 0 LINE",
"895 1468 LINE"
);
},
{
closed = 1;
nodes = (
"712 1217 OFFCURVE",
"721 1184 OFFCURVE",
"734 1143 CURVE SMOOTH",
"746 1102 OFFCURVE",
"801 923 OFFCURVE",
"899 608 CURVE",
"518 608 LINE",
"622 945 OFFCURVE",
"685 1156 OFFCURVE",
"707 1241 CURVE"
);
},
{
closed = 1;
nodes = (
"776 1907 LINE",
"734 1840 OFFCURVE",
"656 1739 OFFCURVE",
"541 1606 CURVE",
"541 1579 LINE",
"744 1579 LINE",
"839 1646 OFFCURVE",
"1049 1817 OFFCURVE",
"1118 1886 CURVE",
"1118 1907 LINE"
);
}
);
width = 1413;
}
);
unicode = 00C1;
},
{
glyphname = Acircumflex;
lastChange = "2013-03-07 06:32:14 +0200";
layers = (
{
layerId = "ECE8EDD2-0EDB-4EFB-866E-7B25CF44A28E";
name = Bold;
paths = (
{
closed = 1;
nodes = (
"516 1468 LINE",
"0 0 LINE",
"334 0 LINE",
"440 348 LINE",
"973 348 LINE",
"1079 0 LINE",
"1413 0 LINE",
"895 1468 LINE"
);
},
{
closed = 1;
nodes = (
"712 1217 OFFCURVE",
"721 1184 OFFCURVE",
"734 1143 CURVE SMOOTH",
"746 1102 OFFCURVE",
"801 923 OFFCURVE",
"899 608 CURVE",
"518 608 LINE",
"622 945 OFFCURVE",
"685 1156 OFFCURVE",
"707 1241 CURVE"
);
},
{
closed = 1;
nodes = (
"528 1907 LINE",
"483 1832 OFFCURVE",
"398 1732 OFFCURVE",
"272 1606 CURVE",
"272 1579 LINE",
"475 1579 LINE",
"576 1642 OFFCURVE",
"652 1701 OFFCURVE",
"704 1755 CURVE",
"755 1700 OFFCURVE",
"833 1641 OFFCURVE",
"938 1579 CURVE",
"1141 1579 LINE",
"1141 1606 LINE",
"1045 1699 OFFCURVE",
"926 1838 OFFCURVE",
"885 1907 CURVE"
);
}
);
width = 1413;
}
);
unicode = 00C2;
},
{
glyphname = Adieresis;
lastChange = "2013-03-07 06:32:14 +0200";
layers = (
{
layerId = "ECE8EDD2-0EDB-4EFB-866E-7B25CF44A28E";
name = Bold;
paths = (
{
closed = 1;
nodes = (
"516 1468 LINE",
"0 0 LINE",
"334 0 LINE",
"440 348 LINE",
"973 348 LINE",
"1079 0 LINE",
"1413 0 LINE",
"895 1468 LINE"
);
},
{
closed = 1;
nodes = (
"712 1217 OFFCURVE",
"721 1184 OFFCURVE",
"734 1143 CURVE SMOOTH",
"746 1102 OFFCURVE",
"801 923 OFFCURVE",
"899 608 CURVE",
"518 608 LINE",
"622 945 OFFCURVE",
"685 1156 OFFCURVE",
"707 1241 CURVE"
);
},
{
closed = 1;
nodes = (
"419 1878 OFFCURVE",
"365 1830 OFFCURVE",
"365 1743 CURVE SMOOTH",
"365 1659 OFFCURVE",
"419 1610 OFFCURVE",
"504 1610 CURVE SMOOTH",
"591 1610 OFFCURVE",
"645 1663 OFFCURVE",
"645 1743 CURVE SMOOTH",
"645 1824 OFFCURVE",
"592 1878 OFFCURVE",
"504 1878 CURVE SMOOTH"
);
},
{
closed = 1;
nodes = (
"829 1878 OFFCURVE",
"768 1836 OFFCURVE",
"768 1743 CURVE SMOOTH",
"768 1652 OFFCURVE",
"829 1610 OFFCURVE",
"909 1610 CURVE SMOOTH",
"994 1610 OFFCURVE",
"1051 1662 OFFCURVE",
"1051 1743 CURVE SMOOTH",
"1051 1827 OFFCURVE",
"996 1878 OFFCURVE",
"909 1878 CURVE SMOOTH"
);
}
);
width = 1413;
}
);
unicode = 00C4;
},
{
glyphname = Agrave;
lastChange = "2013-03-07 06:32:14 +0200";
layers = (
{
layerId = "ECE8EDD2-0EDB-4EFB-866E-7B25CF44A28E";
name = Bold;
paths = (
{
closed = 1;
nodes = (
"516 1468 LINE",
"0 0 LINE",
"334 0 LINE",
"440 348 LINE",
"973 348 LINE",
"1079 0 LINE",
"1413 0 LINE",
"895 1468 LINE"
);
},
{
closed = 1;
nodes = (
"712 1217 OFFCURVE",
"721 1184 OFFCURVE",
"734 1143 CURVE SMOOTH",
"746 1102 OFFCURVE",
"801 923 OFFCURVE",
"899 608 CURVE",
"518 608 LINE",
"622 945 OFFCURVE",
"685 1156 OFFCURVE",
"707 1241 CURVE"
);
},
{
closed = 1;
nodes = (
"338 1907 LINE",
"338 1886 LINE",
"429 1798 OFFCURVE",
"629 1638 OFFCURVE",
"713 1579 CURVE",
"915 1579 LINE",
"915 1606 LINE",
"800 1739 OFFCURVE",
"722 1840 OFFCURVE",
"680 1907 CURVE"
);
}
);
width = 1413;
}
);
unicode = 00C0;
},
{
glyphname = Aring;
lastChange = "2013-03-07 06:32:14 +0200";
layers = (
{
layerId = "ECE8EDD2-0EDB-4EFB-866E-7B25CF44A28E";
name = Bold;
paths = (
{
closed = 1;
nodes = (
"516 1468 LINE",
"0 0 LINE",
"334 0 LINE",
"440 348 LINE",
"973 348 LINE",
"1079 0 LINE",
"1413 0 LINE",
"895 1468 LINE"
);
},
{
closed = 1;
nodes = (
"712 1217 OFFCURVE",
"721 1184 OFFCURVE",
"734 1143 CURVE SMOOTH",
"746 1102 OFFCURVE",
"801 923 OFFCURVE",
"899 608 CURVE",
"518 608 LINE",
"622 945 OFFCURVE",
"685 1156 OFFCURVE",
"707 1241 CURVE"
);
},
{
closed = 1;
nodes = (
"761 1661 OFFCURVE",
"801 1625 OFFCURVE",
"801 1565 CURVE SMOOTH",
"801 1505 OFFCURVE",
"761 1468 OFFCURVE",
"705 1468 CURVE SMOOTH",
"641 1468 OFFCURVE",
"609 1505 OFFCURVE",
"609 1565 CURVE SMOOTH",
"609 1625 OFFCURVE",
"649 1661 OFFCURVE",
"705 1661 CURVE SMOOTH"
);
},
{
closed = 1;
nodes = (
"554 1802 OFFCURVE",
"457 1709 OFFCURVE",
"457 1565 CURVE SMOOTH",
"457 1418 OFFCURVE",
"556 1327 OFFCURVE",
"705 1327 CURVE SMOOTH",
"854 1327 OFFCURVE",
"959 1423 OFFCURVE",
"959 1567 CURVE SMOOTH",
"959 1704 OFFCURVE",
"852 1802 OFFCURVE",
"705 1802 CURVE SMOOTH"
);
}
);
width = 1413;
}
);
unicode = 00C5;
},
{
glyphname = Atilde;
lastChange = "2013-03-07 06:32:14 +0200";
layers = (
{
layerId = "ECE8EDD2-0EDB-4EFB-866E-7B25CF44A28E";
name = Bold;
paths = (
{
closed = 1;
nodes = (
"516 1468 LINE",
"0 0 LINE",
"334 0 LINE",
"440 348 LINE",
"973 348 LINE",
"1079 0 LINE",
"1413 0 LINE",
"895 1468 LINE"
);
},
{
closed = 1;
nodes = (
"712 1217 OFFCURVE",
"721 1184 OFFCURVE",
"734 1143 CURVE SMOOTH",
"746 1102 OFFCURVE",
"801 923 OFFCURVE",
"899 608 CURVE",
"518 608 LINE",
"622 945 OFFCURVE",
"685 1156 OFFCURVE",
"707 1241 CURVE"
);
},
{
closed = 1;
nodes = (
"973 1888 LINE",
"956 1816 OFFCURVE",
"913 1782 OFFCURVE",
"872 1782 CURVE SMOOTH",
"824 1782 OFFCURVE",
"775 1808 OFFCURVE",
"724 1834 CURVE SMOOTH",
"672 1860 OFFCURVE",
"620 1886 OFFCURVE",
"565 1886 CURVE SMOOTH",
"408 1886 OFFCURVE",
"308 1770 OFFCURVE",
"293 1577 CURVE",
"442 1577 LINE",
"459 1649 OFFCURVE",
"502 1684 OFFCURVE",
"543 1684 CURVE SMOOTH",
"591 1684 OFFCURVE",
"640 1658 OFFCURVE",
"692 1632 CURVE SMOOTH",
"743 1606 OFFCURVE",
"795 1579 OFFCURVE",
"850 1579 CURVE SMOOTH",
"1005 1579 OFFCURVE",
"1107 1695 OFFCURVE",
"1122 1888 CURVE"
);
}
);
width = 1413;
}
);
unicode = 00C3;
},
{
glyphname = AE;
lastChange = "2013-03-07 06:32:14 +0200";
layers = (
{
layerId = "ECE8EDD2-0EDB-4EFB-866E-7B25CF44A28E";
name = Bold;
paths = (
{
closed = 1;
nodes = (
"655 1462 LINE",
"0 0 LINE",
"315 0 LINE",
"465 348 LINE",
"956 348 LINE",
"956 0 LINE",
"1829 0 LINE",
"1829 256 LINE",
"1266 256 LINE",
"1266 633 LINE",
"1792 633 LINE",
"1792 887 LINE",
"1266 887 LINE",
"1266 1208 LINE",
"1829 1208 LINE",
"1829 1462 LINE"
);
},
{
closed = 1;
nodes = (
"956 608 LINE",
"578 608 LINE",
"829 1198 LINE",
"956 1198 LINE"
);
}
);
width = 1950;
}
);
unicode = 00C6;
},
{
glyphname = B;
lastChange = "2013-03-07 06:32:14 +0200";
layers = (
{
layerId = "ECE8EDD2-0EDB-4EFB-866E-7B25CF44A28E";
name = Bold;
paths = (
{
closed = 1;
nodes = (
"184 1462 LINE",
"184 0 LINE",
"731 0 LINE SMOOTH",
"896 0 OFFCURVE",
"1027 37 OFFCURVE",
"1123 112 CURVE SMOOTH",
"1220 187 OFFCURVE",
"1268 291 OFFCURVE",
"1268 424 CURVE SMOOTH",
"1268 612 OFFCURVE",
"1191 725 OFFCURVE",
"1006 766 CURVE",
"1006 776 LINE",
"1074 787 OFFCURVE",
"1128 821 OFFCURVE",
"1169 877 CURVE SMOOTH",
"1210 933 OFFCURVE",
"1231 1005 OFFCURVE",
"1231 1092 CURVE SMOOTH",
"1231 1221 OFFCURVE",
"1184 1314 OFFCURVE",
"1090 1373 CURVE SMOOTH",
"996 1432 OFFCURVE",
"846 1462 OFFCURVE",
"639 1462 CURVE SMOOTH"
);
},
{
closed = 1;
nodes = (
"859 637 OFFCURVE",
"946 576 OFFCURVE",
"946 455 CURVE SMOOTH",
"946 320 OFFCURVE",
"867 256 OFFCURVE",
"696 256 CURVE SMOOTH",
"494 256 LINE",
"494 637 LINE",
"686 637 LINE SMOOTH"
);
},
{
closed = 1;
nodes = (
"834 1208 OFFCURVE",
"913 1163 OFFCURVE",
"913 1051 CURVE SMOOTH",
"913 931 OFFCURVE",
"842 883 OFFCURVE",
"674 883 CURVE SMOOTH",
"494 883 LINE",
"494 1208 LINE",
"657 1208 LINE SMOOTH"
);
}
);
width = 1376;
}
);
unicode = 0042;
},
{
glyphname = C;
lastChange = "2013-03-07 06:32:14 +0200";
layers = (
{
anchors = (
{
name = bottom;
position = "{653, 0}";
},
{
name = top;
position = "{653, 1462}";
}
);
layerId = "ECE8EDD2-0EDB-4EFB-866E-7B25CF44A28E";
name = Bold;
paths = (
{
closed = 1;
nodes = (
"387 1489 OFFCURVE",
"114 1185 OFFCURVE",
"119 729 CURVE SMOOTH",
"119 488 OFFCURVE",
"175 302 OFFCURVE",
"288 173 CURVE SMOOTH",
"401 44 OFFCURVE",
"563 -20 OFFCURVE",
"776 -20 CURVE SMOOTH",
"924 -20 OFFCURVE",
"1058 5 OFFCURVE",
"1178 55 CURVE",
"1178 315 LINE",
"1032 264 OFFCURVE",
"908 238 OFFCURVE",
"805 238 CURVE SMOOTH",
"560 238 OFFCURVE",
"438 401 OFFCURVE",
"438 727 CURVE SMOOTH",
"438 884 OFFCURVE",
"470 1006 OFFCURVE",
"534 1093 CURVE SMOOTH",
"598 1181 OFFCURVE",
"688 1225 OFFCURVE",
"805 1225 CURVE SMOOTH",
"912 1225 OFFCURVE",
"1024 1180 OFFCURVE",
"1133 1128 CURVE",
"1233 1380 LINE",
"1090 1449 OFFCURVE",
"947 1483 OFFCURVE",
"805 1483 CURVE SMOOTH"
);
}
);
width = 1305;
}
);
unicode = 0043;
},
{
glyphname = Ccedilla;
lastChange = "2013-03-07 06:32:14 +0200";
layers = (
{
layerId = "ECE8EDD2-0EDB-4EFB-866E-7B25CF44A28E";
name = Bold;
paths = (
{
closed = 1;
nodes = (
"666 1483 OFFCURVE",
"544 1453 OFFCURVE",
"441 1392 CURVE SMOOTH",
"233 1270 OFFCURVE",
"119 1033 OFFCURVE",
"119 729 CURVE SMOOTH",
"119 246 OFFCURVE",
"351 -20 OFFCURVE",
"776 -20 CURVE SMOOTH",
"924 -20 OFFCURVE",
"1058 5 OFFCURVE",
"1178 55 CURVE",
"1178 315 LINE",
"1032 264 OFFCURVE",
"908 238 OFFCURVE",
"805 238 CURVE SMOOTH",
"560 238 OFFCURVE",
"438 401 OFFCURVE",
"438 727 CURVE SMOOTH",
"438 1040 OFFCURVE",
"572 1225 OFFCURVE",
"805 1225 CURVE SMOOTH",
"912 1225 OFFCURVE",
"1024 1180 OFFCURVE",
"1133 1128 CURVE",
"1233 1380 LINE",
"1090 1449 OFFCURVE",
"947 1483 OFFCURVE",
"805 1483 CURVE SMOOTH"
);
},
{
closed = 1;
nodes = (
"631 0 LINE",
"553 -154 LINE",
"664 -171 OFFCURVE",
"719 -207 OFFCURVE",
"719 -262 CURVE SMOOTH",
"719 -303 OFFCURVE",
"695 -324 OFFCURVE",
"647 -324 CURVE SMOOTH",
"614 -324 OFFCURVE",
"540 -312 OFFCURVE",
"504 -303 CURVE",
"504 -471 LINE",
"549 -485 OFFCURVE",
"598 -492 OFFCURVE",
"650 -492 CURVE SMOOTH",
"861 -492 OFFCURVE",
"959 -421 OFFCURVE",
"959 -250 CURVE SMOOTH",
"959 -165 OFFCURVE",
"896 -93 OFFCURVE",
"797 -61 CURVE",
"824 0 LINE"
);
}
);
width = 1305;
}
);
unicode = 00C7;
},
{
glyphname = D;
lastChange = "2013-03-07 06:32:14 +0200";
layers = (
{
anchors = (
{
name = center;
position = "{758, 731}";
},
{
name = top;
position = "{758, 1462}";
}
);
layerId = "ECE8EDD2-0EDB-4EFB-866E-7B25CF44A28E";
name = Bold;
paths = (
{
closed = 1;
nodes = (
"184 1462 LINE",
"184 0 LINE",
"598 0 LINE SMOOTH",
"857 0 OFFCURVE",
"1054 64 OFFCURVE",
"1191 192 CURVE SMOOTH",
"1328 320 OFFCURVE",
"1397 504 OFFCURVE",
"1397 745 CURVE SMOOTH",
"1397 970 OFFCURVE",
"1331 1147 OFFCURVE",
"1199 1273 CURVE SMOOTH",
"1067 1399 OFFCURVE",
"882 1462 OFFCURVE",
"643 1462 CURVE SMOOTH"
);
},
{
closed = 1;
nodes = (
"936 1208 OFFCURVE",
"1075 1051 OFFCURVE",
"1075 737 CURVE SMOOTH",
"1075 416 OFFCURVE",
"926 256 OFFCURVE",
"627 256 CURVE SMOOTH",
"494 256 LINE",
"494 1208 LINE",
"659 1208 LINE SMOOTH"
);
}
);
width = 1516;
}
);
unicode = 0044;
},
{
glyphname = Eth;
lastChange = "2013-03-07 06:32:14 +0200";
layers = (
{
layerId = "ECE8EDD2-0EDB-4EFB-866E-7B25CF44A28E";
name = Bold;
paths = (
{
closed = 1;
nodes = (
"184 1462 LINE",
"184 850 LINE",
"47 850 LINE",
"47 596 LINE",
"184 596 LINE",
"184 0 LINE",
"598 0 LINE SMOOTH",
"1115 0 OFFCURVE",
"1397 264 OFFCURVE",
"1397 745 CURVE SMOOTH",
"1397 1197 OFFCURVE",
"1120 1462 OFFCURVE",
"643 1462 CURVE SMOOTH"
);
},
{
closed = 1;
nodes = (
"937 1208 OFFCURVE",
"1075 1046 OFFCURVE",
"1075 737 CURVE SMOOTH",
"1075 416 OFFCURVE",
"925 256 OFFCURVE",
"625 256 CURVE SMOOTH",
"494 256 LINE",
"494 596 LINE",
"731 596 LINE",
"731 850 LINE",
"494 850 LINE",
"494 1208 LINE",
"657 1208 LINE SMOOTH"
);
}
);
width = 1516;
}
);
unicode = 00D0;
},
{
glyphname = E;
lastChange = "2013-03-07 06:32:14 +0200";
layers = (
{
anchors = (
{
name = bottom;
position = "{574, 0}";
},
{
name = ogonek;
position = "{1032, 10}";
},
{
name = top;
position = "{574, 1462}";
}
);
layerId = "ECE8EDD2-0EDB-4EFB-866E-7B25CF44A28E";
name = Bold;
paths = (
{
closed = 1;
nodes = (
"184 1462 LINE",
"184 0 LINE",
"1026 0 LINE",
"1026 256 LINE",
"494 256 LINE",
"494 633 LINE",
"988 633 LINE",
"988 887 LINE",
"494 887 LINE",
"494 1208 LINE",
"1026 1208 LINE",
"1026 1462 LINE"
);
}
);
width = 1147;
}
);
unicode = 0045;
},
{
glyphname = Eacute;
lastChange = "2013-03-07 06:32:14 +0200";
layers = (
{
layerId = "ECE8EDD2-0EDB-4EFB-866E-7B25CF44A28E";
name = Bold;
paths = (
{
closed = 1;
nodes = (
"184 1462 LINE",
"184 0 LINE",
"1026 0 LINE",
"1026 256 LINE",
"494 256 LINE",
"494 633 LINE",
"989 633 LINE",
"989 887 LINE",
"494 887 LINE",
"494 1208 LINE",
"1026 1208 LINE",
"1026 1462 LINE"
);
},
{
closed = 1;
nodes = (
"659 1907 LINE",
"617 1840 OFFCURVE",
"539 1739 OFFCURVE",
"424 1606 CURVE",
"424 1579 LINE",
"627 1579 LINE",
"722 1646 OFFCURVE",
"932 1817 OFFCURVE",
"1001 1886 CURVE",
"1001 1907 LINE"
);
}
);
width = 1147;
}
);
unicode = 00C9;
},
{
glyphname = Ecircumflex;
lastChange = "2013-03-07 06:32:14 +0200";
layers = (
{
layerId = "ECE8EDD2-0EDB-4EFB-866E-7B25CF44A28E";
name = Bold;
paths = (
{
closed = 1;
nodes = (
"184 1462 LINE",
"184 0 LINE",
"1026 0 LINE",
"1026 256 LINE",
"494 256 LINE",
"494 633 LINE",
"989 633 LINE",
"989 887 LINE",
"494 887 LINE",
"494 1208 LINE",
"1026 1208 LINE",
"1026 1462 LINE"
);
},
{
closed = 1;
nodes = (
"431 1907 LINE",
"386 1832 OFFCURVE",
"301 1732 OFFCURVE",
"175 1606 CURVE",
"175 1579 LINE",
"378 1579 LINE",
"479 1642 OFFCURVE",
"555 1701 OFFCURVE",
"607 1755 CURVE",
"658 1700 OFFCURVE",
"736 1641 OFFCURVE",
"841 1579 CURVE",
"1044 1579 LINE",
"1044 1606 LINE",
"948 1699 OFFCURVE",
"829 1838 OFFCURVE",
"788 1907 CURVE"
);
}
);
width = 1147;
}
);
unicode = 00CA;
},
{
glyphname = Edieresis;
lastChange = "2013-03-07 06:32:14 +0200";
layers = (
{
layerId = "ECE8EDD2-0EDB-4EFB-866E-7B25CF44A28E";
name = Bold;
paths = (
{
closed = 1;
nodes = (
"184 1462 LINE",
"184 0 LINE",
"1026 0 LINE",
"1026 256 LINE",
"494 256 LINE",
"494 633 LINE",
"989 633 LINE",
"989 887 LINE",
"494 887 LINE",
"494 1208 LINE",
"1026 1208 LINE",
"1026 1462 LINE"
);
},
{
closed = 1;
nodes = (
"326 1878 OFFCURVE",
"272 1830 OFFCURVE",
"272 1743 CURVE SMOOTH",
"272 1659 OFFCURVE",
"326 1610 OFFCURVE",
"411 1610 CURVE SMOOTH",
"498 1610 OFFCURVE",
"552 1663 OFFCURVE",
"552 1743 CURVE SMOOTH",
"552 1824 OFFCURVE",
"499 1878 OFFCURVE",
"411 1878 CURVE SMOOTH"
);
},
{
closed = 1;
nodes = (
"736 1878 OFFCURVE",
"675 1836 OFFCURVE",
"675 1743 CURVE SMOOTH",
"675 1652 OFFCURVE",
"736 1610 OFFCURVE",
"816 1610 CURVE SMOOTH",
"901 1610 OFFCURVE",
"958 1662 OFFCURVE",
"958 1743 CURVE SMOOTH",
"958 1827 OFFCURVE",
"903 1878 OFFCURVE",
"816 1878 CURVE SMOOTH"
);
}
);
width = 1147;
}
);
unicode = 00CB;
},
{
glyphname = Egrave;
lastChange = "2013-03-07 06:32:14 +0200";
layers = (
{
layerId = "ECE8EDD2-0EDB-4EFB-866E-7B25CF44A28E";
name = Bold;
paths = (
{
closed = 1;
nodes = (
"184 1462 LINE",
"184 0 LINE",
"1026 0 LINE",
"1026 256 LINE",
"494 256 LINE",
"494 633 LINE",
"989 633 LINE",
"989 887 LINE",
"494 887 LINE",
"494 1208 LINE",
"1026 1208 LINE",
"1026 1462 LINE"
);
},
{
closed = 1;
nodes = (
"259 1907 LINE",
"259 1886 LINE",
"350 1798 OFFCURVE",
"550 1638 OFFCURVE",
"634 1579 CURVE",
"836 1579 LINE",
"836 1606 LINE",
"721 1739 OFFCURVE",
"643 1840 OFFCURVE",
"601 1907 CURVE"
);
}
);
width = 1147;
}
);
unicode = 00C8;
},
{
glyphname = F;
lastChange = "2013-03-07 06:32:14 +0200";
layers = (
{
layerId = "ECE8EDD2-0EDB-4EFB-866E-7B25CF44A28E";
name = Bold;
paths = (
{
closed = 1;
nodes = (
"184 1462 LINE",
"184 0 LINE",
"489 0 LINE",
"489 578 LINE",
"984 578 LINE",
"984 831 LINE",
"489 831 LINE",
"489 1208 LINE",
"1022 1208 LINE",
"1022 1462 LINE"
);
}
);
width = 1124;
}
);
unicode = 0046;
},
{
glyphname = G;
lastChange = "2013-03-07 06:32:14 +0200";
layers = (
{
anchors = (
{
name = bottom;
position = "{742, 0}";
},
{
name = top;
position = "{742, 1462}";
}
);
layerId = "ECE8EDD2-0EDB-4EFB-866E-7B25CF44A28E";
name = Bold;
paths = (
{
closed = 1;
nodes = (
"644 1483 OFFCURVE",
"456 1417 OFFCURVE",
"321 1285 CURVE SMOOTH",
"186 1153 OFFCURVE",
"119 968 OFFCURVE",
"119 733 CURVE SMOOTH",
"119 490 OFFCURVE",
"177 304 OFFCURVE",
"293 174 CURVE SMOOTH",
"410 45 OFFCURVE",
"578 -20 OFFCURVE",
"799 -20 CURVE SMOOTH",
"971 -20 OFFCURVE",
"1131 2 OFFCURVE",
"1319 63 CURVE",
"1319 821 LINE",
"739 821 LINE",
"739 563 LINE",
"1016 563 LINE",
"1016 258 LINE",
"949 245 OFFCURVE",
"884 238 OFFCURVE",
"819 238 CURVE SMOOTH",
"571 238 OFFCURVE",
"438 410 OFFCURVE",
"438 727 CURVE SMOOTH",
"438 879 OFFCURVE",
"478 999 OFFCURVE",
"559 1090 CURVE SMOOTH",
"640 1180 OFFCURVE",
"747 1225 OFFCURVE",
"881 1225 CURVE SMOOTH",
"995 1225 OFFCURVE",
"1107 1198 OFFCURVE",
"1214 1145 CURVE",
"1317 1393 LINE",
"1178 1453 OFFCURVE",
"1033 1483 OFFCURVE",
"883 1483 CURVE SMOOTH"
);
}
);
width = 1483;
}
);
unicode = 0047;
},
{
glyphname = H;
lastChange = "2013-03-07 06:32:14 +0200";
layers = (
{
anchors = (
{
name = center;
position = "{784, 731}";
},
{
name = top;
position = "{784, 1462}";
}
);
layerId = "ECE8EDD2-0EDB-4EFB-866E-7B25CF44A28E";
name = Bold;
paths = (
{
closed = 1;
nodes = (
"1073 1462 LINE",
"1073 889 LINE",
"494 889 LINE",
"494 1462 LINE",
"184 1462 LINE",
"184 0 LINE",
"494 0 LINE",
"494 631 LINE",
"1073 631 LINE",
"1073 0 LINE",
"1382 0 LINE",
"1382 1462 LINE"
);
}
);
width = 1567;
}
);
unicode = 0048;
},
{
glyphname = I;
lastChange = "2013-03-07 06:32:14 +0200";
layers = (
{
anchors = (
{
name = ogonek;
position = "{610, 10}";
},
{
name = top;
position = "{339, 1462}";
}
);
layerId = "ECE8EDD2-0EDB-4EFB-866E-7B25CF44A28E";
name = Bold;
paths = (
{
closed = 1;
nodes = (
"184 1462 LINE",
"184 0 LINE",
"494 0 LINE",
"494 1462 LINE"
);
}
);
width = 678;
}
);
unicode = 0049;
},
{
glyphname = Iacute;
lastChange = "2013-03-07 06:32:14 +0200";
layers = (
{
layerId = "ECE8EDD2-0EDB-4EFB-866E-7B25CF44A28E";
name = Bold;
paths = (
{
closed = 1;
nodes = (
"184 1462 LINE",
"184 0 LINE",
"494 0 LINE",
"494 1462 LINE"
);
},
{
closed = 1;
nodes = (
"402 1907 LINE",
"360 1840 OFFCURVE",
"282 1739 OFFCURVE",
"167 1606 CURVE",
"167 1579 LINE",
"370 1579 LINE",
"465 1646 OFFCURVE",
"675 1817 OFFCURVE",
"744 1886 CURVE",
"744 1907 LINE"
);
}
);
width = 678;
}
);
unicode = 00CD;
},
{
glyphname = Icircumflex;
lastChange = "2013-03-07 06:32:14 +0200";
layers = (
{
layerId = "ECE8EDD2-0EDB-4EFB-866E-7B25CF44A28E";
name = Bold;
paths = (
{
closed = 1;
nodes = (
"184 1462 LINE",
"184 0 LINE",
"494 0 LINE",
"494 1462 LINE"
);
},
{
closed = 1;
nodes = (
"160 1907 LINE",
"115 1832 OFFCURVE",
"30 1732 OFFCURVE",
"-96 1606 CURVE",
"-96 1579 LINE",
"107 1579 LINE",
"208 1642 OFFCURVE",
"284 1701 OFFCURVE",
"336 1755 CURVE",
"387 1700 OFFCURVE",
"465 1641 OFFCURVE",
"570 1579 CURVE",
"773 1579 LINE",
"773 1606 LINE",
"677 1699 OFFCURVE",
"558 1838 OFFCURVE",
"517 1907 CURVE"
);
}
);
width = 678;
}
);
unicode = 00CE;
},
{
glyphname = Idieresis;
lastChange = "2013-03-07 06:32:14 +0200";
layers = (
{
layerId = "ECE8EDD2-0EDB-4EFB-866E-7B25CF44A28E";
name = Bold;
paths = (
{
closed = 1;
nodes = (
"184 1462 LINE",
"184 0 LINE",
"494 0 LINE",
"494 1462 LINE"
);
},
{
closed = 1;
nodes = (
"51 1878 OFFCURVE",
"-3 1830 OFFCURVE",
"-3 1743 CURVE SMOOTH",
"-3 1659 OFFCURVE",
"51 1610 OFFCURVE",
"136 1610 CURVE SMOOTH",
"223 1610 OFFCURVE",
"277 1663 OFFCURVE",
"277 1743 CURVE SMOOTH",
"277 1824 OFFCURVE",
"224 1878 OFFCURVE",
"136 1878 CURVE SMOOTH"
);
},
{
closed = 1;
nodes = (
"461 1878 OFFCURVE",
"400 1836 OFFCURVE",
"400 1743 CURVE SMOOTH",
"400 1652 OFFCURVE",
"461 1610 OFFCURVE",
"541 1610 CURVE SMOOTH",
"626 1610 OFFCURVE",
"683 1662 OFFCURVE",
"683 1743 CURVE SMOOTH",
"683 1827 OFFCURVE",
"628 1878 OFFCURVE",
"541 1878 CURVE SMOOTH"
);
}
);
width = 678;
}
);
unicode = 00CF;
},
{
glyphname = Igrave;
lastChange = "2013-03-07 06:32:14 +0200";
layers = (
{
layerId = "ECE8EDD2-0EDB-4EFB-866E-7B25CF44A28E";
name = Bold;
paths = (
{
closed = 1;
nodes = (
"184 1462 LINE",
"184 0 LINE",
"494 0 LINE",
"494 1462 LINE"
);
},
{
closed = 1;
nodes = (
"-58 1907 LINE",
"-58 1886 LINE",
"33 1798 OFFCURVE",
"233 1638 OFFCURVE",
"317 1579 CURVE",
"519 1579 LINE",
"519 1606 LINE",
"404 1739 OFFCURVE",
"326 1840 OFFCURVE",
"284 1907 CURVE"
);
}
);
width = 678;
}
);
unicode = 00CC;
},
{
glyphname = J;
lastChange = "2013-03-07 06:32:14 +0200";
layers = (
{
anchors = (
{
name = top;
position = "{339, 1462}";
}
);
layerId = "ECE8EDD2-0EDB-4EFB-866E-7B25CF44A28E";
name = Bold;
paths = (
{
closed = 1;
nodes = (
"184 1462 LINE",
"184 92 LINE SMOOTH",
"184 -88 OFFCURVE",
"130 -170 OFFCURVE",
"-6 -170 CURVE SMOOTH",
"-50 -170 OFFCURVE",
"-98 -163 OFFCURVE",
"-152 -150 CURVE",
"-152 -408 LINE",
"-99 -423 OFFCURVE",
"-39 -430 OFFCURVE",
"31 -430 CURVE SMOOTH",
"336 -430 OFFCURVE",
"494 -247 OFFCURVE",
"494 93 CURVE SMOOTH",
"494 1462 LINE"
);
}
);
width = 678;
}
);
unicode = 004A;
},
{
glyphname = K;
lastChange = "2013-03-07 06:32:14 +0200";
layers = (
{
anchors = (
{
name = bottom;
position = "{680, 0}";
},
{
name = top;
position = "{680, 1462}";
}
);
layerId = "ECE8EDD2-0EDB-4EFB-866E-7B25CF44A28E";
name = Bold;
paths = (
{
closed = 1;
nodes = (
"1012 1462 LINE",
"616 965 LINE",
"494 793 LINE",
"494 1462 LINE",
"184 1462 LINE",
"184 0 LINE",
"494 0 LINE",
"494 522 LINE",
"625 616 LINE",
"1008 0 LINE",
"1360 0 LINE",
"846 815 LINE",
"1356 1462 LINE"
);
}
);
width = 1360;
}
);
unicode = 004B;
},
{
glyphname = L;
lastChange = "2013-03-07 06:32:14 +0200";
layers = (
{
anchors = (
{
name = bottom;
position = "{579, 0}";
},
{
name = top;
position = "{579, 1462}";
}
);
layerId = "ECE8EDD2-0EDB-4EFB-866E-7B25CF44A28E";
name = Bold;
paths = (
{
closed = 1;
nodes = (
"184 1462 LINE",
"184 0 LINE",
"1087 0 LINE",
"1087 256 LINE",
"494 256 LINE",
"494 1462 LINE"
);
}
);
width = 1157;
}
);
unicode = 004C;
},
{
glyphname = M;
lastChange = "2013-03-07 06:32:14 +0200";
layers = (
{
layerId = "ECE8EDD2-0EDB-4EFB-866E-7B25CF44A28E";
name = Bold;
paths = (
{
closed = 1;
nodes = (
"1325 1462 LINE",
"958 344 LINE",
"952 344 LINE",
"606 1462 LINE",
"184 1462 LINE",
"184 0 LINE",
"461 0 LINE",
"461 680 LINE SMOOTH",
"461 758 OFFCURVE",
"455 914 OFFCURVE",
"442 1147 CURVE",
"451 1147 LINE",
"803 0 LINE",
"1087 0 LINE",
"1464 1145 LINE",
"1473 1145 LINE",
"1465 961 OFFCURVE",
"1460 848 OFFCURVE",
"1459 805 CURVE SMOOTH",
"1458 762 OFFCURVE",
"1458 725 OFFCURVE",
"1458 692 CURVE SMOOTH",
"1458 0 LINE",
"1747 0 LINE",
"1747 1462 LINE"
);
}
);
width = 1931;
}
);
unicode = 004D;
},
{
glyphname = N;
lastChange = "2013-03-07 06:32:14 +0200";
layers = (
{
anchors = (
{
name = bottom;
position = "{833, 0}";
},
{
name = top;
position = "{833, 1462}";
}
);
layerId = "ECE8EDD2-0EDB-4EFB-866E-7B25CF44A28E";
name = Bold;
paths = (
{
closed = 1;
nodes = (
"1202 1462 LINE",
"1202 770 LINE SMOOTH",
"1202 691 OFFCURVE",
"1207 557 OFFCURVE",
"1217 367 CURVE",
"1210 367 LINE",
"575 1462 LINE",
"184 1462 LINE",
"184 0 LINE",
"461 0 LINE",
"461 688 LINE SMOOTH",
"461 771 OFFCURVE",
"455 911 OFFCURVE",
"442 1106 CURVE",
"451 1106 LINE",
"1087 0 LINE",
"1481 0 LINE",
"1481 1462 LINE"
);
}
);
width = 1665;
}
);
unicode = 004E;
},
{
glyphname = Ntilde;
lastChange = "2013-03-07 06:32:14 +0200";
layers = (
{
layerId = "ECE8EDD2-0EDB-4EFB-866E-7B25CF44A28E";
name = Bold;
paths = (
{
closed = 1;
nodes = (
"1202 1462 LINE",
"1202 770 LINE SMOOTH",
"1202 691 OFFCURVE",
"1207 557 OFFCURVE",
"1217 367 CURVE",
"1210 367 LINE",
"575 1462 LINE",
"184 1462 LINE",
"184 0 LINE",
"461 0 LINE",
"461 688 LINE SMOOTH",
"461 771 OFFCURVE",
"455 911 OFFCURVE",
"442 1106 CURVE",
"451 1106 LINE",
"1087 0 LINE",
"1481 0 LINE",
"1481 1462 LINE"
);
},
{
closed = 1;
nodes = (
"1098 1888 LINE",
"1081 1816 OFFCURVE",
"1038 1782 OFFCURVE",
"997 1782 CURVE SMOOTH",
"949 1782 OFFCURVE",
"900 1808 OFFCURVE",
"849 1834 CURVE SMOOTH",
"797 1860 OFFCURVE",
"745 1886 OFFCURVE",
"690 1886 CURVE SMOOTH",
"533 1886 OFFCURVE",
"433 1770 OFFCURVE",
"418 1577 CURVE",
"567 1577 LINE",
"584 1649 OFFCURVE",
"627 1684 OFFCURVE",
"668 1684 CURVE SMOOTH",
"716 1684 OFFCURVE",
"765 1658 OFFCURVE",
"817 1632 CURVE SMOOTH",
"868 1606 OFFCURVE",
"920 1579 OFFCURVE",
"975 1579 CURVE SMOOTH",
"1130 1579 OFFCURVE",
"1232 1695 OFFCURVE",
"1247 1888 CURVE"
);
}
);
width = 1665;
}
);
unicode = 00D1;
},
{
glyphname = O;
lastChange = "2013-03-07 06:32:14 +0200";
layers = (
{
anchors = (
{
name = top;
position = "{815, 1462}";
}
);
layerId = "ECE8EDD2-0EDB-4EFB-866E-7B25CF44A28E";
name = Bold;
paths = (
{
closed = 1;
nodes = (
"592 1485 OFFCURVE",
"420 1421 OFFCURVE",
"299 1292 CURVE SMOOTH",
"179 1164 OFFCURVE",
"119 977 OFFCURVE",
"119 735 CURVE SMOOTH",
"119 492 OFFCURVE",
"179 305 OFFCURVE",
"299 175 CURVE SMOOTH",
"419 45 OFFCURVE",
"591 -20 OFFCURVE",
"815 -20 CURVE SMOOTH",
"1039 -20 OFFCURVE",
"1211 45 OFFCURVE",
"1331 175 CURVE SMOOTH",
"1451 305 OFFCURVE",
"1511 491 OFFCURVE",
"1511 733 CURVE SMOOTH",
"1511 975 OFFCURVE",
"1451 1162 OFFCURVE",
"1332 1291 CURVE SMOOTH",
"1213 1420 OFFCURVE",
"1042 1485 OFFCURVE",
"817 1485 CURVE SMOOTH"
);
},
{
closed = 1;
nodes = (
"1063 1227 OFFCURVE",
"1186 1062 OFFCURVE",
"1186 733 CURVE SMOOTH",
"1186 404 OFFCURVE",
"1062 240 OFFCURVE",
"815 240 CURVE SMOOTH",
"568 240 OFFCURVE",
"444 406 OFFCURVE",
"444 733 CURVE SMOOTH",
"444 1060 OFFCURVE",
"570 1227 OFFCURVE",
"817 1227 CURVE SMOOTH"
);
}
);
width = 1630;
}
);
unicode = 004F;
},
{
glyphname = Oacute;
lastChange = "2013-03-07 06:32:14 +0200";
layers = (
{
layerId = "ECE8EDD2-0EDB-4EFB-866E-7B25CF44A28E";
name = Bold;
paths = (
{
closed = 1;
nodes = (
"368 1485 OFFCURVE",
"119 1222 OFFCURVE",
"119 735 CURVE SMOOTH",
"119 248 OFFCURVE",
"367 -20 OFFCURVE",
"815 -20 CURVE SMOOTH",
"1263 -20 OFFCURVE",
"1511 249 OFFCURVE",
"1511 733 CURVE SMOOTH",
"1511 1218 OFFCURVE",
"1266 1485 OFFCURVE",
"817 1485 CURVE SMOOTH"
);
},
{
closed = 1;
nodes = (
"1063 1227 OFFCURVE",
"1186 1062 OFFCURVE",
"1186 733 CURVE SMOOTH",
"1186 404 OFFCURVE",
"1062 240 OFFCURVE",
"815 240 CURVE SMOOTH",
"568 240 OFFCURVE",
"444 406 OFFCURVE",
"444 733 CURVE SMOOTH",
"444 1060 OFFCURVE",
"570 1227 OFFCURVE",
"817 1227 CURVE SMOOTH"
);
},
{
closed = 1;
nodes = (
"893 1907 LINE",
"851 1840 OFFCURVE",
"773 1739 OFFCURVE",
"658 1606 CURVE",
"658 1579 LINE",
"861 1579 LINE",
"956 1646 OFFCURVE",
"1166 1817 OFFCURVE",
"1235 1886 CURVE",
"1235 1907 LINE"
);
}
);
width = 1630;
}
);
unicode = 00D3;
},
{
glyphname = Ocircumflex;
lastChange = "2013-03-07 06:32:14 +0200";
layers = (
{
layerId = "ECE8EDD2-0EDB-4EFB-866E-7B25CF44A28E";
name = Bold;
paths = (
{
closed = 1;
nodes = (
"368 1485 OFFCURVE",
"119 1222 OFFCURVE",
"119 735 CURVE SMOOTH",
"119 248 OFFCURVE",
"367 -20 OFFCURVE",
"815 -20 CURVE SMOOTH",
"1263 -20 OFFCURVE",
"1511 249 OFFCURVE",
"1511 733 CURVE SMOOTH",
"1511 1218 OFFCURVE",
"1266 1485 OFFCURVE",
"817 1485 CURVE SMOOTH"
);
},
{
closed = 1;
nodes = (
"1063 1227 OFFCURVE",
"1186 1062 OFFCURVE",
"1186 733 CURVE SMOOTH",
"1186 404 OFFCURVE",
"1062 240 OFFCURVE",
"815 240 CURVE SMOOTH",
"568 240 OFFCURVE",
"444 406 OFFCURVE",
"444 733 CURVE SMOOTH",
"444 1060 OFFCURVE",
"570 1227 OFFCURVE",
"817 1227 CURVE SMOOTH"
);
},
{
closed = 1;
nodes = (
"637 1907 LINE",
"592 1832 OFFCURVE",
"507 1732 OFFCURVE",
"381 1606 CURVE",
"381 1579 LINE",
"584 1579 LINE",
"685 1642 OFFCURVE",
"761 1701 OFFCURVE",
"813 1755 CURVE",
"864 1700 OFFCURVE",
"942 1641 OFFCURVE",
"1047 1579 CURVE",
"1250 1579 LINE",
"1250 1606 LINE",
"1154 1699 OFFCURVE",
"1035 1838 OFFCURVE",
"994 1907 CURVE"
);
}
);
width = 1630;
}
);
unicode = 00D4;
},
{
glyphname = Odieresis;
lastChange = "2013-03-07 06:32:14 +0200";
layers = (
{
layerId = "ECE8EDD2-0EDB-4EFB-866E-7B25CF44A28E";
name = Bold;
paths = (
{
closed = 1;
nodes = (
"368 1485 OFFCURVE",
"119 1222 OFFCURVE",
"119 735 CURVE SMOOTH",
"119 248 OFFCURVE",
"367 -20 OFFCURVE",
"815 -20 CURVE SMOOTH",
"1263 -20 OFFCURVE",
"1511 249 OFFCURVE",
"1511 733 CURVE SMOOTH",
"1511 1218 OFFCURVE",
"1266 1485 OFFCURVE",
"817 1485 CURVE SMOOTH"
);
},
{
closed = 1;
nodes = (
"1063 1227 OFFCURVE",
"1186 1062 OFFCURVE",
"1186 733 CURVE SMOOTH",
"1186 404 OFFCURVE",
"1062 240 OFFCURVE",
"815 240 CURVE SMOOTH",
"568 240 OFFCURVE",
"444 406 OFFCURVE",
"444 733 CURVE SMOOTH",
"444 1060 OFFCURVE",
"570 1227 OFFCURVE",
"817 1227 CURVE SMOOTH"
);
},
{
closed = 1;
nodes = (
"528 1878 OFFCURVE",
"474 1830 OFFCURVE",
"474 1743 CURVE SMOOTH",
"474 1659 OFFCURVE",
"528 1610 OFFCURVE",
"613 1610 CURVE SMOOTH",
"700 1610 OFFCURVE",
"754 1663 OFFCURVE",
"754 1743 CURVE SMOOTH",
"754 1824 OFFCURVE",
"701 1878 OFFCURVE",
"613 1878 CURVE SMOOTH"
);
},
{
closed = 1;
nodes = (
"938 1878 OFFCURVE",
"877 1836 OFFCURVE",
"877 1743 CURVE SMOOTH",
"877 1652 OFFCURVE",
"938 1610 OFFCURVE",
"1018 1610 CURVE SMOOTH",
"1103 1610 OFFCURVE",
"1160 1662 OFFCURVE",
"1160 1743 CURVE SMOOTH",
"1160 1827 OFFCURVE",
"1105 1878 OFFCURVE",
"1018 1878 CURVE SMOOTH"
);
}
);
width = 1630;
}
);
unicode = 00D6;
},
{
glyphname = Ograve;
lastChange = "2013-03-07 06:32:14 +0200";
layers = (
{
layerId = "ECE8EDD2-0EDB-4EFB-866E-7B25CF44A28E";
name = Bold;
paths = (
{
closed = 1;
nodes = (
"368 1485 OFFCURVE",
"119 1222 OFFCURVE",
"119 735 CURVE SMOOTH",
"119 248 OFFCURVE",
"367 -20 OFFCURVE",
"815 -20 CURVE SMOOTH",
"1263 -20 OFFCURVE",
"1511 249 OFFCURVE",
"1511 733 CURVE SMOOTH",
"1511 1218 OFFCURVE",
"1266 1485 OFFCURVE",
"817 1485 CURVE SMOOTH"
);
},
{
closed = 1;
nodes = (
"1063 1227 OFFCURVE",
"1186 1062 OFFCURVE",
"1186 733 CURVE SMOOTH",
"1186 404 OFFCURVE",
"1062 240 OFFCURVE",
"815 240 CURVE SMOOTH",
"568 240 OFFCURVE",
"444 406 OFFCURVE",
"444 733 CURVE SMOOTH",
"444 1060 OFFCURVE",
"570 1227 OFFCURVE",
"817 1227 CURVE SMOOTH"
);
},
{
closed = 1;
nodes = (
"449 1907 LINE",
"449 1886 LINE",
"540 1798 OFFCURVE",
"740 1638 OFFCURVE",
"824 1579 CURVE",
"1026 1579 LINE",
"1026 1606 LINE",
"911 1739 OFFCURVE",
"833 1840 OFFCURVE",
"791 1907 CURVE"
);
}
);
width = 1630;
}
);
unicode = 00D2;
},
{
glyphname = Oslash;
lastChange = "2013-03-07 06:32:14 +0200";
layers = (
{
layerId = "ECE8EDD2-0EDB-4EFB-866E-7B25CF44A28E";
name = Bold;
paths = (
{
closed = 1;
nodes = (
"1161 1415 LINE",
"1064 1462 OFFCURVE",
"949 1485 OFFCURVE",
"817 1485 CURVE SMOOTH",
"368 1485 OFFCURVE",
"119 1222 OFFCURVE",
"119 735 CURVE SMOOTH",
"119 477 OFFCURVE",
"185 283 OFFCURVE",
"317 154 CURVE",
"227 18 LINE",
"389 -90 LINE",
"479 45 LINE",
"572 2 OFFCURVE",
"684 -20 OFFCURVE",
"815 -20 CURVE SMOOTH",
"1263 -20 OFFCURVE",
"1511 249 OFFCURVE",
"1511 733 CURVE SMOOTH",
"1511 985 OFFCURVE",
"1446 1176 OFFCURVE",
"1317 1305 CURVE",
"1405 1436 LINE",
"1245 1540 LINE"
);
},
{
closed = 1;
nodes = (
"1169 952 OFFCURVE",
"1186 853 OFFCURVE",
"1186 733 CURVE SMOOTH",
"1186 404 OFFCURVE",
"1062 240 OFFCURVE",
"815 240 CURVE SMOOTH",
"746 240 OFFCURVE",
"686 253 OFFCURVE",
"635 279 CURVE",
"1135 1030 LINE"
);
},
{
closed = 1;
nodes = (
"887 1227 OFFCURVE",
"950 1212 OFFCURVE",
"1006 1182 CURVE",
"500 426 LINE",
"463 503 OFFCURVE",
"444 606 OFFCURVE",
"444 733 CURVE SMOOTH",
"444 1060 OFFCURVE",
"570 1227 OFFCURVE",
"817 1227 CURVE SMOOTH"
);
}
);
width = 1630;
}
);
unicode = 00D8;
},
{
glyphname = Otilde;
lastChange = "2013-03-07 06:32:14 +0200";
layers = (
{
layerId = "ECE8EDD2-0EDB-4EFB-866E-7B25CF44A28E";
name = Bold;
paths = (
{
closed = 1;
nodes = (
"368 1485 OFFCURVE",
"119 1222 OFFCURVE",
"119 735 CURVE SMOOTH",
"119 248 OFFCURVE",
"367 -20 OFFCURVE",
"815 -20 CURVE SMOOTH",
"1263 -20 OFFCURVE",
"1511 249 OFFCURVE",
"1511 733 CURVE SMOOTH",
"1511 1218 OFFCURVE",
"1266 1485 OFFCURVE",
"817 1485 CURVE SMOOTH"
);
},
{
closed = 1;
nodes = (
"1063 1227 OFFCURVE",
"1186 1062 OFFCURVE",
"1186 733 CURVE SMOOTH",
"1186 404 OFFCURVE",
"1062 240 OFFCURVE",
"815 240 CURVE SMOOTH",
"568 240 OFFCURVE",
"444 406 OFFCURVE",
"444 733 CURVE SMOOTH",
"444 1060 OFFCURVE",
"570 1227 OFFCURVE",
"817 1227 CURVE SMOOTH"
);
},
{
closed = 1;
nodes = (
"1082 1888 LINE",
"1065 1816 OFFCURVE",
"1022 1782 OFFCURVE",
"981 1782 CURVE SMOOTH",
"933 1782 OFFCURVE",
"884 1808 OFFCURVE",
"833 1834 CURVE SMOOTH",
"781 1860 OFFCURVE",
"729 1886 OFFCURVE",
"674 1886 CURVE SMOOTH",
"517 1886 OFFCURVE",
"417 1770 OFFCURVE",
"402 1577 CURVE",
"551 1577 LINE",
"568 1649 OFFCURVE",
"611 1684 OFFCURVE",
"652 1684 CURVE SMOOTH",
"700 1684 OFFCURVE",
"749 1658 OFFCURVE",
"801 1632 CURVE SMOOTH",
"852 1606 OFFCURVE",
"904 1579 OFFCURVE",
"959 1579 CURVE SMOOTH",
"1114 1579 OFFCURVE",
"1216 1695 OFFCURVE",
"1231 1888 CURVE"
);
}
);
width = 1630;
}
);
unicode = 00D5;
},
{
glyphname = OE;
lastChange = "2013-03-07 06:32:14 +0200";
layers = (
{
layerId = "ECE8EDD2-0EDB-4EFB-866E-7B25CF44A28E";
name = Bold;
paths = (
{
closed = 1;
nodes = (
"352 1485 OFFCURVE",
"119 1219 OFFCURVE",
"119 735 CURVE SMOOTH",
"119 254 OFFCURVE",
"349 -20 OFFCURVE",
"774 -20 CURVE SMOOTH",
"834 -20 OFFCURVE",
"948 -12 OFFCURVE",
"999 0 CURVE",
"1872 0 LINE",
"1872 256 LINE",
"1309 256 LINE",
"1309 633 LINE",
"1835 633 LINE",
"1835 887 LINE",
"1309 887 LINE",
"1309 1208 LINE",
"1872 1208 LINE",
"1872 1462 LINE",
"1004 1462 LINE",
"957 1474 OFFCURVE",
"857 1485 OFFCURVE",
"776 1485 CURVE SMOOTH"
);
},
{
closed = 1;
nodes = (
"849 1227 OFFCURVE",
"952 1211 OFFCURVE",
"999 1186 CURVE",
"999 279 LINE",
"948 255 OFFCURVE",
"861 240 OFFCURVE",
"774 240 CURVE SMOOTH",
"555 240 OFFCURVE",
"438 408 OFFCURVE",
"438 733 CURVE SMOOTH",
"438 1057 OFFCURVE",
"555 1227 OFFCURVE",
"776 1227 CURVE SMOOTH"
);
}
);
width = 1993;
}
);
unicode = 0152;
},
{
glyphname = P;
lastChange = "2013-03-07 06:32:14 +0200";
layers = (
{
layerId = "ECE8EDD2-0EDB-4EFB-866E-7B25CF44A28E";
name = Bold;
paths = (
{
closed = 1;
nodes = (
"184 1462 LINE",
"184 0 LINE",
"494 0 LINE",
"494 520 LINE",
"627 520 LINE SMOOTH",
"808 520 OFFCURVE",
"948 562 OFFCURVE",
"1046 645 CURVE SMOOTH",
"1145 728 OFFCURVE",
"1194 849 OFFCURVE",
"1194 1006 CURVE SMOOTH",
"1194 1309 OFFCURVE",
"1006 1462 OFFCURVE",
"651 1462 CURVE SMOOTH"
);
},
{
closed = 1;
nodes = (
"804 1208 OFFCURVE",
"881 1140 OFFCURVE",
"881 994 CURVE SMOOTH",
"881 851 OFFCURVE",
"787 774 OFFCURVE",
"596 774 CURVE SMOOTH",
"494 774 LINE",
"494 1208 LINE",
"635 1208 LINE SMOOTH"
);
}
);
width = 1286;
}
);
unicode = 0050;
},
{
glyphname = Thorn;
lastChange = "2013-03-07 06:32:14 +0200";
layers = (
{
layerId = "ECE8EDD2-0EDB-4EFB-866E-7B25CF44A28E";
name = Bold;
paths = (
{
closed = 1;
nodes = (
"184 1462 LINE",
"184 0 LINE",
"494 0 LINE",
"494 293 LINE",
"647 293 LINE SMOOTH",
"996 293 OFFCURVE",
"1194 465 OFFCURVE",
"1194 770 CURVE SMOOTH",
"1194 1070 OFFCURVE",
"1011 1233 OFFCURVE",
"672 1233 CURVE SMOOTH",
"494 1233 LINE",
"494 1462 LINE"
);
},
{
closed = 1;
nodes = (
"799 981 OFFCURVE",
"881 913 OFFCURVE",
"881 770 CURVE SMOOTH",
"881 607 OFFCURVE",
"787 543 OFFCURVE",
"594 543 CURVE SMOOTH",
"494 543 LINE",
"494 981 LINE",
"618 981 LINE SMOOTH"
);
}
);
width = 1286;
}
);
unicode = 00DE;
},
{
glyphname = Q;
lastChange = "2013-03-07 06:32:14 +0200";
layers = (
{
layerId = "ECE8EDD2-0EDB-4EFB-866E-7B25CF44A28E";
name = Bold;
paths = (
{
closed = 1;
nodes = (
"592 1485 OFFCURVE",
"420 1421 OFFCURVE",
"299 1292 CURVE SMOOTH",
"179 1164 OFFCURVE",
"119 977 OFFCURVE",
"119 735 CURVE SMOOTH",
"119 492 OFFCURVE",
"179 305 OFFCURVE",
"299 175 CURVE SMOOTH",
"419 45 OFFCURVE",
"591 -20 OFFCURVE",
"815 -20 CURVE SMOOTH",
"838 -20 LINE",
"1106 -348 LINE",
"1503 -348 LINE",
"1151 45 LINE",
"1387 153 OFFCURVE",
"1511 389 OFFCURVE",
"1511 733 CURVE SMOOTH",
"1511 975 OFFCURVE",
"1451 1162 OFFCURVE",
"1332 1291 CURVE SMOOTH",
"1213 1420 OFFCURVE",
"1042 1485 OFFCURVE",
"817 1485 CURVE SMOOTH"
);
},
{
closed = 1;
nodes = (
"1063 1227 OFFCURVE",
"1186 1062 OFFCURVE",
"1186 733 CURVE SMOOTH",
"1186 404 OFFCURVE",
"1062 240 OFFCURVE",
"815 240 CURVE SMOOTH",
"568 240 OFFCURVE",
"444 406 OFFCURVE",
"444 733 CURVE SMOOTH",
"444 1060 OFFCURVE",
"570 1227 OFFCURVE",
"817 1227 CURVE SMOOTH"
);
}
);
width = 1630;
}
);
unicode = 0051;
},
{
glyphname = R;
lastChange = "2013-03-07 06:32:14 +0200";
layers = (
{
anchors = (
{
name = bottom;
position = "{676, 0}";
},
{
name = top;
position = "{676, 1462}";
}
);
layerId = "ECE8EDD2-0EDB-4EFB-866E-7B25CF44A28E";
name = Bold;
paths = (
{
closed = 1;
nodes = (
"184 1462 LINE",
"184 0 LINE",
"494 0 LINE",
"494 561 LINE",
"659 561 LINE",
"1008 0 LINE",
"1352 0 LINE",
"1285 95 OFFCURVE",
"1142 308 OFFCURVE",
"922 637 CURVE",
"1095 713 OFFCURVE",
"1194 852 OFFCURVE",
"1194 1024 CURVE SMOOTH",
"1194 1319 OFFCURVE",
"1007 1462 OFFCURVE",
"610 1462 CURVE SMOOTH"
);
},
{
closed = 1;
nodes = (
"788 1208 OFFCURVE",
"881 1155 OFFCURVE",
"881 1016 CURVE SMOOTH",
"881 876 OFFCURVE",
"790 813 OFFCURVE",
"594 813 CURVE SMOOTH",
"494 813 LINE",
"494 1208 LINE",
"588 1208 LINE SMOOTH"
);
}
);
width = 1352;
}
);
unicode = 0052;
},
{
glyphname = S;
lastChange = "2013-03-07 06:32:14 +0200";
layers = (
{
anchors = (
{
name = bottom;
position = "{564, 0}";
},
{
name = top;
position = "{564, 1462}";
}
);
layerId = "ECE8EDD2-0EDB-4EFB-866E-7B25CF44A28E";
name = Bold;
paths = (
{
closed = 1;
nodes = (
"451 1483 OFFCURVE",
"330 1446 OFFCURVE",
"242 1372 CURVE SMOOTH",
"155 1298 OFFCURVE",
"111 1196 OFFCURVE",
"111 1067 CURVE SMOOTH",
"111 930 OFFCURVE",
"169 829 OFFCURVE",
"258 752 CURVE SMOOTH",
"303 713 OFFCURVE",
"370 673 OFFCURVE",
"459 631 CURVE SMOOTH",
"554 586 OFFCURVE",
"617 553 OFFCURVE",
"648 532 CURVE SMOOTH",
"679 511 OFFCURVE",
"703 490 OFFCURVE",
"719 467 CURVE SMOOTH",
"735 445 OFFCURVE",
"743 420 OFFCURVE",
"743 391 CURVE SMOOTH",
"743 288 OFFCURVE",
"668 236 OFFCURVE",
"532 236 CURVE SMOOTH",
"475 236 OFFCURVE",
"413 245 OFFCURVE",
"344 263 CURVE SMOOTH",
"276 281 OFFCURVE",
"193 312 OFFCURVE",
"93 356 CURVE",
"93 68 LINE",
"214 9 OFFCURVE",
"352 -20 OFFCURVE",
"508 -20 CURVE SMOOTH",
"677 -20 OFFCURVE",
"809 18 OFFCURVE",
"904 93 CURVE SMOOTH",
"998 170 OFFCURVE",
"1047 274 OFFCURVE",
"1047 406 CURVE SMOOTH",
"1047 501 OFFCURVE",
"1022 582 OFFCURVE",
"970 647 CURVE SMOOTH",
"920 713 OFFCURVE",
"827 779 OFFCURVE",
"690 844 CURVE SMOOTH",
"587 893 OFFCURVE",
"521 927 OFFCURVE",
"493 946 CURVE SMOOTH",
"466 965 OFFCURVE",
"446 984 OFFCURVE",
"433 1005 CURVE SMOOTH",
"420 1026 OFFCURVE",
"414 1050 OFFCURVE",
"414 1077 CURVE SMOOTH",
"414 1165 OFFCURVE",
"479 1225 OFFCURVE",
"596 1225 CURVE SMOOTH",
"645 1225 OFFCURVE",
"695 1219 OFFCURVE",
"746 1206 CURVE SMOOTH",
"797 1193 OFFCURVE",
"862 1171 OFFCURVE",
"940 1139 CURVE",
"1040 1380 LINE",
"889 1445 OFFCURVE",
"758 1483 OFFCURVE",
"606 1483 CURVE SMOOTH"
);
}
);
width = 1128;
}
);
unicode = 0053;
},
{
glyphname = Scaron;
lastChange = "2013-03-07 06:32:14 +0200";
layers = (
{
layerId = "ECE8EDD2-0EDB-4EFB-866E-7B25CF44A28E";
name = Bold;
paths = (
{
closed = 1;
nodes = (
"297 1483 OFFCURVE",
"111 1326 OFFCURVE",
"111 1067 CURVE SMOOTH",
"111 998 OFFCURVE",
"124 938 OFFCURVE",
"151 887 CURVE SMOOTH",
"204 784 OFFCURVE",
"280 715 OFFCURVE",
"459 631 CURVE SMOOTH",
"554 586 OFFCURVE",
"618 553 OFFCURVE",
"649 532 CURVE SMOOTH",
"711 491 OFFCURVE",
"743 448 OFFCURVE",
"743 391 CURVE SMOOTH",
"743 288 OFFCURVE",
"668 236 OFFCURVE",
"532 236 CURVE SMOOTH",
"419 236 OFFCURVE",
"291 268 OFFCURVE",
"94 356 CURVE",
"94 68 LINE",
"214 9 OFFCURVE",
"352 -20 OFFCURVE",
"508 -20 CURVE SMOOTH",
"847 -20 OFFCURVE",
"1047 142 OFFCURVE",
"1047 406 CURVE SMOOTH",
"1047 597 OFFCURVE",
"963 713 OFFCURVE",
"690 844 CURVE SMOOTH",
"587 893 OFFCURVE",
"521 928 OFFCURVE",
"494 947 CURVE SMOOTH",
"438 985 OFFCURVE",
"414 1022 OFFCURVE",
"414 1077 CURVE SMOOTH",
"414 1165 OFFCURVE",
"479 1225 OFFCURVE",
"596 1225 CURVE SMOOTH",
"695 1225 OFFCURVE",
"784 1203 OFFCURVE",
"940 1139 CURVE",
"1040 1380 LINE",
"889 1445 OFFCURVE",
"758 1483 OFFCURVE",
"606 1483 CURVE SMOOTH"
);
},
{
closed = 1;
nodes = (
"830 1907 LINE",
"730 1848 OFFCURVE",
"652 1789 OFFCURVE",
"596 1731 CURVE",
"541 1786 OFFCURVE",
"465 1845 OFFCURVE",
"367 1907 CURVE",
"164 1907 LINE",
"164 1880 LINE",
"243 1798 OFFCURVE",
"301 1735 OFFCURVE",
"337 1692 CURVE SMOOTH",
"373 1648 OFFCURVE",
"401 1610 OFFCURVE",
"420 1579 CURVE",
"777 1579 LINE",
"818 1646 OFFCURVE",
"921 1768 OFFCURVE",
"1033 1880 CURVE",
"1033 1907 LINE"
);
}
);
width = 1128;
}
);
unicode = 0160;
},
{
glyphname = T;
lastChange = "2013-03-07 06:32:14 +0200";
layers = (
{
anchors = (
{
name = bottom;
position = "{593, 0}";
},
{
name = center;
position = "{593, 731}";
},
{
name = top;
position = "{593, 1462}";
}
);
layerId = "ECE8EDD2-0EDB-4EFB-866E-7B25CF44A28E";
name = Bold;
paths = (
{
closed = 1;
nodes = (
"41 1462 LINE",
"41 1204 LINE",
"438 1204 LINE",
"438 0 LINE",
"748 0 LINE",
"748 1204 LINE",
"1145 1204 LINE",
"1145 1462 LINE"
);
}
);
width = 1186;
}
);
unicode = 0054;
},
{
glyphname = U;
lastChange = "2013-03-07 06:32:14 +0200";
layers = (
{
anchors = (
{
name = ogonek;
position = "{1393, 10}";
},
{
name = top;
position = "{774, 1462}";
}
);
layerId = "ECE8EDD2-0EDB-4EFB-866E-7B25CF44A28E";
name = Bold;
paths = (
{
closed = 1;
nodes = (
"1065 1462 LINE",
"1065 569 LINE SMOOTH",
"1065 342 OFFCURVE",
"978 240 OFFCURVE",
"776 240 CURVE SMOOTH",
"567 240 OFFCURVE",
"483 342 OFFCURVE",
"483 567 CURVE SMOOTH",
"483 1462 LINE",
"174 1462 LINE",
"174 520 LINE SMOOTH",
"174 353 OFFCURVE",
"226 221 OFFCURVE",
"330 124 CURVE SMOOTH",
"434 28 OFFCURVE",
"580 -20 OFFCURVE",
"768 -20 CURVE SMOOTH",
"1142 -24 OFFCURVE",
"1377 192 OFFCURVE",
"1374 516 CURVE",
"1374 1462 LINE"
);
}
);
width = 1548;
}
);
unicode = 0055;
},
{
glyphname = Uacute;
lastChange = "2013-03-07 06:32:14 +0200";
layers = (
{
layerId = "ECE8EDD2-0EDB-4EFB-866E-7B25CF44A28E";
name = Bold;
paths = (
{
closed = 1;
nodes = (
"1065 1462 LINE",
"1065 569 LINE SMOOTH",
"1065 342 OFFCURVE",
"979 240 OFFCURVE",
"776 240 CURVE SMOOTH",
"567 240 OFFCURVE",
"483 342 OFFCURVE",
"483 567 CURVE SMOOTH",
"483 1462 LINE",
"174 1462 LINE",
"174 520 LINE SMOOTH",
"174 185 OFFCURVE",
"392 -20 OFFCURVE",
"768 -20 CURVE SMOOTH",
"893 -20 OFFCURVE",
"1001 2 OFFCURVE",
"1092 45 CURVE SMOOTH",
"1275 132 OFFCURVE",
"1374 300 OFFCURVE",
"1374 516 CURVE SMOOTH",
"1374 1462 LINE"
);
},
{
closed = 1;
nodes = (
"837 1907 LINE",
"795 1840 OFFCURVE",
"717 1739 OFFCURVE",
"602 1606 CURVE",
"602 1579 LINE",
"805 1579 LINE",
"900 1646 OFFCURVE",
"1110 1817 OFFCURVE",
"1179 1886 CURVE",
"1179 1907 LINE"
);
}
);
width = 1548;
}
);
unicode = 00DA;
},
{
glyphname = Ucircumflex;
lastChange = "2013-03-07 06:32:14 +0200";
layers = (
{
layerId = "ECE8EDD2-0EDB-4EFB-866E-7B25CF44A28E";
name = Bold;
paths = (
{
closed = 1;
nodes = (
"1065 1462 LINE",
"1065 569 LINE SMOOTH",
"1065 342 OFFCURVE",
"979 240 OFFCURVE",
"776 240 CURVE SMOOTH",
"567 240 OFFCURVE",
"483 342 OFFCURVE",
"483 567 CURVE SMOOTH",
"483 1462 LINE",
"174 1462 LINE",
"174 520 LINE SMOOTH",
"174 185 OFFCURVE",
"392 -20 OFFCURVE",
"768 -20 CURVE SMOOTH",
"893 -20 OFFCURVE",
"1001 2 OFFCURVE",
"1092 45 CURVE SMOOTH",
"1275 132 OFFCURVE",
"1374 300 OFFCURVE",
"1374 516 CURVE SMOOTH",
"1374 1462 LINE"
);
},
{
closed = 1;
nodes = (
"596 1907 LINE",
"551 1832 OFFCURVE",
"466 1732 OFFCURVE",
"340 1606 CURVE",
"340 1579 LINE",
"543 1579 LINE",
"644 1642 OFFCURVE",
"720 1701 OFFCURVE",
"772 1755 CURVE",
"823 1700 OFFCURVE",
"901 1641 OFFCURVE",
"1006 1579 CURVE",
"1209 1579 LINE",
"1209 1606 LINE",
"1113 1699 OFFCURVE",
"994 1838 OFFCURVE",
"953 1907 CURVE"
);
}
);
width = 1548;
}
);
unicode = 00DB;
},
{
glyphname = Udieresis;
lastChange = "2013-03-07 06:32:14 +0200";
layers = (
{
layerId = "ECE8EDD2-0EDB-4EFB-866E-7B25CF44A28E";
name = Bold;
paths = (
{
closed = 1;
nodes = (
"1065 1462 LINE",
"1065 569 LINE SMOOTH",
"1065 342 OFFCURVE",
"979 240 OFFCURVE",
"776 240 CURVE SMOOTH",
"567 240 OFFCURVE",
"483 342 OFFCURVE",
"483 567 CURVE SMOOTH",
"483 1462 LINE",
"174 1462 LINE",
"174 520 LINE SMOOTH",
"174 185 OFFCURVE",
"392 -20 OFFCURVE",
"768 -20 CURVE SMOOTH",
"893 -20 OFFCURVE",
"1001 2 OFFCURVE",
"1092 45 CURVE SMOOTH",
"1275 132 OFFCURVE",
"1374 300 OFFCURVE",
"1374 516 CURVE SMOOTH",
"1374 1462 LINE"
);
},
{
closed = 1;
nodes = (
"487 1878 OFFCURVE",
"433 1830 OFFCURVE",
"433 1743 CURVE SMOOTH",
"433 1659 OFFCURVE",
"487 1610 OFFCURVE",
"572 1610 CURVE SMOOTH",
"659 1610 OFFCURVE",
"713 1663 OFFCURVE",
"713 1743 CURVE SMOOTH",
"713 1824 OFFCURVE",
"660 1878 OFFCURVE",
"572 1878 CURVE SMOOTH"
);
},
{
closed = 1;
nodes = (
"897 1878 OFFCURVE",
"836 1836 OFFCURVE",
"836 1743 CURVE SMOOTH",
"836 1652 OFFCURVE",
"897 1610 OFFCURVE",
"977 1610 CURVE SMOOTH",
"1062 1610 OFFCURVE",
"1119 1662 OFFCURVE",
"1119 1743 CURVE SMOOTH",
"1119 1827 OFFCURVE",
"1064 1878 OFFCURVE",
"977 1878 CURVE SMOOTH"
);
}
);
width = 1548;
}
);
unicode = 00DC;
},
{
glyphname = Ugrave;
lastChange = "2013-03-07 06:32:14 +0200";
layers = (
{
layerId = "ECE8EDD2-0EDB-4EFB-866E-7B25CF44A28E";
name = Bold;
paths = (
{
closed = 1;
nodes = (
"1065 1462 LINE",
"1065 569 LINE SMOOTH",
"1065 342 OFFCURVE",
"979 240 OFFCURVE",
"776 240 CURVE SMOOTH",
"567 240 OFFCURVE",
"483 342 OFFCURVE",
"483 567 CURVE SMOOTH",
"483 1462 LINE",
"174 1462 LINE",
"174 520 LINE SMOOTH",
"174 185 OFFCURVE",
"392 -20 OFFCURVE",
"768 -20 CURVE SMOOTH",
"893 -20 OFFCURVE",
"1001 2 OFFCURVE",
"1092 45 CURVE SMOOTH",
"1275 132 OFFCURVE",
"1374 300 OFFCURVE",
"1374 516 CURVE SMOOTH",
"1374 1462 LINE"
);
},
{
closed = 1;
nodes = (
"375 1907 LINE",
"375 1886 LINE",
"466 1798 OFFCURVE",
"666 1638 OFFCURVE",
"750 1579 CURVE",
"952 1579 LINE",
"952 1606 LINE",
"837 1739 OFFCURVE",
"759 1840 OFFCURVE",
"717 1907 CURVE"
);
}
);
width = 1548;
}
);
unicode = 00D9;
},
{
glyphname = V;
lastChange = "2013-03-07 06:32:14 +0200";
layers = (
{
layerId = "ECE8EDD2-0EDB-4EFB-866E-7B25CF44A28E";
name = Bold;
paths = (
{
closed = 1;
nodes = (
"1018 1462 LINE",
"741 592 LINE SMOOTH",
"698 439 OFFCURVE",
"673 331 OFFCURVE",
"666 270 CURVE",
"662 297 OFFCURVE",
"652 344 OFFCURVE",
"635 412 CURVE SMOOTH",
"619 481 OFFCURVE",
"603 541 OFFCURVE",
"588 592 CURVE SMOOTH",
"313 1462 LINE",
"0 1462 LINE",
"496 0 LINE",
"834 0 LINE",
"1331 1462 LINE"
);
}
);
width = 1331;
}
);
unicode = 0056;
},
{
glyphname = W;
lastChange = "2013-03-07 06:32:14 +0200";
layers = (
{
anchors = (
{
name = top;
position = "{990, 1462}";
}
);
layerId = "ECE8EDD2-0EDB-4EFB-866E-7B25CF44A28E";
name = Bold;
paths = (
{
closed = 1;
nodes = (
"1675 1462 LINE",
"1489 664 LINE SMOOTH",
"1477 616 OFFCURVE",
"1464 553 OFFCURVE",
"1449 475 CURVE SMOOTH",
"1434 398 OFFCURVE",
"1424 333 OFFCURVE",
"1417 281 CURVE",
"1410 335 OFFCURVE",
"1399 400 OFFCURVE",
"1385 475 CURVE SMOOTH",
"1371 550 OFFCURVE",
"1359 606 OFFCURVE",
"1350 643 CURVE SMOOTH",
"1137 1462 LINE",
"844 1462 LINE",
"631 643 LINE SMOOTH",
"618 599 OFFCURVE",
"605 537 OFFCURVE",
"590 457 CURVE SMOOTH",
"576 378 OFFCURVE",
"567 319 OFFCURVE",
"563 281 CURVE",
"548 389 OFFCURVE",
"525 517 OFFCURVE",
"492 664 CURVE SMOOTH",
"305 1462 LINE",
"0 1462 LINE",
"373 0 LINE",
"725 0 LINE",
"922 766 LINE SMOOTH",
"931 800 OFFCURVE",
"943 857 OFFCURVE",
"959 936 CURVE SMOOTH",
"974 1016 OFFCURVE",
"984 1074 OFFCURVE",
"988 1110 CURVE",
"991 1081 OFFCURVE",
"1002 1023 OFFCURVE",
"1019 937 CURVE SMOOTH",
"1037 852 OFFCURVE",
"1050 795 OFFCURVE",
"1057 768 CURVE SMOOTH",
"1255 0 LINE",
"1608 0 LINE",
"1980 1462 LINE"
);
}
);
width = 1980;
}
);
unicode = 0057;
},
{
glyphname = X;
lastChange = "2013-03-07 06:32:14 +0200";
layers = (
{
layerId = "ECE8EDD2-0EDB-4EFB-866E-7B25CF44A28E";
name = Bold;
paths = (
{
closed = 1;
nodes = (
"996 1462 LINE",
"688 936 LINE",
"373 1462 LINE",
"31 1462 LINE",
"485 754 LINE",
"0 0 LINE",
"332 0 LINE",
"672 553 LINE",
"1012 0 LINE",
"1366 0 LINE",
"872 737 LINE",
"1331 1462 LINE"
);
}
);
width = 1366;
}
);
unicode = 0058;
},
{
glyphname = Y;
lastChange = "2013-03-07 06:32:14 +0200";
layers = (
{
anchors = (
{
name = top;
position = "{639, 1462}";
}
);
layerId = "ECE8EDD2-0EDB-4EFB-866E-7B25CF44A28E";
name = Bold;
paths = (
{
closed = 1;
nodes = (
"944 1462 LINE",
"639 860 LINE",
"336 1462 LINE",
"0 1462 LINE",
"485 559 LINE",
"485 0 LINE",
"793 0 LINE",
"793 569 LINE",
"1278 1462 LINE"
);
}
);
width = 1278;
}
);
unicode = 0059;
},
{
glyphname = Yacute;
lastChange = "2013-03-07 06:32:14 +0200";
layers = (
{
layerId = "ECE8EDD2-0EDB-4EFB-866E-7B25CF44A28E";
name = Bold;
paths = (
{
closed = 1;
nodes = (
"944 1462 LINE",
"639 860 LINE",
"336 1462 LINE",
"0 1462 LINE",
"485 559 LINE",
"485 0 LINE",
"793 0 LINE",
"793 569 LINE",
"1278 1462 LINE"
);
},
{
closed = 1;
nodes = (
"696 1907 LINE",
"654 1840 OFFCURVE",
"576 1739 OFFCURVE",
"461 1606 CURVE",
"461 1579 LINE",
"664 1579 LINE",
"759 1646 OFFCURVE",
"969 1817 OFFCURVE",
"1038 1886 CURVE",
"1038 1907 LINE"
);
}
);
width = 1278;
}
);
unicode = 00DD;
},
{
glyphname = Ydieresis;
lastChange = "2013-03-07 06:32:14 +0200";
layers = (
{
layerId = "ECE8EDD2-0EDB-4EFB-866E-7B25CF44A28E";
name = Bold;
paths = (
{
closed = 1;
nodes = (
"944 1462 LINE",
"639 860 LINE",
"336 1462 LINE",
"0 1462 LINE",
"485 559 LINE",
"485 0 LINE",
"793 0 LINE",
"793 569 LINE",
"1278 1462 LINE"
);
},
{
closed = 1;
nodes = (
"351 1878 OFFCURVE",
"297 1830 OFFCURVE",
"297 1743 CURVE SMOOTH",
"297 1659 OFFCURVE",
"351 1610 OFFCURVE",
"436 1610 CURVE SMOOTH",
"523 1610 OFFCURVE",
"577 1663 OFFCURVE",
"577 1743 CURVE SMOOTH",
"577 1824 OFFCURVE",
"524 1878 OFFCURVE",
"436 1878 CURVE SMOOTH"
);
},
{
closed = 1;
nodes = (
"761 1878 OFFCURVE",
"700 1836 OFFCURVE",
"700 1743 CURVE SMOOTH",
"700 1652 OFFCURVE",
"761 1610 OFFCURVE",
"841 1610 CURVE SMOOTH",
"926 1610 OFFCURVE",
"983 1662 OFFCURVE",
"983 1743 CURVE SMOOTH",
"983 1827 OFFCURVE",
"928 1878 OFFCURVE",
"841 1878 CURVE SMOOTH"
);
}
);
width = 1278;
}
);
unicode = 0178;
},
{
glyphname = Z;
lastChange = "2013-03-07 06:32:14 +0200";
layers = (
{
anchors = (
{
name = top;
position = "{593, 1462}";
}
);
layerId = "ECE8EDD2-0EDB-4EFB-866E-7B25CF44A28E";
name = Bold;
paths = (
{
closed = 1;
nodes = (
"68 1462 LINE",
"68 1206 LINE",
"750 1206 LINE",
"49 201 LINE",
"49 0 LINE",
"1137 0 LINE",
"1137 256 LINE",
"418 256 LINE",
"1118 1262 LINE",
"1118 1462 LINE"
);
}
);
width = 1186;
}
);
unicode = 005A;
},
{
glyphname = Zcaron;
lastChange = "2013-03-07 06:32:14 +0200";
layers = (
{
layerId = "ECE8EDD2-0EDB-4EFB-866E-7B25CF44A28E";
name = Bold;
paths = (
{
closed = 1;
nodes = (
"68 1462 LINE",
"68 1206 LINE",
"750 1206 LINE",
"49 201 LINE",
"49 0 LINE",
"1137 0 LINE",
"1137 256 LINE",
"418 256 LINE",
"1118 1262 LINE",
"1118 1462 LINE"
);
},
{
closed = 1;
nodes = (
"837 1907 LINE",
"737 1848 OFFCURVE",
"659 1789 OFFCURVE",
"603 1731 CURVE",
"548 1786 OFFCURVE",
"472 1845 OFFCURVE",
"374 1907 CURVE",
"171 1907 LINE",
"171 1880 LINE",
"250 1798 OFFCURVE",
"308 1735 OFFCURVE",
"344 1692 CURVE SMOOTH",
"380 1648 OFFCURVE",
"408 1610 OFFCURVE",
"427 1579 CURVE",
"784 1579 LINE",
"825 1646 OFFCURVE",
"928 1768 OFFCURVE",
"1040 1880 CURVE",
"1040 1907 LINE"
);
}
);
width = 1186;
}
);
unicode = 017D;
},
{
glyphname = a;
lastChange = "2013-03-07 06:32:14 +0200";
layers = (
{
anchors = (
{
name = ogonek;
position = "{1113, 10}";
},
{
name = top;
position = "{619, 1118}";
}
);
layerId = "ECE8EDD2-0EDB-4EFB-866E-7B25CF44A28E";
name = Bold;
paths = (
{
closed = 1;
nodes = (
"461 1141 OFFCURVE",
"319 1107 OFFCURVE",
"190 1040 CURVE",
"291 834 LINE",
"412 888 OFFCURVE",
"517 915 OFFCURVE",
"606 915 CURVE SMOOTH",
"722 915 OFFCURVE",
"780 858 OFFCURVE",
"780 745 CURVE SMOOTH",
"780 696 LINE",
"586 690 LINE SMOOTH",
"251 678 OFFCURVE",
"86 571 OFFCURVE",
"86 334 CURVE SMOOTH",
"86 221 OFFCURVE",
"117 133 OFFCURVE",
"178 72 CURVE SMOOTH",
"240 11 OFFCURVE",
"325 -20 OFFCURVE",
"432 -20 CURVE SMOOTH",
"519 -20 OFFCURVE",
"590 -8 OFFCURVE",
"644 17 CURVE SMOOTH",
"699 42 OFFCURVE",
"752 87 OFFCURVE",
"803 152 CURVE",
"811 152 LINE",
"870 0 LINE",
"1083 0 LINE",
"1083 745 LINE SMOOTH",
"1083 1012 OFFCURVE",
"918 1141 OFFCURVE",
"618 1141 CURVE SMOOTH"
);
},
{
closed = 1;
nodes = (
"780 426 LINE SMOOTH",
"780 359 OFFCURVE",
"759 305 OFFCURVE",
"716 264 CURVE SMOOTH",
"674 223 OFFCURVE",
"618 203 OFFCURVE",
"547 203 CURVE SMOOTH",
"448 203 OFFCURVE",
"399 246 OFFCURVE",
"399 332 CURVE SMOOTH",
"399 452 OFFCURVE",
"485 509 OFFCURVE",
"662 514 CURVE SMOOTH",
"780 518 LINE"
);
}
);
width = 1237;
}
);
unicode = 0061;
},
{
glyphname = aacute;
lastChange = "2013-03-07 06:32:14 +0200";
layers = (
{
layerId = "ECE8EDD2-0EDB-4EFB-866E-7B25CF44A28E";
name = Bold;
paths = (
{
closed = 1;
nodes = (
"461 1141 OFFCURVE",
"319 1107 OFFCURVE",
"190 1040 CURVE",
"291 834 LINE",
"412 888 OFFCURVE",
"517 915 OFFCURVE",
"606 915 CURVE SMOOTH",
"722 915 OFFCURVE",
"780 858 OFFCURVE",
"780 745 CURVE SMOOTH",
"780 696 LINE",
"586 690 LINE SMOOTH",
"251 678 OFFCURVE",
"86 571 OFFCURVE",
"86 334 CURVE SMOOTH",
"86 107 OFFCURVE",
"217 -20 OFFCURVE",
"432 -20 CURVE SMOOTH",
"607 -20 OFFCURVE",
"700 23 OFFCURVE",
"803 152 CURVE",
"811 152 LINE",
"870 0 LINE",
"1083 0 LINE",
"1083 745 LINE SMOOTH",
"1083 1012 OFFCURVE",
"918 1141 OFFCURVE",
"618 1141 CURVE SMOOTH"
);
},
{
closed = 1;
nodes = (
"780 426 LINE SMOOTH",
"780 291 OFFCURVE",
"688 203 OFFCURVE",
"547 203 CURVE SMOOTH",
"448 203 OFFCURVE",
"399 246 OFFCURVE",
"399 332 CURVE SMOOTH",
"399 452 OFFCURVE",
"485 509 OFFCURVE",
"662 514 CURVE SMOOTH",
"780 518 LINE"
);
},
{
closed = 1;
nodes = (
"676 1569 LINE",
"634 1502 OFFCURVE",
"556 1401 OFFCURVE",
"441 1268 CURVE",
"441 1241 LINE",
"644 1241 LINE",
"739 1308 OFFCURVE",
"949 1479 OFFCURVE",
"1018 1548 CURVE",
"1018 1569 LINE"
);
}
);
width = 1237;
}
);
unicode = 00E1;
},
{
glyphname = acircumflex;
lastChange = "2013-03-07 06:32:14 +0200";
layers = (
{
layerId = "ECE8EDD2-0EDB-4EFB-866E-7B25CF44A28E";
name = Bold;
paths = (
{
closed = 1;
nodes = (
"461 1141 OFFCURVE",
"319 1107 OFFCURVE",
"190 1040 CURVE",
"291 834 LINE",
"412 888 OFFCURVE",
"517 915 OFFCURVE",
"606 915 CURVE SMOOTH",
"722 915 OFFCURVE",
"780 858 OFFCURVE",
"780 745 CURVE SMOOTH",
"780 696 LINE",
"586 690 LINE SMOOTH",
"251 678 OFFCURVE",
"86 571 OFFCURVE",
"86 334 CURVE SMOOTH",
"86 107 OFFCURVE",
"217 -20 OFFCURVE",
"432 -20 CURVE SMOOTH",
"607 -20 OFFCURVE",
"700 23 OFFCURVE",
"803 152 CURVE",
"811 152 LINE",
"870 0 LINE",
"1083 0 LINE",
"1083 745 LINE SMOOTH",
"1083 1012 OFFCURVE",
"918 1141 OFFCURVE",
"618 1141 CURVE SMOOTH"
);
},
{
closed = 1;
nodes = (
"780 426 LINE SMOOTH",
"780 291 OFFCURVE",
"688 203 OFFCURVE",
"547 203 CURVE SMOOTH",
"448 203 OFFCURVE",
"399 246 OFFCURVE",
"399 332 CURVE SMOOTH",
"399 452 OFFCURVE",
"485 509 OFFCURVE",
"662 514 CURVE SMOOTH",
"780 518 LINE"
);
},
{
closed = 1;
nodes = (
"433 1568 LINE",
"388 1493 OFFCURVE",
"303 1393 OFFCURVE",
"177 1267 CURVE",
"177 1240 LINE",
"380 1240 LINE",
"481 1303 OFFCURVE",
"557 1362 OFFCURVE",
"609 1416 CURVE",
"660 1361 OFFCURVE",
"738 1302 OFFCURVE",
"843 1240 CURVE",
"1046 1240 LINE",
"1046 1267 LINE",
"950 1360 OFFCURVE",
"831 1499 OFFCURVE",
"790 1568 CURVE"
);
}
);
width = 1237;
}
);
unicode = 00E2;
},
{
glyphname = adieresis;
lastChange = "2013-03-07 06:32:14 +0200";
layers = (
{
layerId = "ECE8EDD2-0EDB-4EFB-866E-7B25CF44A28E";
name = Bold;
paths = (
{
closed = 1;
nodes = (
"461 1141 OFFCURVE",
"319 1107 OFFCURVE",
"190 1040 CURVE",
"291 834 LINE",
"412 888 OFFCURVE",
"517 915 OFFCURVE",
"606 915 CURVE SMOOTH",
"722 915 OFFCURVE",
"780 858 OFFCURVE",
"780 745 CURVE SMOOTH",
"780 696 LINE",
"586 690 LINE SMOOTH",
"251 678 OFFCURVE",
"86 571 OFFCURVE",
"86 334 CURVE SMOOTH",
"86 107 OFFCURVE",
"217 -20 OFFCURVE",
"432 -20 CURVE SMOOTH",
"607 -20 OFFCURVE",
"700 23 OFFCURVE",
"803 152 CURVE",
"811 152 LINE",
"870 0 LINE",
"1083 0 LINE",
"1083 745 LINE SMOOTH",
"1083 1012 OFFCURVE",
"918 1141 OFFCURVE",
"618 1141 CURVE SMOOTH"
);
},
{
closed = 1;
nodes = (
"780 426 LINE SMOOTH",
"780 291 OFFCURVE",
"688 203 OFFCURVE",
"547 203 CURVE SMOOTH",
"448 203 OFFCURVE",
"399 246 OFFCURVE",
"399 332 CURVE SMOOTH",
"399 452 OFFCURVE",
"485 509 OFFCURVE",
"662 514 CURVE SMOOTH",
"780 518 LINE"
);
},
{
closed = 1;
nodes = (
"339 1540 OFFCURVE",
"285 1492 OFFCURVE",
"285 1405 CURVE SMOOTH",
"285 1321 OFFCURVE",
"339 1272 OFFCURVE",
"424 1272 CURVE SMOOTH",
"511 1272 OFFCURVE",
"565 1325 OFFCURVE",
"565 1405 CURVE SMOOTH",
"565 1486 OFFCURVE",
"512 1540 OFFCURVE",
"424 1540 CURVE SMOOTH"
);
},
{
closed = 1;
nodes = (
"749 1540 OFFCURVE",
"688 1498 OFFCURVE",
"688 1405 CURVE SMOOTH",
"688 1314 OFFCURVE",
"749 1272 OFFCURVE",
"829 1272 CURVE SMOOTH",
"914 1272 OFFCURVE",
"971 1324 OFFCURVE",
"971 1405 CURVE SMOOTH",
"971 1489 OFFCURVE",
"916 1540 OFFCURVE",
"829 1540 CURVE SMOOTH"
);
}
);
width = 1237;
}
);
unicode = 00E4;
},
{
glyphname = agrave;
lastChange = "2013-03-07 06:32:14 +0200";
layers = (
{
layerId = "ECE8EDD2-0EDB-4EFB-866E-7B25CF44A28E";
name = Bold;
paths = (
{
closed = 1;
nodes = (
"461 1141 OFFCURVE",
"319 1107 OFFCURVE",
"190 1040 CURVE",
"291 834 LINE",
"412 888 OFFCURVE",
"517 915 OFFCURVE",
"606 915 CURVE SMOOTH",
"722 915 OFFCURVE",
"780 858 OFFCURVE",
"780 745 CURVE SMOOTH",
"780 696 LINE",
"586 690 LINE SMOOTH",
"251 678 OFFCURVE",
"86 571 OFFCURVE",
"86 334 CURVE SMOOTH",
"86 107 OFFCURVE",
"217 -20 OFFCURVE",
"432 -20 CURVE SMOOTH",
"607 -20 OFFCURVE",
"700 23 OFFCURVE",
"803 152 CURVE",
"811 152 LINE",
"870 0 LINE",
"1083 0 LINE",
"1083 745 LINE SMOOTH",
"1083 1012 OFFCURVE",
"918 1141 OFFCURVE",
"618 1141 CURVE SMOOTH"
);
},
{
closed = 1;
nodes = (
"780 426 LINE SMOOTH",
"780 291 OFFCURVE",
"688 203 OFFCURVE",
"547 203 CURVE SMOOTH",
"448 203 OFFCURVE",
"399 246 OFFCURVE",
"399 332 CURVE SMOOTH",
"399 452 OFFCURVE",
"485 509 OFFCURVE",
"662 514 CURVE SMOOTH",
"780 518 LINE"
);
},
{
closed = 1;
nodes = (
"239 1569 LINE",
"239 1548 LINE",
"330 1460 OFFCURVE",
"530 1300 OFFCURVE",
"614 1241 CURVE",
"816 1241 LINE",
"816 1268 LINE",
"701 1401 OFFCURVE",
"623 1502 OFFCURVE",
"581 1569 CURVE"
);
}
);
width = 1237;
}
);
unicode = 00E0;
},
{
glyphname = aring;
lastChange = "2013-03-07 06:32:14 +0200";
layers = (
{
layerId = "ECE8EDD2-0EDB-4EFB-866E-7B25CF44A28E";
name = Bold;
paths = (
{
closed = 1;
nodes = (
"461 1141 OFFCURVE",
"319 1107 OFFCURVE",
"190 1040 CURVE",
"291 834 LINE",
"412 888 OFFCURVE",
"517 915 OFFCURVE",
"606 915 CURVE SMOOTH",
"722 915 OFFCURVE",
"780 858 OFFCURVE",
"780 745 CURVE SMOOTH",
"780 696 LINE",
"586 690 LINE SMOOTH",
"251 678 OFFCURVE",
"86 571 OFFCURVE",
"86 334 CURVE SMOOTH",
"86 107 OFFCURVE",
"217 -20 OFFCURVE",
"432 -20 CURVE SMOOTH",
"607 -20 OFFCURVE",
"700 23 OFFCURVE",
"803 152 CURVE",
"811 152 LINE",
"870 0 LINE",
"1083 0 LINE",
"1083 745 LINE SMOOTH",
"1083 1012 OFFCURVE",
"918 1141 OFFCURVE",
"618 1141 CURVE SMOOTH"
);
},
{
closed = 1;
nodes = (
"780 426 LINE SMOOTH",
"780 291 OFFCURVE",
"688 203 OFFCURVE",
"547 203 CURVE SMOOTH",
"448 203 OFFCURVE",
"399 246 OFFCURVE",
"399 332 CURVE SMOOTH",
"399 452 OFFCURVE",
"485 509 OFFCURVE",
"662 514 CURVE SMOOTH",
"780 518 LINE"
);
},
{
closed = 1;
nodes = (
"685 1573 OFFCURVE",
"725 1537 OFFCURVE",
"725 1477 CURVE SMOOTH",
"725 1417 OFFCURVE",
"685 1380 OFFCURVE",
"629 1380 CURVE SMOOTH",
"565 1380 OFFCURVE",
"533 1417 OFFCURVE",
"533 1477 CURVE SMOOTH",
"533 1537 OFFCURVE",
"573 1573 OFFCURVE",
"629 1573 CURVE SMOOTH"
);
},
{
closed = 1;
nodes = (
"478 1714 OFFCURVE",
"381 1621 OFFCURVE",
"381 1477 CURVE SMOOTH",
"381 1330 OFFCURVE",
"480 1239 OFFCURVE",
"629 1239 CURVE SMOOTH",
"778 1239 OFFCURVE",
"883 1335 OFFCURVE",
"883 1479 CURVE SMOOTH",
"883 1616 OFFCURVE",
"776 1714 OFFCURVE",
"629 1714 CURVE SMOOTH"
);
}
);
width = 1237;
}
);
unicode = 00E5;
},
{
glyphname = atilde;
lastChange = "2013-03-07 06:32:14 +0200";
layers = (
{
layerId = "ECE8EDD2-0EDB-4EFB-866E-7B25CF44A28E";
name = Bold;
paths = (
{
closed = 1;
nodes = (
"461 1141 OFFCURVE",
"319 1107 OFFCURVE",
"190 1040 CURVE",
"291 834 LINE",
"412 888 OFFCURVE",
"517 915 OFFCURVE",
"606 915 CURVE SMOOTH",
"722 915 OFFCURVE",
"780 858 OFFCURVE",
"780 745 CURVE SMOOTH",
"780 696 LINE",
"586 690 LINE SMOOTH",
"251 678 OFFCURVE",
"86 571 OFFCURVE",
"86 334 CURVE SMOOTH",
"86 107 OFFCURVE",
"217 -20 OFFCURVE",
"432 -20 CURVE SMOOTH",
"607 -20 OFFCURVE",
"700 23 OFFCURVE",
"803 152 CURVE",
"811 152 LINE",
"870 0 LINE",
"1083 0 LINE",
"1083 745 LINE SMOOTH",
"1083 1012 OFFCURVE",
"918 1141 OFFCURVE",
"618 1141 CURVE SMOOTH"
);
},
{
closed = 1;
nodes = (
"780 426 LINE SMOOTH",
"780 291 OFFCURVE",
"688 203 OFFCURVE",
"547 203 CURVE SMOOTH",
"448 203 OFFCURVE",
"399 246 OFFCURVE",
"399 332 CURVE SMOOTH",
"399 452 OFFCURVE",
"485 509 OFFCURVE",
"662 514 CURVE SMOOTH",
"780 518 LINE"
);
},
{
closed = 1;
nodes = (
"897 1550 LINE",
"880 1478 OFFCURVE",
"837 1444 OFFCURVE",
"796 1444 CURVE SMOOTH",
"748 1444 OFFCURVE",
"699 1470 OFFCURVE",
"648 1496 CURVE SMOOTH",
"596 1522 OFFCURVE",
"544 1548 OFFCURVE",
"489 1548 CURVE SMOOTH",
"332 1548 OFFCURVE",
"232 1432 OFFCURVE",
"217 1239 CURVE",
"366 1239 LINE",
"383 1311 OFFCURVE",
"426 1346 OFFCURVE",
"467 1346 CURVE SMOOTH",
"515 1346 OFFCURVE",
"564 1320 OFFCURVE",
"616 1294 CURVE SMOOTH",
"667 1268 OFFCURVE",
"719 1241 OFFCURVE",
"774 1241 CURVE SMOOTH",
"929 1241 OFFCURVE",
"1031 1357 OFFCURVE",
"1046 1550 CURVE"
);
}
);
width = 1237;
}
);
unicode = 00E3;
},
{
glyphname = ae;
lastChange = "2013-03-07 06:32:14 +0200";
layers = (
{
layerId = "ECE8EDD2-0EDB-4EFB-866E-7B25CF44A28E";
name = Bold;
paths = (
{
closed = 1;
nodes = (
"457 1141 OFFCURVE",
"316 1107 OFFCURVE",
"190 1040 CURVE",
"289 838 LINE",
"399 889 OFFCURVE",
"501 915 OFFCURVE",
"594 915 CURVE SMOOTH",
"697 915 OFFCURVE",
"760 872 OFFCURVE",
"760 780 CURVE SMOOTH",
"760 696 LINE",
"569 690 LINE SMOOTH",
"248 678 OFFCURVE",
"86 571 OFFCURVE",
"86 334 CURVE SMOOTH",
"86 114 OFFCURVE",
"227 -20 OFFCURVE",
"442 -20 CURVE SMOOTH",
"653 -20 OFFCURVE",
"764 30 OFFCURVE",
"895 186 CURVE",
"991 46 OFFCURVE",
"1146 -20 OFFCURVE",
"1329 -20 CURVE SMOOTH",
"1508 -20 OFFCURVE",
"1621 7 OFFCURVE",
"1726 59 CURVE",
"1726 295 LINE",
"1603 236 OFFCURVE",
"1477 207 OFFCURVE",
"1346 207 CURVE SMOOTH",
"1173 207 OFFCURVE",
"1074 310 OFFCURVE",
"1067 483 CURVE",
"1790 483 LINE",
"1790 631 LINE SMOOTH",
"1790 942 OFFCURVE",
"1608 1139 OFFCURVE",
"1313 1139 CURVE SMOOTH",
"1153 1139 OFFCURVE",
"1042 1095 OFFCURVE",
"954 1010 CURVE",
"877 1097 OFFCURVE",
"763 1141 OFFCURVE",
"612 1141 CURVE SMOOTH"
);
},
{
closed = 1;
nodes = (
"760 426 LINE SMOOTH",
"760 291 OFFCURVE",
"674 203 OFFCURVE",
"539 203 CURVE SMOOTH",
"446 203 OFFCURVE",
"399 246 OFFCURVE",
"399 332 CURVE SMOOTH",
"399 453 OFFCURVE",
"482 509 OFFCURVE",
"647 514 CURVE SMOOTH",
"760 518 LINE"
);
},
{
closed = 1;
nodes = (
"1424 922 OFFCURVE",
"1500 835 OFFCURVE",
"1503 686 CURVE",
"1073 686 LINE",
"1084 843 OFFCURVE",
"1162 922 OFFCURVE",
"1307 922 CURVE SMOOTH"
);
}
);
width = 1878;
}
);
unicode = 00E6;
},
{
glyphname = b;
lastChange = "2013-03-07 06:32:14 +0200";
layers = (
{
layerId = "ECE8EDD2-0EDB-4EFB-866E-7B25CF44A28E";
name = Bold;
paths = (
{
closed = 1;
nodes = (
"160 1556 LINE",
"160 0 LINE",
"393 0 LINE",
"444 123 LINE",
"465 123 LINE",
"540 28 OFFCURVE",
"643 -20 OFFCURVE",
"774 -20 CURVE SMOOTH",
"907 -20 OFFCURVE",
"1011 31 OFFCURVE",
"1088 132 CURVE SMOOTH",
"1165 233 OFFCURVE",
"1204 376 OFFCURVE",
"1204 561 CURVE SMOOTH",
"1204 740 OFFCURVE",
"1167 881 OFFCURVE",
"1092 983 CURVE SMOOTH",
"1017 1087 OFFCURVE",
"914 1139 OFFCURVE",
"782 1139 CURVE SMOOTH",
"642 1139 OFFCURVE",
"536 1084 OFFCURVE",
"465 972 CURVE",
"453 972 LINE",
"461 1074 OFFCURVE",
"465 1148 OFFCURVE",
"465 1194 CURVE SMOOTH",
"465 1556 LINE"
);
},
{
closed = 1;
nodes = (
"813 895 OFFCURVE",
"893 785 OFFCURVE",
"893 565 CURVE SMOOTH",
"893 345 OFFCURVE",
"813 227 OFFCURVE",
"688 227 CURVE SMOOTH",
"533 227 OFFCURVE",
"465 323 OFFCURVE",
"465 563 CURVE SMOOTH",
"465 596 LINE SMOOTH",
"468 809 OFFCURVE",
"533 895 OFFCURVE",
"684 895 CURVE SMOOTH"
);
}
);
width = 1296;
}
);
unicode = 0062;
},
{
glyphname = c;
lastChange = "2013-03-07 06:32:14 +0200";
layers = (
{
anchors = (
{
name = bottom;
position = "{527, 0}";
},
{
name = top;
position = "{527, 1118}";
}
);
layerId = "ECE8EDD2-0EDB-4EFB-866E-7B25CF44A28E";
name = Bold;
paths = (
{
closed = 1;
nodes = (
"288 1139 OFFCURVE",
"92 933 OFFCURVE",
"92 553 CURVE SMOOTH",
"92 171 OFFCURVE",
"266 -20 OFFCURVE",
"614 -20 CURVE SMOOTH",
"691 -20 OFFCURVE",
"754 -14 OFFCURVE",
"804 -2 CURVE SMOOTH",
"855 9 OFFCURVE",
"905 32 OFFCURVE",
"954 63 CURVE",
"954 324 LINE",
"854 257 OFFCURVE",
"758 227 OFFCURVE",
"641 227 CURVE SMOOTH",
"482 227 OFFCURVE",
"403 336 OFFCURVE",
"403 555 CURVE SMOOTH",
"403 780 OFFCURVE",
"482 893 OFFCURVE",
"641 893 CURVE SMOOTH",
"724 893 OFFCURVE",
"803 866 OFFCURVE",
"899 827 CURVE",
"988 1063 LINE",
"886 1114 OFFCURVE",
"770 1139 OFFCURVE",
"641 1139 CURVE SMOOTH"
);
}
);
width = 1053;
}
);
unicode = 0063;
},
{
glyphname = ccedilla;
lastChange = "2013-03-07 06:32:14 +0200";
layers = (
{
layerId = "ECE8EDD2-0EDB-4EFB-866E-7B25CF44A28E";
name = Bold;
paths = (
{
closed = 1;
nodes = (
"288 1139 OFFCURVE",
"92 933 OFFCURVE",
"92 553 CURVE SMOOTH",
"92 171 OFFCURVE",
"266 -20 OFFCURVE",
"614 -20 CURVE SMOOTH",
"767 -20 OFFCURVE",
"855 0 OFFCURVE",
"954 63 CURVE",
"954 324 LINE",
"854 257 OFFCURVE",
"758 227 OFFCURVE",
"641 227 CURVE SMOOTH",
"482 227 OFFCURVE",
"403 336 OFFCURVE",
"403 555 CURVE SMOOTH",
"403 780 OFFCURVE",
"482 893 OFFCURVE",
"641 893 CURVE SMOOTH",
"724 893 OFFCURVE",
"803 866 OFFCURVE",
"899 827 CURVE",
"989 1063 LINE",
"886 1114 OFFCURVE",
"770 1139 OFFCURVE",
"641 1139 CURVE SMOOTH"
);
},
{
closed = 1;
nodes = (
"477 0 LINE",
"399 -154 LINE",
"510 -171 OFFCURVE",
"565 -207 OFFCURVE",
"565 -262 CURVE SMOOTH",
"565 -303 OFFCURVE",
"541 -324 OFFCURVE",
"493 -324 CURVE SMOOTH",
"460 -324 OFFCURVE",
"386 -312 OFFCURVE",
"350 -303 CURVE",
"350 -471 LINE",
"395 -485 OFFCURVE",
"444 -492 OFFCURVE",
"496 -492 CURVE SMOOTH",
"707 -492 OFFCURVE",
"805 -421 OFFCURVE",
"805 -250 CURVE SMOOTH",
"805 -165 OFFCURVE",
"742 -93 OFFCURVE",
"643 -61 CURVE",
"670 0 LINE"
);
}
);
width = 1053;
}
);
unicode = 00E7;
},
{
glyphname = d;
lastChange = "2013-03-07 06:32:14 +0200";
layers = (
{
anchors = (
{
name = center;
position = "{648, 559}";
}
);
layerId = "ECE8EDD2-0EDB-4EFB-866E-7B25CF44A28E";
name = Bold;
paths = (
{
closed = 1;
nodes = (
"831 1556 LINE",
"831 1198 LINE SMOOTH",
"831 1133 OFFCURVE",
"839 1058 OFFCURVE",
"854 974 CURVE",
"844 974 LINE",
"770 1084 OFFCURVE",
"663 1139 OFFCURVE",
"522 1139 CURVE SMOOTH",
"388 1139 OFFCURVE",
"283 1088 OFFCURVE",
"206 984 CURVE SMOOTH",
"130 883 OFFCURVE",
"92 740 OFFCURVE",
"92 557 CURVE SMOOTH",
"92 376 OFFCURVE",
"129 235 OFFCURVE",
"204 133 CURVE SMOOTH",
"279 31 OFFCURVE",
"383 -20 OFFCURVE",
"514 -20 CURVE SMOOTH",
"656 -20 OFFCURVE",
"762 35 OFFCURVE",
"831 145 CURVE",
"844 145 LINE",
"903 0 LINE",
"1137 0 LINE",
"1137 1556 LINE"
);
},
{
closed = 1;
nodes = (
"699 891 OFFCURVE",
"759 865 OFFCURVE",
"796 813 CURVE SMOOTH",
"833 761 OFFCURVE",
"852 675 OFFCURVE",
"852 555 CURVE SMOOTH",
"852 522 LINE SMOOTH",
"849 413 OFFCURVE",
"829 336 OFFCURVE",
"792 291 CURVE SMOOTH",
"756 246 OFFCURVE",
"699 223 OFFCURVE",
"621 223 CURVE SMOOTH",
"480 223 OFFCURVE",
"401 333 OFFCURVE",
"401 553 CURVE SMOOTH",
"401 773 OFFCURVE",
"480 891 OFFCURVE",
"616 891 CURVE SMOOTH"
);
}
);
width = 1296;
}
);
unicode = 0064;
},
{
glyphname = eth;
lastChange = "2013-03-07 06:32:14 +0200";
layers = (
{
layerId = "ECE8EDD2-0EDB-4EFB-866E-7B25CF44A28E";
name = Bold;
paths = (
{
closed = 1;
nodes = (
"358 1395 LINE",
"406 1369 OFFCURVE",
"457 1338 OFFCURVE",
"510 1303 CURVE",
"334 1196 LINE",
"434 1040 LINE",
"664 1182 LINE",
"747 1103 OFFCURVE",
"811 1009 OFFCURVE",
"856 901 CURVE",
"848 897 LINE",
"801 962 OFFCURVE",
"710 995 OFFCURVE",
"573 995 CURVE SMOOTH",
"278 995 OFFCURVE",
"92 800 OFFCURVE",
"92 489 CURVE SMOOTH",
"92 176 OFFCURVE",
"304 -20 OFFCURVE",
"631 -20 CURVE SMOOTH",
"971 -20 OFFCURVE",
"1176 200 OFFCURVE",
"1176 573 CURVE SMOOTH",
"1176 882 OFFCURVE",
"1080 1120 OFFCURVE",
"872 1311 CURVE",
"1042 1415 LINE",
"942 1569 LINE",
"717 1430 LINE",
"641 1481 OFFCURVE",
"555 1528 OFFCURVE",
"459 1571 CURVE"
);
},
{
closed = 1;
nodes = (
"778 770 OFFCURVE",
"864 676 OFFCURVE",
"864 532 CURVE SMOOTH",
"864 315 OFFCURVE",
"799 205 OFFCURVE",
"635 205 CURVE SMOOTH",
"486 205 OFFCURVE",
"403 300 OFFCURVE",
"403 487 CURVE SMOOTH",
"403 682 OFFCURVE",
"474 770 OFFCURVE",
"635 770 CURVE SMOOTH"
);
}
);
width = 1268;
}
);
unicode = 00F0;
},
{
glyphname = e;
lastChange = "2013-03-07 06:32:14 +0200";
layers = (
{
anchors = (
{
name = bottom;
position = "{605, 0}";
},
{
name = ogonek;
position = "{1089, 10}";
},
{
name = top;
position = "{605, 1118}";
}
);
layerId = "ECE8EDD2-0EDB-4EFB-866E-7B25CF44A28E";
name = Bold;
paths = (
{
closed = 1;
nodes = (
"456 1139 OFFCURVE",
"326 1088 OFFCURVE",
"232 984 CURVE SMOOTH",
"139 883 OFFCURVE",
"92 738 OFFCURVE",
"92 551 CURVE SMOOTH",
"92 369 OFFCURVE",
"143 228 OFFCURVE",
"244 129 CURVE SMOOTH",
"345 30 OFFCURVE",
"486 -20 OFFCURVE",
"666 -20 CURVE SMOOTH",
"753 -20 OFFCURVE",
"827 -13 OFFCURVE",
"888 0 CURVE SMOOTH",
"949 13 OFFCURVE",
"1006 32 OFFCURVE",
"1059 59 CURVE",
"1059 295 LINE",
"928 234 OFFCURVE",
"815 207 OFFCURVE",
"680 207 CURVE SMOOTH",
"507 207 OFFCURVE",
"408 310 OFFCURVE",
"401 483 CURVE",
"1122 483 LINE",
"1122 631 LINE SMOOTH",
"1122 790 OFFCURVE",
"1078 914 OFFCURVE",
"989 1004 CURVE SMOOTH",
"902 1094 OFFCURVE",
"779 1139 OFFCURVE",
"621 1139 CURVE SMOOTH"
);
},
{
closed = 1;
nodes = (
"752 922 OFFCURVE",
"833 837 OFFCURVE",
"836 686 CURVE",
"408 686 LINE",
"419 837 OFFCURVE",
"494 922 OFFCURVE",
"623 922 CURVE SMOOTH"
);
}
);
width = 1210;
}
);
unicode = 0065;
},
{
glyphname = eacute;
lastChange = "2013-03-07 06:32:14 +0200";
layers = (
{
layerId = "ECE8EDD2-0EDB-4EFB-866E-7B25CF44A28E";
name = Bold;
paths = (
{
closed = 1;
nodes = (
"290 1139 OFFCURVE",
"92 926 OFFCURVE",
"92 551 CURVE SMOOTH",
"92 187 OFFCURVE",
"306 -20 OFFCURVE",
"666 -20 CURVE SMOOTH",
"841 -20 OFFCURVE",
"952 6 OFFCURVE",
"1059 59 CURVE",
"1059 295 LINE",
"928 234 OFFCURVE",
"815 207 OFFCURVE",
"680 207 CURVE SMOOTH",
"507 207 OFFCURVE",
"408 310 OFFCURVE",
"401 483 CURVE",
"1122 483 LINE",
"1122 631 LINE SMOOTH",
"1122 948 OFFCURVE",
"937 1139 OFFCURVE",
"621 1139 CURVE SMOOTH"
);
},
{
closed = 1;
nodes = (
"752 922 OFFCURVE",
"833 837 OFFCURVE",
"836 686 CURVE",
"408 686 LINE",
"419 837 OFFCURVE",
"494 922 OFFCURVE",
"623 922 CURVE SMOOTH"
);
},
{
closed = 1;
nodes = (
"682 1569 LINE",
"640 1502 OFFCURVE",
"562 1401 OFFCURVE",
"447 1268 CURVE",
"447 1241 LINE",
"650 1241 LINE",
"745 1308 OFFCURVE",
"955 1479 OFFCURVE",
"1024 1548 CURVE",
"1024 1569 LINE"
);
}
);
width = 1210;
}
);
unicode = 00E9;
},
{
glyphname = ecircumflex;
lastChange = "2013-03-07 06:32:14 +0200";
layers = (
{
layerId = "ECE8EDD2-0EDB-4EFB-866E-7B25CF44A28E";
name = Bold;
paths = (
{
closed = 1;
nodes = (
"290 1139 OFFCURVE",
"92 926 OFFCURVE",
"92 551 CURVE SMOOTH",
"92 187 OFFCURVE",
"306 -20 OFFCURVE",
"666 -20 CURVE SMOOTH",
"841 -20 OFFCURVE",
"952 6 OFFCURVE",
"1059 59 CURVE",
"1059 295 LINE",
"928 234 OFFCURVE",
"815 207 OFFCURVE",
"680 207 CURVE SMOOTH",
"507 207 OFFCURVE",
"408 310 OFFCURVE",
"401 483 CURVE",
"1122 483 LINE",
"1122 631 LINE SMOOTH",
"1122 948 OFFCURVE",
"937 1139 OFFCURVE",
"621 1139 CURVE SMOOTH"
);
},
{
closed = 1;
nodes = (
"752 922 OFFCURVE",
"833 837 OFFCURVE",
"836 686 CURVE",
"408 686 LINE",
"419 837 OFFCURVE",
"494 922 OFFCURVE",
"623 922 CURVE SMOOTH"
);
},
{
closed = 1;
nodes = (
"450 1569 LINE",
"405 1494 OFFCURVE",
"320 1394 OFFCURVE",
"194 1268 CURVE",
"194 1241 LINE",
"397 1241 LINE",
"498 1304 OFFCURVE",
"574 1363 OFFCURVE",
"626 1417 CURVE",
"677 1362 OFFCURVE",
"755 1303 OFFCURVE",
"860 1241 CURVE",
"1063 1241 LINE",
"1063 1268 LINE",
"967 1361 OFFCURVE",
"848 1500 OFFCURVE",
"807 1569 CURVE"
);
}
);
width = 1210;
}
);
unicode = 00EA;
},
{
glyphname = edieresis;
lastChange = "2013-03-07 06:32:14 +0200";
layers = (
{
layerId = "ECE8EDD2-0EDB-4EFB-866E-7B25CF44A28E";
name = Bold;
paths = (
{
closed = 1;
nodes = (
"290 1139 OFFCURVE",
"92 926 OFFCURVE",
"92 551 CURVE SMOOTH",
"92 187 OFFCURVE",
"306 -20 OFFCURVE",
"666 -20 CURVE SMOOTH",
"841 -20 OFFCURVE",
"952 6 OFFCURVE",
"1059 59 CURVE",
"1059 295 LINE",
"928 234 OFFCURVE",
"815 207 OFFCURVE",
"680 207 CURVE SMOOTH",
"507 207 OFFCURVE",
"408 310 OFFCURVE",
"401 483 CURVE",
"1122 483 LINE",
"1122 631 LINE SMOOTH",
"1122 948 OFFCURVE",
"937 1139 OFFCURVE",
"621 1139 CURVE SMOOTH"
);
},
{
closed = 1;
nodes = (
"752 922 OFFCURVE",
"833 837 OFFCURVE",
"836 686 CURVE",
"408 686 LINE",
"419 837 OFFCURVE",
"494 922 OFFCURVE",
"623 922 CURVE SMOOTH"
);
},
{
closed = 1;
nodes = (
"351 1540 OFFCURVE",
"297 1492 OFFCURVE",
"297 1405 CURVE SMOOTH",
"297 1321 OFFCURVE",
"351 1272 OFFCURVE",
"436 1272 CURVE SMOOTH",
"523 1272 OFFCURVE",
"577 1325 OFFCURVE",
"577 1405 CURVE SMOOTH",
"577 1486 OFFCURVE",
"524 1540 OFFCURVE",
"436 1540 CURVE SMOOTH"
);
},
{
closed = 1;
nodes = (
"761 1540 OFFCURVE",
"700 1498 OFFCURVE",
"700 1405 CURVE SMOOTH",
"700 1314 OFFCURVE",
"761 1272 OFFCURVE",
"841 1272 CURVE SMOOTH",
"926 1272 OFFCURVE",
"983 1324 OFFCURVE",
"983 1405 CURVE SMOOTH",
"983 1489 OFFCURVE",
"928 1540 OFFCURVE",
"841 1540 CURVE SMOOTH"
);
}
);
width = 1210;
}
);
unicode = 00EB;
},
{
glyphname = egrave;
lastChange = "2013-03-07 06:32:14 +0200";
layers = (
{
layerId = "ECE8EDD2-0EDB-4EFB-866E-7B25CF44A28E";
name = Bold;
paths = (
{
closed = 1;
nodes = (
"290 1139 OFFCURVE",
"92 926 OFFCURVE",
"92 551 CURVE SMOOTH",
"92 187 OFFCURVE",
"306 -20 OFFCURVE",
"666 -20 CURVE SMOOTH",
"841 -20 OFFCURVE",
"952 6 OFFCURVE",
"1059 59 CURVE",
"1059 295 LINE",
"928 234 OFFCURVE",
"815 207 OFFCURVE",
"680 207 CURVE SMOOTH",
"507 207 OFFCURVE",
"408 310 OFFCURVE",
"401 483 CURVE",
"1122 483 LINE",
"1122 631 LINE SMOOTH",
"1122 948 OFFCURVE",
"937 1139 OFFCURVE",
"621 1139 CURVE SMOOTH"
);
},
{
closed = 1;
nodes = (
"752 922 OFFCURVE",
"833 837 OFFCURVE",
"836 686 CURVE",
"408 686 LINE",
"419 837 OFFCURVE",
"494 922 OFFCURVE",
"623 922 CURVE SMOOTH"
);
},
{
closed = 1;
nodes = (
"245 1569 LINE",
"245 1548 LINE",
"336 1460 OFFCURVE",
"536 1300 OFFCURVE",
"620 1241 CURVE",
"822 1241 LINE",
"822 1268 LINE",
"707 1401 OFFCURVE",
"629 1502 OFFCURVE",
"587 1569 CURVE"
);
}
);
width = 1210;
}
);
unicode = 00E8;
},
{
glyphname = f;
lastChange = "2013-03-07 06:32:14 +0200";
layers = (
{
layerId = "ECE8EDD2-0EDB-4EFB-866E-7B25CF44A28E";
name = Bold;
paths = (
{
closed = 1;
nodes = (
"328 1567 OFFCURVE",
"209 1455 OFFCURVE",
"209 1200 CURVE SMOOTH",
"209 1118 LINE",
"41 1036 LINE",
"41 889 LINE",
"209 889 LINE",
"209 0 LINE",
"514 0 LINE",
"514 889 LINE",
"778 889 LINE",
"778 1118 LINE",
"514 1118 LINE",
"514 1188 LINE SMOOTH",
"514 1268 OFFCURVE",
"550 1325 OFFCURVE",
"637 1325 CURVE SMOOTH",
"689 1325 OFFCURVE",
"746 1315 OFFCURVE",
"807 1296 CURVE",
"885 1520 LINE",
"803 1551 OFFCURVE",
"709 1567 OFFCURVE",
"604 1567 CURVE SMOOTH"
);
}
);
width = 793;
}
);
unicode = 0066;
},
{
glyphname = g;
lastChange = "2013-03-07 06:32:14 +0200";
layers = (
{
anchors = (
{
name = top;
position = "{579, 1118}";
}
);
layerId = "ECE8EDD2-0EDB-4EFB-866E-7B25CF44A28E";
name = Bold;
paths = (
{
closed = 1;
nodes = (
"254 1139 OFFCURVE",
"90 999 OFFCURVE",
"90 756 CURVE SMOOTH",
"90 604 OFFCURVE",
"164 487 OFFCURVE",
"281 436 CURVE",
"188 381 OFFCURVE",
"137 331 OFFCURVE",
"137 246 CURVE SMOOTH",
"137 212 OFFCURVE",
"149 180 OFFCURVE",
"172 149 CURVE SMOOTH",
"195 119 OFFCURVE",
"223 96 OFFCURVE",
"254 84 CURVE",
"91 45 OFFCURVE",
"6 -47 OFFCURVE",
"6 -182 CURVE SMOOTH",
"6 -378 OFFCURVE",
"175 -492 OFFCURVE",
"487 -492 CURVE SMOOTH",
"691 -492 OFFCURVE",
"847 -456 OFFCURVE",
"956 -384 CURVE SMOOTH",
"1065 -312 OFFCURVE",
"1120 -211 OFFCURVE",
"1120 -80 CURVE SMOOTH",
"1120 124 OFFCURVE",
"987 231 OFFCURVE",
"743 231 CURVE SMOOTH",
"553 231 LINE SMOOTH",
"441 231 OFFCURVE",
"385 253 OFFCURVE",
"385 297 CURVE SMOOTH",
"385 326 OFFCURVE",
"401 353 OFFCURVE",
"432 377 CURVE",
"477 372 LINE",
"532 369 LINE",
"681 369 OFFCURVE",
"797 402 OFFCURVE",
"880 469 CURVE SMOOTH",
"964 536 OFFCURVE",
"1006 630 OFFCURVE",
"1006 750 CURVE SMOOTH",
"1006 812 OFFCURVE",
"989 868 OFFCURVE",
"958 918 CURVE",
"1133 963 LINE",
"1133 1118 LINE",
"743 1118 LINE",
"731 1121 OFFCURVE",
"703 1125 OFFCURVE",
"660 1130 CURVE SMOOTH",
"617 1136 OFFCURVE",
"580 1139 OFFCURVE",
"549 1139 CURVE SMOOTH"
);
},
{
closed = 1;
nodes = (
"778 -14 OFFCURVE",
"850 -41 OFFCURVE",
"850 -125 CURVE SMOOTH",
"850 -229 OFFCURVE",
"719 -293 OFFCURVE",
"500 -293 CURVE SMOOTH",
"355 -293 OFFCURVE",
"270 -242 OFFCURVE",
"270 -158 CURVE SMOOTH",
"270 -115 OFFCURVE",
"289 -80 OFFCURVE",
"326 -53 CURVE SMOOTH",
"364 -27 OFFCURVE",
"411 -14 OFFCURVE",
"467 -14 CURVE SMOOTH",
"625 -14 LINE SMOOTH"
);
},
{
closed = 1;
nodes = (
"660 954 OFFCURVE",
"715 887 OFFCURVE",
"715 752 CURVE SMOOTH",
"715 631 OFFCURVE",
"664 555 OFFCURVE",
"549 555 CURVE SMOOTH",
"436 555 OFFCURVE",
"381 631 OFFCURVE",
"381 752 CURVE SMOOTH",
"381 887 OFFCURVE",
"437 954 OFFCURVE",
"549 954 CURVE SMOOTH"
);
}
);
width = 1157;
}
);
unicode = 0067;
},
{
glyphname = h;
lastChange = "2013-03-07 06:32:14 +0200";
layers = (
{
anchors = (
{
name = center;
position = "{673, 559}";
},
{
name = top;
position = "{673, 1118}";
}
);
layerId = "ECE8EDD2-0EDB-4EFB-866E-7B25CF44A28E";
name = Bold;
paths = (
{
closed = 1;
nodes = (
"160 1556 LINE",
"160 0 LINE",
"465 0 LINE",
"465 526 LINE SMOOTH",
"465 786 OFFCURVE",
"536 895 OFFCURVE",
"707 895 CURVE SMOOTH",
"827 895 OFFCURVE",
"887 814 OFFCURVE",
"887 653 CURVE SMOOTH",
"887 0 LINE",
"1192 0 LINE",
"1192 729 LINE SMOOTH",
"1192 992 OFFCURVE",
"1054 1139 OFFCURVE",
"791 1139 CURVE SMOOTH",
"643 1139 OFFCURVE",
"535 1084 OFFCURVE",
"467 974 CURVE",
"451 974 LINE",
"458 1065 LINE SMOOTH",
"463 1156 OFFCURVE",
"465 1214 OFFCURVE",
"465 1239 CURVE SMOOTH",
"465 1556 LINE"
);
}
);
width = 1346;
}
);
unicode = 0068;
},
{
glyphname = i;
lastChange = "2013-03-07 06:32:14 +0200";
layers = (
{
layerId = "ECE8EDD2-0EDB-4EFB-866E-7B25CF44A28E";
name = Bold;
paths = (
{
closed = 1;
nodes = (
"160 1118 LINE",
"160 0 LINE",
"465 0 LINE",
"465 1118 LINE"
);
},
{
closed = 1;
nodes = (
"202 1556 OFFCURVE",
"147 1506 OFFCURVE",
"147 1407 CURVE SMOOTH",
"147 1307 OFFCURVE",
"202 1257 OFFCURVE",
"313 1257 CURVE SMOOTH",
"424 1257 OFFCURVE",
"479 1312 OFFCURVE",
"479 1407 CURVE SMOOTH",
"479 1506 OFFCURVE",
"424 1556 OFFCURVE",
"313 1556 CURVE SMOOTH"
);
}
);
width = 625;
}
);
unicode = 0069;
},
{
glyphname = dotlessi;
lastChange = "2013-03-07 06:32:14 +0200";
layers = (
{
layerId = "ECE8EDD2-0EDB-4EFB-866E-7B25CF44A28E";
name = Bold;
paths = (
{
closed = 1;
nodes = (
"160 1118 LINE",
"160 0 LINE",
"465 0 LINE",
"465 1118 LINE"
);
}
);
width = 625;
}
);
unicode = 0131;
},
{
glyphname = iacute;
lastChange = "2013-03-07 06:32:14 +0200";
layers = (
{
layerId = "ECE8EDD2-0EDB-4EFB-866E-7B25CF44A28E";
name = Bold;
paths = (
{
closed = 1;
nodes = (
"160 1118 LINE",
"160 0 LINE",
"465 0 LINE",
"465 1118 LINE"
);
},
{
closed = 1;
nodes = (
"380 1569 LINE",
"338 1502 OFFCURVE",
"260 1401 OFFCURVE",
"145 1268 CURVE",
"145 1241 LINE",
"348 1241 LINE",
"443 1308 OFFCURVE",
"653 1479 OFFCURVE",
"722 1548 CURVE",
"722 1569 LINE"
);
}
);
width = 625;
}
);
unicode = 00ED;
},
{
glyphname = icircumflex;
lastChange = "2013-03-07 06:32:14 +0200";
layers = (
{
layerId = "ECE8EDD2-0EDB-4EFB-866E-7B25CF44A28E";
name = Bold;
paths = (
{
closed = 1;
nodes = (
"160 1118 LINE",
"160 0 LINE",
"465 0 LINE",
"465 1118 LINE"
);
},
{
closed = 1;
nodes = (
"134 1569 LINE",
"89 1494 OFFCURVE",
"4 1394 OFFCURVE",
"-122 1268 CURVE",
"-122 1241 LINE",
"81 1241 LINE",
"182 1304 OFFCURVE",
"258 1363 OFFCURVE",
"310 1417 CURVE",
"361 1362 OFFCURVE",
"439 1303 OFFCURVE",
"544 1241 CURVE",
"747 1241 LINE",
"747 1268 LINE",
"651 1361 OFFCURVE",
"532 1500 OFFCURVE",
"491 1569 CURVE"
);
}
);
width = 625;
}
);
unicode = 00EE;
},
{
glyphname = idieresis;
lastChange = "2013-03-07 06:32:14 +0200";
layers = (
{
layerId = "ECE8EDD2-0EDB-4EFB-866E-7B25CF44A28E";
name = Bold;
paths = (
{
closed = 1;
nodes = (
"160 1118 LINE",
"160 0 LINE",
"465 0 LINE",
"465 1118 LINE"
);
},
{
closed = 1;
nodes = (
"25 1540 OFFCURVE",
"-29 1492 OFFCURVE",
"-29 1405 CURVE SMOOTH",
"-29 1321 OFFCURVE",
"25 1272 OFFCURVE",
"110 1272 CURVE SMOOTH",
"197 1272 OFFCURVE",
"251 1325 OFFCURVE",
"251 1405 CURVE SMOOTH",
"251 1486 OFFCURVE",
"198 1540 OFFCURVE",
"110 1540 CURVE SMOOTH"
);
},
{
closed = 1;
nodes = (
"435 1540 OFFCURVE",
"374 1498 OFFCURVE",
"374 1405 CURVE SMOOTH",
"374 1314 OFFCURVE",
"435 1272 OFFCURVE",
"515 1272 CURVE SMOOTH",
"600 1272 OFFCURVE",
"657 1324 OFFCURVE",
"657 1405 CURVE SMOOTH",
"657 1489 OFFCURVE",
"602 1540 OFFCURVE",
"515 1540 CURVE SMOOTH"
);
}
);
width = 625;
}
);
unicode = 00EF;
},
{
glyphname = igrave;
lastChange = "2013-03-07 06:32:14 +0200";
layers = (
{
layerId = "ECE8EDD2-0EDB-4EFB-866E-7B25CF44A28E";
name = Bold;
paths = (
{
closed = 1;
nodes = (
"160 1118 LINE",
"160 0 LINE",
"465 0 LINE",
"465 1118 LINE"
);
},
{
closed = 1;
nodes = (
"-101 1569 LINE",
"-101 1548 LINE",
"-10 1460 OFFCURVE",
"190 1300 OFFCURVE",
"274 1241 CURVE",
"476 1241 LINE",
"476 1268 LINE",
"361 1401 OFFCURVE",
"283 1502 OFFCURVE",
"241 1569 CURVE"
);
}
);
width = 625;
}
);
unicode = 00EC;
},
{
glyphname = j;
lastChange = "2013-03-07 06:32:14 +0200";
layers = (
{
layerId = "ECE8EDD2-0EDB-4EFB-866E-7B25CF44A28E";
name = Bold;
paths = (
{
closed = 1;
nodes = (
"160 1118 LINE",
"160 -76 LINE SMOOTH",
"160 -188 OFFCURVE",
"115 -246 OFFCURVE",
"12 -246 CURVE SMOOTH",
"-37 -246 OFFCURVE",
"-84 -240 OFFCURVE",
"-131 -227 CURVE",
"-131 -467 LINE",
"-75 -484 OFFCURVE",
"-8 -492 OFFCURVE",
"70 -492 CURVE SMOOTH",
"322 -492 OFFCURVE",
"465 -358 OFFCURVE",
"465 -121 CURVE SMOOTH",
"465 1118 LINE"
);
},
{
closed = 1;
nodes = (
"202 1556 OFFCURVE",
"147 1506 OFFCURVE",
"147 1407 CURVE SMOOTH",
"147 1307 OFFCURVE",
"202 1257 OFFCURVE",
"313 1257 CURVE SMOOTH",
"424 1257 OFFCURVE",
"479 1312 OFFCURVE",
"479 1407 CURVE SMOOTH",
"479 1506 OFFCURVE",
"424 1556 OFFCURVE",
"313 1556 CURVE SMOOTH"
);
}
);
width = 625;
}
);
unicode = 006A;
},
{
glyphname = k;
lastChange = "2013-03-07 06:32:14 +0200";
layers = (
{
anchors = (
{
name = bottom;
position = "{635, 0}";
}
);
layerId = "ECE8EDD2-0EDB-4EFB-866E-7B25CF44A28E";
name = Bold;
paths = (
{
closed = 1;
nodes = (
"160 1556 LINE",
"160 0 LINE",
"465 0 LINE",
"465 348 LINE",
"596 453 LINE",
"918 0 LINE",
"1270 0 LINE",
"799 633 LINE",
"1243 1118 LINE",
"899 1118 LINE",
"586 778 LINE",
"453 608 LINE",
"449 608 LINE",
"465 862 LINE",
"465 1556 LINE"
);
}
);
width = 1270;
}
);
unicode = 006B;
},
{
glyphname = l;
lastChange = "2013-03-07 06:32:14 +0200";
layers = (
{
anchors = (
{
name = bottom;
position = "{313, 0}";
},
{
name = top;
position = "{313, 1118}";
},
{
name = topright;
position = "{605, 1118}";
}
);
layerId = "ECE8EDD2-0EDB-4EFB-866E-7B25CF44A28E";
name = Bold;
paths = (
{
closed = 1;
nodes = (
"160 1556 LINE",
"160 0 LINE",
"465 0 LINE",
"465 1556 LINE"
);
}
);
width = 625;
}
);
unicode = 006C;
},
{
glyphname = m;
lastChange = "2013-03-07 06:32:14 +0200";
layers = (
{
layerId = "ECE8EDD2-0EDB-4EFB-866E-7B25CF44A28E";
name = Bold;
paths = (
{
closed = 1;
nodes = (
"1326 1139 OFFCURVE",
"1203 1079 OFFCURVE",
"1143 974 CURVE",
"1116 974 LINE",
"1057 1084 OFFCURVE",
"943 1139 OFFCURVE",
"776 1139 CURVE SMOOTH",
"629 1139 OFFCURVE",
"511 1078 OFFCURVE",
"451 974 CURVE",
"434 974 LINE",
"393 1118 LINE",
"160 1118 LINE",
"160 0 LINE",
"465 0 LINE",
"465 526 LINE SMOOTH",
"465 657 OFFCURVE",
"483 752 OFFCURVE",
"518 809 CURVE SMOOTH",
"553 866 OFFCURVE",
"610 895 OFFCURVE",
"688 895 CURVE SMOOTH",
"804 895 OFFCURVE",
"856 814 OFFCURVE",
"856 653 CURVE SMOOTH",
"856 0 LINE",
"1161 0 LINE",
"1161 561 LINE SMOOTH",
"1161 793 OFFCURVE",
"1235 895 OFFCURVE",
"1384 895 CURVE SMOOTH",
"1500 895 OFFCURVE",
"1552 814 OFFCURVE",
"1552 653 CURVE SMOOTH",
"1552 0 LINE",
"1858 0 LINE",
"1858 729 LINE SMOOTH",
"1858 1016 OFFCURVE",
"1726 1139 OFFCURVE",
"1473 1139 CURVE SMOOTH"
);
}
);
width = 2011;
}
);
unicode = 006D;
},
{
glyphname = n;
lastChange = "2013-03-07 06:32:14 +0200";
layers = (
{
anchors = (
{
name = bottom;
position = "{673, 0}";
},
{
name = top;
position = "{673, 1118}";
}
);
layerId = "ECE8EDD2-0EDB-4EFB-866E-7B25CF44A28E";
name = Bold;
paths = (
{
closed = 1;
nodes = (
"643 1139 OFFCURVE",
"519 1083 OFFCURVE",
"451 974 CURVE",
"434 974 LINE",
"393 1118 LINE",
"160 1118 LINE",
"160 0 LINE",
"465 0 LINE",
"465 526 LINE SMOOTH",
"465 658 OFFCURVE",
"484 752 OFFCURVE",
"522 809 CURVE SMOOTH",
"560 866 OFFCURVE",
"622 895 OFFCURVE",
"707 895 CURVE SMOOTH",
"832 895 OFFCURVE",
"887 814 OFFCURVE",
"887 653 CURVE SMOOTH",
"887 0 LINE",
"1192 0 LINE",
"1192 729 LINE SMOOTH",
"1192 993 OFFCURVE",
"1055 1139 OFFCURVE",
"795 1139 CURVE SMOOTH"
);
}
);
width = 1346;
}
);
unicode = 006E;
},
{
glyphname = ntilde;
lastChange = "2013-03-07 06:32:14 +0200";
layers = (
{
layerId = "ECE8EDD2-0EDB-4EFB-866E-7B25CF44A28E";
name = Bold;
paths = (
{
closed = 1;
nodes = (
"643 1139 OFFCURVE",
"519 1083 OFFCURVE",
"451 975 CURVE",
"434 975 LINE",
"393 1118 LINE",
"160 1118 LINE",
"160 0 LINE",
"465 0 LINE",
"465 526 LINE SMOOTH",
"465 790 OFFCURVE",
"536 895 OFFCURVE",
"707 895 CURVE SMOOTH",
"832 895 OFFCURVE",
"887 814 OFFCURVE",
"887 653 CURVE SMOOTH",
"887 0 LINE",
"1192 0 LINE",
"1192 729 LINE SMOOTH",
"1192 994 OFFCURVE",
"1055 1139 OFFCURVE",
"795 1139 CURVE SMOOTH"
);
},
{
closed = 1;
nodes = (
"938 1550 LINE",
"921 1478 OFFCURVE",
"878 1444 OFFCURVE",
"837 1444 CURVE SMOOTH",
"789 1444 OFFCURVE",
"740 1470 OFFCURVE",
"689 1496 CURVE SMOOTH",
"637 1522 OFFCURVE",
"585 1548 OFFCURVE",
"530 1548 CURVE SMOOTH",
"373 1548 OFFCURVE",
"273 1432 OFFCURVE",
"258 1239 CURVE",
"407 1239 LINE",
"424 1311 OFFCURVE",
"467 1346 OFFCURVE",
"508 1346 CURVE SMOOTH",
"556 1346 OFFCURVE",
"605 1320 OFFCURVE",
"657 1294 CURVE SMOOTH",
"708 1268 OFFCURVE",
"760 1241 OFFCURVE",
"815 1241 CURVE SMOOTH",
"970 1241 OFFCURVE",
"1072 1357 OFFCURVE",
"1087 1550 CURVE"
);
}
);
width = 1346;
}
);
unicode = 00F1;
},
{
glyphname = o;
lastChange = "2013-03-07 06:32:14 +0200";
layers = (
{
anchors = (
{
name = top;
position = "{634, 1118}";
}
);
layerId = "ECE8EDD2-0EDB-4EFB-866E-7B25CF44A28E";
name = Bold;
paths = (
{
closed = 1;
nodes = (
"464 1139 OFFCURVE",
"330 1088 OFFCURVE",
"235 986 CURVE SMOOTH",
"140 886 OFFCURVE",
"92 744 OFFCURVE",
"92 561 CURVE SMOOTH",
"87 209 OFFCURVE",
"309 -24 OFFCURVE",
"631 -20 CURVE SMOOTH",
"802 -20 OFFCURVE",
"936 31 OFFCURVE",
"1032 134 CURVE SMOOTH",
"1128 237 OFFCURVE",
"1176 379 OFFCURVE",
"1176 561 CURVE SMOOTH",
"1181 913 OFFCURVE",
"959 1143 OFFCURVE",
"637 1139 CURVE SMOOTH"
);
},
{
closed = 1;
nodes = (
"797 893 OFFCURVE",
"864 782 OFFCURVE",
"864 561 CURVE SMOOTH",
"864 338 OFFCURVE",
"798 225 OFFCURVE",
"635 225 CURVE SMOOTH",
"471 225 OFFCURVE",
"403 340 OFFCURVE",
"403 561 CURVE SMOOTH",
"403 784 OFFCURVE",
"470 893 OFFCURVE",
"633 893 CURVE SMOOTH"
);
}
);
width = 1268;
}
);
unicode = 006F;
},
{
glyphname = oacute;
lastChange = "2013-03-07 06:32:14 +0200";
layers = (
{
layerId = "ECE8EDD2-0EDB-4EFB-866E-7B25CF44A28E";
name = Bold;
paths = (
{
closed = 1;
nodes = (
"292 1139 OFFCURVE",
"92 926 OFFCURVE",
"92 561 CURVE SMOOTH",
"92 444 OFFCURVE",
"114 341 OFFCURVE",
"158 253 CURVE SMOOTH",
"246 77 OFFCURVE",
"416 -20 OFFCURVE",
"631 -20 CURVE SMOOTH",
"974 -20 OFFCURVE",
"1176 197 OFFCURVE",
"1176 561 CURVE SMOOTH",
"1176 678 OFFCURVE",
"1154 781 OFFCURVE",
"1110 868 CURVE SMOOTH",
"1022 1043 OFFCURVE",
"852 1139 OFFCURVE",
"637 1139 CURVE SMOOTH"
);
},
{
closed = 1;
nodes = (
"797 893 OFFCURVE",
"864 782 OFFCURVE",
"864 561 CURVE SMOOTH",
"864 338 OFFCURVE",
"798 225 OFFCURVE",
"635 225 CURVE SMOOTH",
"471 225 OFFCURVE",
"403 340 OFFCURVE",
"403 561 CURVE SMOOTH",
"403 784 OFFCURVE",
"470 893 OFFCURVE",
"633 893 CURVE SMOOTH"
);
},
{
closed = 1;
nodes = (
"702 1569 LINE",
"660 1502 OFFCURVE",
"582 1401 OFFCURVE",
"467 1268 CURVE",
"467 1241 LINE",
"670 1241 LINE",
"765 1308 OFFCURVE",
"975 1479 OFFCURVE",
"1044 1548 CURVE",
"1044 1569 LINE"
);
}
);
width = 1268;
}
);
unicode = 00F3;
},
{
glyphname = ocircumflex;
lastChange = "2013-03-07 06:32:14 +0200";
layers = (
{
layerId = "ECE8EDD2-0EDB-4EFB-866E-7B25CF44A28E";
name = Bold;
paths = (
{
closed = 1;
nodes = (
"292 1139 OFFCURVE",
"92 926 OFFCURVE",
"92 561 CURVE SMOOTH",
"92 444 OFFCURVE",
"114 341 OFFCURVE",
"158 253 CURVE SMOOTH",
"246 77 OFFCURVE",
"416 -20 OFFCURVE",
"631 -20 CURVE SMOOTH",
"974 -20 OFFCURVE",
"1176 197 OFFCURVE",
"1176 561 CURVE SMOOTH",
"1176 678 OFFCURVE",
"1154 781 OFFCURVE",
"1110 868 CURVE SMOOTH",
"1022 1043 OFFCURVE",
"852 1139 OFFCURVE",
"637 1139 CURVE SMOOTH"
);
},
{
closed = 1;
nodes = (
"797 893 OFFCURVE",
"864 782 OFFCURVE",
"864 561 CURVE SMOOTH",
"864 338 OFFCURVE",
"798 225 OFFCURVE",
"635 225 CURVE SMOOTH",
"471 225 OFFCURVE",
"403 340 OFFCURVE",
"403 561 CURVE SMOOTH",
"403 784 OFFCURVE",
"470 893 OFFCURVE",
"633 893 CURVE SMOOTH"
);
},
{
closed = 1;
nodes = (
"454 1569 LINE",
"409 1494 OFFCURVE",
"324 1394 OFFCURVE",
"198 1268 CURVE",
"198 1241 LINE",
"401 1241 LINE",
"502 1304 OFFCURVE",
"578 1363 OFFCURVE",
"630 1417 CURVE",
"681 1362 OFFCURVE",
"759 1303 OFFCURVE",
"864 1241 CURVE",
"1067 1241 LINE",
"1067 1268 LINE",
"971 1361 OFFCURVE",
"852 1500 OFFCURVE",
"811 1569 CURVE"
);
}
);
width = 1268;
}
);
unicode = 00F4;
},
{
glyphname = odieresis;
lastChange = "2013-03-07 06:32:14 +0200";
layers = (
{
layerId = "ECE8EDD2-0EDB-4EFB-866E-7B25CF44A28E";
name = Bold;
paths = (
{
closed = 1;
nodes = (
"292 1139 OFFCURVE",
"92 926 OFFCURVE",
"92 561 CURVE SMOOTH",
"92 444 OFFCURVE",
"114 341 OFFCURVE",
"158 253 CURVE SMOOTH",
"246 77 OFFCURVE",
"416 -20 OFFCURVE",
"631 -20 CURVE SMOOTH",
"974 -20 OFFCURVE",
"1176 197 OFFCURVE",
"1176 561 CURVE SMOOTH",
"1176 678 OFFCURVE",
"1154 781 OFFCURVE",
"1110 868 CURVE SMOOTH",
"1022 1043 OFFCURVE",
"852 1139 OFFCURVE",
"637 1139 CURVE SMOOTH"
);
},
{
closed = 1;
nodes = (
"797 893 OFFCURVE",
"864 782 OFFCURVE",
"864 561 CURVE SMOOTH",
"864 338 OFFCURVE",
"798 225 OFFCURVE",
"635 225 CURVE SMOOTH",
"471 225 OFFCURVE",
"403 340 OFFCURVE",
"403 561 CURVE SMOOTH",
"403 784 OFFCURVE",
"470 893 OFFCURVE",
"633 893 CURVE SMOOTH"
);
},
{
closed = 1;
nodes = (
"345 1540 OFFCURVE",
"291 1492 OFFCURVE",
"291 1405 CURVE SMOOTH",
"291 1321 OFFCURVE",
"345 1272 OFFCURVE",
"430 1272 CURVE SMOOTH",
"517 1272 OFFCURVE",
"571 1325 OFFCURVE",
"571 1405 CURVE SMOOTH",
"571 1486 OFFCURVE",
"518 1540 OFFCURVE",
"430 1540 CURVE SMOOTH"
);
},
{
closed = 1;
nodes = (
"755 1540 OFFCURVE",
"694 1498 OFFCURVE",
"694 1405 CURVE SMOOTH",
"694 1314 OFFCURVE",
"755 1272 OFFCURVE",
"835 1272 CURVE SMOOTH",
"920 1272 OFFCURVE",
"977 1324 OFFCURVE",
"977 1405 CURVE SMOOTH",
"977 1489 OFFCURVE",
"922 1540 OFFCURVE",
"835 1540 CURVE SMOOTH"
);
}
);
width = 1268;
}
);
unicode = 00F6;
},
{
glyphname = ograve;
lastChange = "2013-03-07 06:32:14 +0200";
layers = (
{
layerId = "ECE8EDD2-0EDB-4EFB-866E-7B25CF44A28E";
name = Bold;
paths = (
{
closed = 1;
nodes = (
"292 1139 OFFCURVE",
"92 926 OFFCURVE",
"92 561 CURVE SMOOTH",
"92 444 OFFCURVE",
"114 341 OFFCURVE",
"158 253 CURVE SMOOTH",
"246 77 OFFCURVE",
"416 -20 OFFCURVE",
"631 -20 CURVE SMOOTH",
"974 -20 OFFCURVE",
"1176 197 OFFCURVE",
"1176 561 CURVE SMOOTH",
"1176 678 OFFCURVE",
"1154 781 OFFCURVE",
"1110 868 CURVE SMOOTH",
"1022 1043 OFFCURVE",
"852 1139 OFFCURVE",
"637 1139 CURVE SMOOTH"
);
},
{
closed = 1;
nodes = (
"797 893 OFFCURVE",
"864 782 OFFCURVE",
"864 561 CURVE SMOOTH",
"864 338 OFFCURVE",
"798 225 OFFCURVE",
"635 225 CURVE SMOOTH",
"471 225 OFFCURVE",
"403 340 OFFCURVE",
"403 561 CURVE SMOOTH",
"403 784 OFFCURVE",
"470 893 OFFCURVE",
"633 893 CURVE SMOOTH"
);
},
{
closed = 1;
nodes = (
"237 1569 LINE",
"237 1548 LINE",
"328 1460 OFFCURVE",
"528 1300 OFFCURVE",
"612 1241 CURVE",
"814 1241 LINE",
"814 1268 LINE",
"699 1401 OFFCURVE",
"621 1502 OFFCURVE",
"579 1569 CURVE"
);
}
);
width = 1268;
}
);
unicode = 00F2;
},
{
glyphname = oslash;
lastChange = "2013-03-07 06:32:14 +0200";
layers = (
{
layerId = "ECE8EDD2-0EDB-4EFB-866E-7B25CF44A28E";
name = Bold;
paths = (
{
closed = 1;
nodes = (
"885 1087 LINE",
"808 1122 OFFCURVE",
"725 1139 OFFCURVE",
"637 1139 CURVE SMOOTH",
"292 1139 OFFCURVE",
"92 926 OFFCURVE",
"92 561 CURVE SMOOTH",
"92 377 OFFCURVE",
"143 233 OFFCURVE",
"244 129 CURVE",
"176 29 LINE",
"330 -76 LINE",
"397 25 LINE",
"469 -5 OFFCURVE",
"547 -20 OFFCURVE",
"631 -20 CURVE SMOOTH",
"974 -20 OFFCURVE",
"1176 197 OFFCURVE",
"1176 561 CURVE SMOOTH",
"1176 735 OFFCURVE",
"1129 874 OFFCURVE",
"1034 977 CURVE",
"1092 1061 LINE",
"940 1169 LINE"
);
},
{
closed = 1;
nodes = (
"860 662 OFFCURVE",
"864 615 OFFCURVE",
"864 561 CURVE SMOOTH",
"864 338 OFFCURVE",
"798 225 OFFCURVE",
"635 225 CURVE SMOOTH",
"599 225 OFFCURVE",
"568 230 OFFCURVE",
"543 240 CURVE",
"852 702 LINE"
);
},
{
closed = 1;
nodes = (
"675 893 OFFCURVE",
"710 885 OFFCURVE",
"739 870 CURVE",
"422 395 LINE",
"409 443 OFFCURVE",
"403 498 OFFCURVE",
"403 561 CURVE SMOOTH",
"403 784 OFFCURVE",
"470 893 OFFCURVE",
"633 893 CURVE SMOOTH"
);
}
);
width = 1268;
}
);
unicode = 00F8;
},
{
glyphname = otilde;
lastChange = "2013-03-07 06:32:14 +0200";
layers = (
{
layerId = "ECE8EDD2-0EDB-4EFB-866E-7B25CF44A28E";
name = Bold;
paths = (
{
closed = 1;
nodes = (
"292 1139 OFFCURVE",
"92 926 OFFCURVE",
"92 561 CURVE SMOOTH",
"92 444 OFFCURVE",
"114 341 OFFCURVE",
"158 253 CURVE SMOOTH",
"246 77 OFFCURVE",
"416 -20 OFFCURVE",
"631 -20 CURVE SMOOTH",
"974 -20 OFFCURVE",
"1176 197 OFFCURVE",
"1176 561 CURVE SMOOTH",
"1176 678 OFFCURVE",
"1154 781 OFFCURVE",
"1110 868 CURVE SMOOTH",
"1022 1043 OFFCURVE",
"852 1139 OFFCURVE",
"637 1139 CURVE SMOOTH"
);
},
{
closed = 1;
nodes = (
"797 893 OFFCURVE",
"864 782 OFFCURVE",
"864 561 CURVE SMOOTH",
"864 338 OFFCURVE",
"798 225 OFFCURVE",
"635 225 CURVE SMOOTH",
"471 225 OFFCURVE",
"403 340 OFFCURVE",
"403 561 CURVE SMOOTH",
"403 784 OFFCURVE",
"470 893 OFFCURVE",
"633 893 CURVE SMOOTH"
);
},
{
closed = 1;
nodes = (
"899 1550 LINE",
"882 1478 OFFCURVE",
"839 1444 OFFCURVE",
"798 1444 CURVE SMOOTH",
"750 1444 OFFCURVE",
"701 1470 OFFCURVE",
"650 1496 CURVE SMOOTH",
"598 1522 OFFCURVE",
"546 1548 OFFCURVE",
"491 1548 CURVE SMOOTH",
"334 1548 OFFCURVE",
"234 1432 OFFCURVE",
"219 1239 CURVE",
"368 1239 LINE",
"385 1311 OFFCURVE",
"428 1346 OFFCURVE",
"469 1346 CURVE SMOOTH",
"517 1346 OFFCURVE",
"566 1320 OFFCURVE",
"618 1294 CURVE SMOOTH",
"669 1268 OFFCURVE",
"721 1241 OFFCURVE",
"776 1241 CURVE SMOOTH",
"931 1241 OFFCURVE",
"1033 1357 OFFCURVE",
"1048 1550 CURVE"
);
}
);
width = 1268;
}
);
unicode = 00F5;
},
{
glyphname = oe;
lastChange = "2013-03-07 06:32:14 +0200";
layers = (
{
layerId = "ECE8EDD2-0EDB-4EFB-866E-7B25CF44A28E";
name = Bold;
paths = (
{
closed = 1;
nodes = (
"1240 1139 OFFCURVE",
"1112 1087 OFFCURVE",
"1016 983 CURVE",
"921 1086 OFFCURVE",
"782 1139 OFFCURVE",
"633 1139 CURVE SMOOTH",
"289 1139 OFFCURVE",
"92 930 OFFCURVE",
"92 561 CURVE SMOOTH",
"92 443 OFFCURVE",
"114 340 OFFCURVE",
"159 252 CURVE SMOOTH",
"247 76 OFFCURVE",
"419 -20 OFFCURVE",
"635 -20 CURVE SMOOTH",
"802 -20 OFFCURVE",
"932 32 OFFCURVE",
"1026 135 CURVE",
"1125 32 OFFCURVE",
"1265 -20 OFFCURVE",
"1446 -20 CURVE SMOOTH",
"1626 -20 OFFCURVE",
"1743 7 OFFCURVE",
"1851 59 CURVE",
"1851 295 LINE",
"1718 234 OFFCURVE",
"1601 207 OFFCURVE",
"1458 207 CURVE SMOOTH",
"1281 207 OFFCURVE",
"1178 306 OFFCURVE",
"1169 475 CURVE",
"1169 483 LINE",
"1915 483 LINE",
"1915 631 LINE SMOOTH",
"1915 948 OFFCURVE",
"1724 1139 OFFCURVE",
"1399 1139 CURVE SMOOTH"
);
},
{
closed = 1;
nodes = (
"797 893 OFFCURVE",
"864 782 OFFCURVE",
"864 561 CURVE SMOOTH",
"864 338 OFFCURVE",
"798 225 OFFCURVE",
"635 225 CURVE SMOOTH",
"471 225 OFFCURVE",
"403 340 OFFCURVE",
"403 561 CURVE SMOOTH",
"403 784 OFFCURVE",
"470 893 OFFCURVE",
"633 893 CURVE SMOOTH"
);
},
{
closed = 1;
nodes = (
"1544 922 OFFCURVE",
"1625 834 OFFCURVE",
"1628 686 CURVE",
"1178 686 LINE",
"1190 847 OFFCURVE",
"1280 922 OFFCURVE",
"1405 922 CURVE SMOOTH"
);
}
);
width = 2003;
}
);
unicode = 0153;
},
{
glyphname = p;
lastChange = "2013-03-07 06:32:14 +0200";
layers = (
{
layerId = "ECE8EDD2-0EDB-4EFB-866E-7B25CF44A28E";
name = Bold;
paths = (
{
closed = 1;
nodes = (
"642 1139 OFFCURVE",
"536 1084 OFFCURVE",
"465 972 CURVE",
"451 972 LINE",
"408 1118 LINE",
"160 1118 LINE",
"160 -492 LINE",
"465 -492 LINE",
"465 -39 LINE SMOOTH",
"465 -24 OFFCURVE",
"460 30 OFFCURVE",
"449 123 CURVE",
"465 123 LINE",
"540 28 OFFCURVE",
"643 -20 OFFCURVE",
"774 -20 CURVE SMOOTH",
"1035 -24 OFFCURVE",
"1206 202 OFFCURVE",
"1204 561 CURVE",
"1204 742 OFFCURVE",
"1167 884 OFFCURVE",
"1092 985 CURVE SMOOTH",
"1017 1088 OFFCURVE",
"914 1139 OFFCURVE",
"782 1139 CURVE SMOOTH"
);
},
{
closed = 1;
nodes = (
"828 895 OFFCURVE",
"893 785 OFFCURVE",
"893 565 CURVE SMOOTH",
"893 340 OFFCURVE",
"825 227 OFFCURVE",
"688 227 CURVE SMOOTH",
"533 227 OFFCURVE",
"465 323 OFFCURVE",
"465 563 CURVE SMOOTH",
"465 596 LINE SMOOTH",
"468 809 OFFCURVE",
"533 895 OFFCURVE",
"684 895 CURVE SMOOTH"
);
}
);
width = 1296;
}
);
unicode = 0070;
},
{
glyphname = thorn;
lastChange = "2013-03-07 06:32:14 +0200";
layers = (
{
layerId = "ECE8EDD2-0EDB-4EFB-866E-7B25CF44A28E";
name = Bold;
paths = (
{
closed = 1;
nodes = (
"160 1556 LINE",
"160 -492 LINE",
"465 -492 LINE",
"465 -39 LINE",
"458 55 LINE",
"451 117 LINE",
"465 117 LINE",
"534 26 OFFCURVE",
"640 -20 OFFCURVE",
"782 -20 CURVE SMOOTH",
"1047 -20 OFFCURVE",
"1204 197 OFFCURVE",
"1204 561 CURVE SMOOTH",
"1204 920 OFFCURVE",
"1046 1139 OFFCURVE",
"782 1139 CURVE SMOOTH",
"642 1139 OFFCURVE",
"532 1081 OFFCURVE",
"465 973 CURVE",
"451 973 LINE",
"458 1045 LINE",
"465 1165 LINE",
"465 1556 LINE"
);
},
{
closed = 1;
nodes = (
"828 895 OFFCURVE",
"893 785 OFFCURVE",
"893 565 CURVE SMOOTH",
"893 340 OFFCURVE",
"825 227 OFFCURVE",
"688 227 CURVE SMOOTH",
"533 227 OFFCURVE",
"465 323 OFFCURVE",
"465 563 CURVE SMOOTH",
"465 596 LINE SMOOTH",
"468 809 OFFCURVE",
"533 895 OFFCURVE",
"684 895 CURVE SMOOTH"
);
}
);
width = 1296;
}
);
unicode = 00FE;
},
{
glyphname = q;
lastChange = "2013-03-07 06:32:14 +0200";
layers = (
{
layerId = "ECE8EDD2-0EDB-4EFB-866E-7B25CF44A28E";
name = Bold;
paths = (
{
closed = 1;
nodes = (
"387 1139 OFFCURVE",
"283 1088 OFFCURVE",
"206 984 CURVE SMOOTH",
"130 882 OFFCURVE",
"92 740 OFFCURVE",
"92 557 CURVE SMOOTH",
"92 376 OFFCURVE",
"129 234 OFFCURVE",
"204 132 CURVE SMOOTH",
"279 31 OFFCURVE",
"382 -20 OFFCURVE",
"514 -20 CURVE SMOOTH",
"655 -20 OFFCURVE",
"766 37 OFFCURVE",
"831 145 CURVE",
"844 145 LINE",
"835 74 OFFCURVE",
"831 18 OFFCURVE",
"831 -23 CURVE SMOOTH",
"831 -492 LINE",
"1137 -492 LINE",
"1137 1118 LINE",
"879 1118 LINE",
"852 974 LINE",
"844 974 LINE",
"764 1087 OFFCURVE",
"661 1139 OFFCURVE",
"520 1139 CURVE SMOOTH"
);
},
{
closed = 1;
nodes = (
"782 891 OFFCURVE",
"852 795 OFFCURVE",
"852 555 CURVE SMOOTH",
"852 518 LINE SMOOTH",
"849 407 OFFCURVE",
"829 330 OFFCURVE",
"793 285 CURVE SMOOTH",
"757 241 OFFCURVE",
"700 219 OFFCURVE",
"623 219 CURVE SMOOTH",
"472 219 OFFCURVE",
"403 329 OFFCURVE",
"403 553 CURVE SMOOTH",
"403 778 OFFCURVE",
"475 891 OFFCURVE",
"618 891 CURVE SMOOTH"
);
}
);
width = 1296;
}
);
unicode = 0071;
},
{
glyphname = r;
lastChange = "2013-03-07 06:32:14 +0200";
layers = (
{
anchors = (
{
name = bottom;
position = "{465, 0}";
},
{
name = top;
position = "{465, 1118}";
}
);
layerId = "ECE8EDD2-0EDB-4EFB-866E-7B25CF44A28E";
name = Bold;
paths = (
{
closed = 1;
nodes = (
"715 1139 OFFCURVE",
"650 1120 OFFCURVE",
"591 1081 CURVE SMOOTH",
"532 1043 OFFCURVE",
"486 992 OFFCURVE",
"451 930 CURVE",
"436 930 LINE",
"391 1118 LINE",
"160 1118 LINE",
"160 0 LINE",
"465 0 LINE",
"465 569 LINE SMOOTH",
"465 749 OFFCURVE",
"579 854 OFFCURVE",
"774 854 CURVE SMOOTH",
"809 854 OFFCURVE",
"839 851 OFFCURVE",
"864 844 CURVE",
"887 1130 LINE",
"860 1136 OFFCURVE",
"825 1139 OFFCURVE",
"784 1139 CURVE SMOOTH"
);
}
);
width = 930;
}
);
unicode = 0072;
},
{
glyphname = s;
lastChange = "2013-03-07 06:32:14 +0200";
layers = (
{
anchors = (
{
name = bottom;
position = "{509, 0}";
},
{
name = top;
position = "{509, 1118}";
}
);
layerId = "ECE8EDD2-0EDB-4EFB-866E-7B25CF44A28E";
name = Bold;
paths = (
{
closed = 1;
nodes = (
"252 1139 OFFCURVE",
"92 1026 OFFCURVE",
"92 827 CURVE SMOOTH",
"92 711 OFFCURVE",
"127 636 OFFCURVE",
"207 575 CURVE SMOOTH",
"248 544 OFFCURVE",
"311 511 OFFCURVE",
"397 475 CURVE SMOOTH",
"580 393 OFFCURVE",
"639 369 OFFCURVE",
"639 299 CURVE SMOOTH",
"639 235 OFFCURVE",
"584 203 OFFCURVE",
"473 203 CURVE SMOOTH",
"419 203 OFFCURVE",
"356 212 OFFCURVE",
"285 230 CURVE SMOOTH",
"214 248 OFFCURVE",
"151 270 OFFCURVE",
"93 297 CURVE",
"93 45 LINE",
"194 2 OFFCURVE",
"300 -20 OFFCURVE",
"463 -20 CURVE SMOOTH",
"780 -20 OFFCURVE",
"940 103 OFFCURVE",
"940 332 CURVE SMOOTH",
"940 443 OFFCURVE",
"902 520 OFFCURVE",
"821 581 CURVE SMOOTH",
"780 612 OFFCURVE",
"716 645 OFFCURVE",
"629 680 CURVE SMOOTH",
"531 719 OFFCURVE",
"467 749 OFFCURVE",
"438 769 CURVE SMOOTH",
"409 789 OFFCURVE",
"395 813 OFFCURVE",
"395 840 CURVE SMOOTH",
"395 889 OFFCURVE",
"440 913 OFFCURVE",
"530 913 CURVE SMOOTH",
"631 913 OFFCURVE",
"724 879 OFFCURVE",
"836 831 CURVE",
"928 1051 LINE",
"801 1110 OFFCURVE",
"670 1139 OFFCURVE",
"535 1139 CURVE SMOOTH"
);
}
);
width = 1018;
}
);
unicode = 0073;
},
{
glyphname = scaron;
lastChange = "2013-03-07 06:32:14 +0200";
layers = (
{
layerId = "ECE8EDD2-0EDB-4EFB-866E-7B25CF44A28E";
name = Bold;
paths = (
{
closed = 1;
nodes = (
"252 1139 OFFCURVE",
"92 1026 OFFCURVE",
"92 827 CURVE SMOOTH",
"92 769 OFFCURVE",
"101 720 OFFCURVE",
"120 681 CURVE SMOOTH",
"156 601 OFFCURVE",
"225 547 OFFCURVE",
"397 475 CURVE SMOOTH",
"457 450 OFFCURVE",
"505 428 OFFCURVE",
"541 409 CURVE SMOOTH",
"613 371 OFFCURVE",
"639 347 OFFCURVE",
"639 299 CURVE SMOOTH",
"639 235 OFFCURVE",
"584 203 OFFCURVE",
"473 203 CURVE SMOOTH",
"365 203 OFFCURVE",
"207 244 OFFCURVE",
"94 297 CURVE",
"94 45 LINE",
"194 2 OFFCURVE",
"300 -20 OFFCURVE",
"463 -20 CURVE SMOOTH",
"780 -20 OFFCURVE",
"940 103 OFFCURVE",
"940 332 CURVE SMOOTH",
"940 387 OFFCURVE",
"930 435 OFFCURVE",
"911 475 CURVE SMOOTH",
"872 555 OFFCURVE",
"804 609 OFFCURVE",
"629 680 CURVE SMOOTH",
"531 719 OFFCURVE",
"468 749 OFFCURVE",
"439 769 CURVE SMOOTH",
"410 789 OFFCURVE",
"395 813 OFFCURVE",
"395 840 CURVE SMOOTH",
"395 889 OFFCURVE",
"440 913 OFFCURVE",
"530 913 CURVE SMOOTH",
"631 913 OFFCURVE",
"724 879 OFFCURVE",
"836 831 CURVE",
"928 1051 LINE",
"801 1110 OFFCURVE",
"670 1139 OFFCURVE",
"535 1139 CURVE SMOOTH"
);
},
{
closed = 1;
nodes = (
"769 1569 LINE",
"669 1510 OFFCURVE",
"591 1451 OFFCURVE",
"535 1393 CURVE",
"480 1448 OFFCURVE",
"404 1507 OFFCURVE",
"306 1569 CURVE",
"103 1569 LINE",
"103 1542 LINE",
"182 1460 OFFCURVE",
"240 1397 OFFCURVE",
"276 1354 CURVE SMOOTH",
"312 1310 OFFCURVE",
"340 1272 OFFCURVE",
"359 1241 CURVE",
"716 1241 LINE",
"757 1308 OFFCURVE",
"860 1430 OFFCURVE",
"972 1542 CURVE",
"972 1569 LINE"
);
}
);
width = 1018;
}
);
unicode = 0161;
},
{
glyphname = germandbls;
lastChange = "2013-03-07 06:32:14 +0200";
layers = (
{
layerId = "ECE8EDD2-0EDB-4EFB-866E-7B25CF44A28E";
name = Bold;
paths = (
{
closed = 1;
nodes = (
"367 1567 OFFCURVE",
"160 1407 OFFCURVE",
"160 1139 CURVE SMOOTH",
"160 0 LINE",
"465 0 LINE",
"465 1128 LINE SMOOTH",
"465 1256 OFFCURVE",
"556 1329 OFFCURVE",
"711 1329 CURVE SMOOTH",
"844 1329 OFFCURVE",
"938 1268 OFFCURVE",
"938 1188 CURVE SMOOTH",
"938 1127 OFFCURVE",
"902 1080 OFFCURVE",
"799 1007 CURVE SMOOTH",
"706 942 OFFCURVE",
"659 873 OFFCURVE",
"659 788 CURVE SMOOTH",
"659 680 OFFCURVE",
"715 612 OFFCURVE",
"883 516 CURVE SMOOTH",
"932 488 OFFCURVE",
"971 464 OFFCURVE",
"998 444 CURVE SMOOTH",
"1053 404 OFFCURVE",
"1071 377 OFFCURVE",
"1071 322 CURVE SMOOTH",
"1071 240 OFFCURVE",
"1015 199 OFFCURVE",
"903 199 CURVE SMOOTH",
"818 199 OFFCURVE",
"692 237 OFFCURVE",
"621 285 CURVE",
"621 43 LINE",
"701 -2 OFFCURVE",
"792 -20 OFFCURVE",
"924 -20 CURVE SMOOTH",
"1227 -20 OFFCURVE",
"1384 97 OFFCURVE",
"1384 326 CURVE SMOOTH",
"1384 430 OFFCURVE",
"1351 510 OFFCURVE",
"1281 575 CURVE SMOOTH",
"1246 608 OFFCURVE",
"1179 654 OFFCURVE",
"1082 715 CURVE SMOOTH",
"1038 742 OFFCURVE",
"1007 764 OFFCURVE",
"990 781 CURVE SMOOTH",
"972 798 OFFCURVE",
"963 816 OFFCURVE",
"963 834 CURVE SMOOTH",
"963 863 OFFCURVE",
"994 890 OFFCURVE",
"1037 922 CURVE SMOOTH",
"1080 954 OFFCURVE",
"1132 991 OFFCURVE",
"1175 1042 CURVE SMOOTH",
"1218 1093 OFFCURVE",
"1249 1156 OFFCURVE",
"1249 1241 CURVE SMOOTH",
"1249 1440 OFFCURVE",
"1036 1567 OFFCURVE",
"711 1567 CURVE SMOOTH"
);
}
);
width = 1456;
}
);
unicode = 00DF;
},
{
glyphname = t;
lastChange = "2013-03-07 06:32:14 +0200";
layers = (
{
anchors = (
{
name = bottom;
position = "{445, 0}";
},
{
name = center;
position = "{445, 559}";
}
);
layerId = "ECE8EDD2-0EDB-4EFB-866E-7B25CF44A28E";
name = Bold;
paths = (
{
closed = 1;
nodes = (
"303 1356 LINE",
"215 1120 LINE",
"47 1018 LINE",
"47 889 LINE",
"193 889 LINE",
"193 350 LINE SMOOTH",
"193 103 OFFCURVE",
"299 -20 OFFCURVE",
"543 -20 CURVE SMOOTH",
"654 -20 OFFCURVE",
"747 -3 OFFCURVE",
"823 31 CURVE",
"823 258 LINE",
"748 235 OFFCURVE",
"684 223 OFFCURVE",
"631 223 CURVE SMOOTH",
"551 223 OFFCURVE",
"498 263 OFFCURVE",
"498 350 CURVE SMOOTH",
"498 889 LINE",
"811 889 LINE",
"811 1118 LINE",
"498 1118 LINE",
"498 1356 LINE"
);
}
);
width = 889;
}
);
unicode = 0074;
},
{
glyphname = u;
lastChange = "2013-03-07 06:32:14 +0200";
layers = (
{
anchors = (
{
name = ogonek;
position = "{1211, 10}";
},
{
name = top;
position = "{673, 1118}";
}
);
layerId = "ECE8EDD2-0EDB-4EFB-866E-7B25CF44A28E";
name = Bold;
paths = (
{
closed = 1;
nodes = (
"881 1118 LINE",
"881 592 LINE SMOOTH",
"881 460 OFFCURVE",
"862 365 OFFCURVE",
"824 308 CURVE SMOOTH",
"786 251 OFFCURVE",
"724 223 OFFCURVE",
"639 223 CURVE SMOOTH",
"514 223 OFFCURVE",
"459 304 OFFCURVE",
"459 465 CURVE SMOOTH",
"459 1118 LINE",
"154 1118 LINE",
"154 389 LINE SMOOTH",
"154 125 OFFCURVE",
"288 -20 OFFCURVE",
"551 -20 CURVE SMOOTH",
"704 -20 OFFCURVE",
"830 39 OFFCURVE",
"895 143 CURVE",
"911 143 LINE",
"952 0 LINE",
"1186 0 LINE",
"1186 1118 LINE"
);
}
);
width = 1346;
}
);
unicode = 0075;
},
{
glyphname = uacute;
lastChange = "2013-03-07 06:32:14 +0200";
layers = (
{
layerId = "ECE8EDD2-0EDB-4EFB-866E-7B25CF44A28E";
name = Bold;
paths = (
{
closed = 1;
nodes = (
"881 1118 LINE",
"881 592 LINE SMOOTH",
"881 328 OFFCURVE",
"810 223 OFFCURVE",
"639 223 CURVE SMOOTH",
"514 223 OFFCURVE",
"459 304 OFFCURVE",
"459 465 CURVE SMOOTH",
"459 1118 LINE",
"154 1118 LINE",
"154 389 LINE SMOOTH",
"154 125 OFFCURVE",
"288 -20 OFFCURVE",
"551 -20 CURVE SMOOTH",
"704 -20 OFFCURVE",
"830 39 OFFCURVE",
"895 143 CURVE",
"911 143 LINE",
"952 0 LINE",
"1186 0 LINE",
"1186 1118 LINE"
);
},
{
closed = 1;
nodes = (
"733 1569 LINE",
"691 1502 OFFCURVE",
"613 1401 OFFCURVE",
"498 1268 CURVE",
"498 1241 LINE",
"701 1241 LINE",
"796 1308 OFFCURVE",
"1006 1479 OFFCURVE",
"1075 1548 CURVE",
"1075 1569 LINE"
);
}
);
width = 1346;
}
);
unicode = 00FA;
},
{
glyphname = ucircumflex;
lastChange = "2013-03-07 06:32:14 +0200";
layers = (
{
layerId = "ECE8EDD2-0EDB-4EFB-866E-7B25CF44A28E";
name = Bold;
paths = (
{
closed = 1;
nodes = (
"881 1118 LINE",
"881 592 LINE SMOOTH",
"881 328 OFFCURVE",
"810 223 OFFCURVE",
"639 223 CURVE SMOOTH",
"514 223 OFFCURVE",
"459 304 OFFCURVE",
"459 465 CURVE SMOOTH",
"459 1118 LINE",
"154 1118 LINE",
"154 389 LINE SMOOTH",
"154 125 OFFCURVE",
"288 -20 OFFCURVE",
"551 -20 CURVE SMOOTH",
"704 -20 OFFCURVE",
"830 39 OFFCURVE",
"895 143 CURVE",
"911 143 LINE",
"952 0 LINE",
"1186 0 LINE",
"1186 1118 LINE"
);
},
{
closed = 1;
nodes = (
"491 1569 LINE",
"446 1494 OFFCURVE",
"361 1394 OFFCURVE",
"235 1268 CURVE",
"235 1241 LINE",
"438 1241 LINE",
"539 1304 OFFCURVE",
"615 1363 OFFCURVE",
"667 1417 CURVE",
"718 1362 OFFCURVE",
"796 1303 OFFCURVE",
"901 1241 CURVE",
"1104 1241 LINE",
"1104 1268 LINE",
"1008 1361 OFFCURVE",
"889 1500 OFFCURVE",
"848 1569 CURVE"
);
}
);
width = 1346;
}
);
unicode = 00FB;
},
{
glyphname = udieresis;
lastChange = "2013-03-07 06:32:14 +0200";
layers = (
{
layerId = "ECE8EDD2-0EDB-4EFB-866E-7B25CF44A28E";
name = Bold;
paths = (
{
closed = 1;
nodes = (
"881 1118 LINE",
"881 592 LINE SMOOTH",
"881 328 OFFCURVE",
"810 223 OFFCURVE",
"639 223 CURVE SMOOTH",
"514 223 OFFCURVE",
"459 304 OFFCURVE",
"459 465 CURVE SMOOTH",
"459 1118 LINE",
"154 1118 LINE",
"154 389 LINE SMOOTH",
"154 125 OFFCURVE",
"288 -20 OFFCURVE",
"551 -20 CURVE SMOOTH",
"704 -20 OFFCURVE",
"830 39 OFFCURVE",
"895 143 CURVE",
"911 143 LINE",
"952 0 LINE",
"1186 0 LINE",
"1186 1118 LINE"
);
},
{
closed = 1;
nodes = (
"380 1540 OFFCURVE",
"326 1492 OFFCURVE",
"326 1405 CURVE SMOOTH",
"326 1321 OFFCURVE",
"380 1272 OFFCURVE",
"465 1272 CURVE SMOOTH",
"552 1272 OFFCURVE",
"606 1325 OFFCURVE",
"606 1405 CURVE SMOOTH",
"606 1486 OFFCURVE",
"553 1540 OFFCURVE",
"465 1540 CURVE SMOOTH"
);
},
{
closed = 1;
nodes = (
"790 1540 OFFCURVE",
"729 1498 OFFCURVE",
"729 1405 CURVE SMOOTH",
"729 1314 OFFCURVE",
"790 1272 OFFCURVE",
"870 1272 CURVE SMOOTH",
"955 1272 OFFCURVE",
"1012 1324 OFFCURVE",
"1012 1405 CURVE SMOOTH",
"1012 1489 OFFCURVE",
"957 1540 OFFCURVE",
"870 1540 CURVE SMOOTH"
);
}
);
width = 1346;
}
);
unicode = 00FC;
},
{
glyphname = ugrave;
lastChange = "2013-03-07 06:32:14 +0200";
layers = (
{
layerId = "ECE8EDD2-0EDB-4EFB-866E-7B25CF44A28E";
name = Bold;
paths = (
{
closed = 1;
nodes = (
"881 1118 LINE",
"881 592 LINE SMOOTH",
"881 328 OFFCURVE",
"810 223 OFFCURVE",
"639 223 CURVE SMOOTH",
"514 223 OFFCURVE",
"459 304 OFFCURVE",
"459 465 CURVE SMOOTH",
"459 1118 LINE",
"154 1118 LINE",
"154 389 LINE SMOOTH",
"154 125 OFFCURVE",
"288 -20 OFFCURVE",
"551 -20 CURVE SMOOTH",
"704 -20 OFFCURVE",
"830 39 OFFCURVE",
"895 143 CURVE",
"911 143 LINE",
"952 0 LINE",
"1186 0 LINE",
"1186 1118 LINE"
);
},
{
closed = 1;
nodes = (
"245 1569 LINE",
"245 1548 LINE",
"336 1460 OFFCURVE",
"536 1300 OFFCURVE",
"620 1241 CURVE",
"822 1241 LINE",
"822 1268 LINE",
"707 1401 OFFCURVE",
"629 1502 OFFCURVE",
"587 1569 CURVE"
);
}
);
width = 1346;
}
);
unicode = 00F9;
},
{
glyphname = v;
lastChange = "2013-03-07 06:32:14 +0200";
layers = (
{
layerId = "ECE8EDD2-0EDB-4EFB-866E-7B25CF44A28E";
name = Bold;
paths = (
{
closed = 1;
nodes = (
"846 1118 LINE",
"631 481 LINE SMOOTH",
"604 392 OFFCURVE",
"589 316 OFFCURVE",
"586 252 CURVE",
"580 252 LINE",
"574 324 OFFCURVE",
"559 400 OFFCURVE",
"535 481 CURVE",
"319 1118 LINE",
"0 1118 LINE",
"426 0 LINE",
"739 0 LINE",
"1165 1118 LINE"
);
}
);
width = 1165;
}
);
unicode = 0076;
},
{
glyphname = w;
lastChange = "2013-03-07 06:32:14 +0200";
layers = (
{
anchors = (
{
name = top;
position = "{877, 1118}";
}
);
layerId = "ECE8EDD2-0EDB-4EFB-866E-7B25CF44A28E";
name = Bold;
paths = (
{
closed = 1;
nodes = (
"1434 1118 LINE",
"1300 623 LINE SMOOTH",
"1293 594 OFFCURVE",
"1282 537 OFFCURVE",
"1267 453 CURVE SMOOTH",
"1252 370 OFFCURVE",
"1241 304 OFFCURVE",
"1235 256 CURVE",
"1229 256 LINE",
"1226 332 OFFCURVE",
"1189 523 OFFCURVE",
"1178 582 CURVE",
"1047 1118 LINE",
"711 1118 LINE",
"573 582 LINE",
"557 497 LINE SMOOTH",
"536 387 OFFCURVE",
"525 307 OFFCURVE",
"522 256 CURVE",
"516 256 LINE",
"495 412 OFFCURVE",
"474 534 OFFCURVE",
"453 623 CURVE SMOOTH",
"324 1118 LINE",
"20 1118 LINE",
"338 0 LINE",
"666 0 LINE",
"870 885 LINE",
"877 885 LINE",
"992 391 LINE",
"1079 0 LINE",
"1411 0 LINE",
"1733 1118 LINE"
);
}
);
width = 1753;
}
);
unicode = 0077;
},
{
glyphname = x;
lastChange = "2013-03-07 06:32:14 +0200";
layers = (
{
layerId = "ECE8EDD2-0EDB-4EFB-866E-7B25CF44A28E";
name = Bold;
paths = (
{
closed = 1;
nodes = (
"811 1118 LINE",
"592 762 LINE",
"375 1118 LINE",
"29 1118 LINE",
"389 571 LINE",
"9 0 LINE",
"356 0 LINE",
"592 383 LINE",
"827 0 LINE",
"1174 0 LINE",
"793 571 LINE",
"1157 1118 LINE"
);
}
);
width = 1184;
}
);
unicode = 0078;
},
{
glyphname = y;
lastChange = "2013-03-07 06:32:14 +0200";
layers = (
{
anchors = (
{
name = top;
position = "{583, 1118}";
}
);
layerId = "ECE8EDD2-0EDB-4EFB-866E-7B25CF44A28E";
name = Bold;
paths = (
{
closed = 1;
nodes = (
"838 1118 LINE",
"631 489 LINE SMOOTH",
"610 428 OFFCURVE",
"595 364 OFFCURVE",
"588 295 CURVE",
"582 295 LINE",
"575 370 OFFCURVE",
"563 434 OFFCURVE",
"545 489 CURVE SMOOTH",
"334 1118 LINE",
"0 1118 LINE",
"444 8 LINE",
"426 -47 LINE SMOOTH",
"381 -180 OFFCURVE",
"298 -246 OFFCURVE",
"190 -246 CURVE SMOOTH",
"147 -246 OFFCURVE",
"107 -242 OFFCURVE",
"70 -233 CURVE",
"70 -475 LINE",
"121 -486 OFFCURVE",
"172 -492 OFFCURVE",
"225 -492 CURVE SMOOTH",
"440 -492 OFFCURVE",
"605 -376 OFFCURVE",
"692 -143 CURVE SMOOTH",
"1165 1118 LINE"
);
}
);
width = 1165;
}
);
unicode = 0079;
},
{
glyphname = yacute;
lastChange = "2013-03-07 06:32:14 +0200";
layers = (
{
layerId = "ECE8EDD2-0EDB-4EFB-866E-7B25CF44A28E";
name = Bold;
paths = (
{
closed = 1;
nodes = (
"838 1118 LINE",
"631 489 LINE SMOOTH",
"610 428 OFFCURVE",
"595 364 OFFCURVE",
"588 295 CURVE",
"582 295 LINE",
"575 370 OFFCURVE",
"563 434 OFFCURVE",
"545 489 CURVE SMOOTH",
"334 1118 LINE",
"0 1118 LINE",
"444 8 LINE",
"426 -47 LINE SMOOTH",
"381 -180 OFFCURVE",
"298 -246 OFFCURVE",
"190 -246 CURVE SMOOTH",
"147 -246 OFFCURVE",
"107 -242 OFFCURVE",
"70 -233 CURVE",
"70 -475 LINE",
"121 -486 OFFCURVE",
"172 -492 OFFCURVE",
"225 -492 CURVE SMOOTH",
"440 -492 OFFCURVE",
"605 -376 OFFCURVE",
"692 -143 CURVE SMOOTH",
"1165 1118 LINE"
);
},
{
closed = 1;
nodes = (
"628 1569 LINE",
"586 1502 OFFCURVE",
"508 1401 OFFCURVE",
"393 1268 CURVE",
"393 1241 LINE",
"596 1241 LINE",
"691 1308 OFFCURVE",
"901 1479 OFFCURVE",
"970 1548 CURVE",
"970 1569 LINE"
);
}
);
width = 1165;
}
);
unicode = 00FD;
},
{
glyphname = ydieresis;
lastChange = "2013-03-07 06:32:14 +0200";
layers = (
{
layerId = "ECE8EDD2-0EDB-4EFB-866E-7B25CF44A28E";
name = Bold;
paths = (
{
closed = 1;
nodes = (
"838 1118 LINE",
"631 489 LINE SMOOTH",
"610 428 OFFCURVE",
"595 364 OFFCURVE",
"588 295 CURVE",
"582 295 LINE",
"575 370 OFFCURVE",
"563 434 OFFCURVE",
"545 489 CURVE SMOOTH",
"334 1118 LINE",
"0 1118 LINE",
"444 8 LINE",
"426 -47 LINE SMOOTH",
"381 -180 OFFCURVE",
"298 -246 OFFCURVE",
"190 -246 CURVE SMOOTH",
"147 -246 OFFCURVE",
"107 -242 OFFCURVE",
"70 -233 CURVE",
"70 -475 LINE",
"121 -486 OFFCURVE",
"172 -492 OFFCURVE",
"225 -492 CURVE SMOOTH",
"440 -492 OFFCURVE",
"605 -376 OFFCURVE",
"692 -143 CURVE SMOOTH",
"1165 1118 LINE"
);
},
{
closed = 1;
nodes = (
"297 1540 OFFCURVE",
"243 1492 OFFCURVE",
"243 1405 CURVE SMOOTH",
"243 1321 OFFCURVE",
"297 1272 OFFCURVE",
"382 1272 CURVE SMOOTH",
"469 1272 OFFCURVE",
"523 1325 OFFCURVE",
"523 1405 CURVE SMOOTH",
"523 1486 OFFCURVE",
"470 1540 OFFCURVE",
"382 1540 CURVE SMOOTH"
);
},
{
closed = 1;
nodes = (
"707 1540 OFFCURVE",
"646 1498 OFFCURVE",
"646 1405 CURVE SMOOTH",
"646 1314 OFFCURVE",
"707 1272 OFFCURVE",
"787 1272 CURVE SMOOTH",
"872 1272 OFFCURVE",
"929 1324 OFFCURVE",
"929 1405 CURVE SMOOTH",
"929 1489 OFFCURVE",
"874 1540 OFFCURVE",
"787 1540 CURVE SMOOTH"
);
}
);
width = 1165;
}
);
unicode = 00FF;
},
{
glyphname = z;
lastChange = "2013-03-07 06:32:14 +0200";
layers = (
{
anchors = (
{
name = top;
position = "{499, 1118}";
}
);
layerId = "ECE8EDD2-0EDB-4EFB-866E-7B25CF44A28E";
name = Bold;
paths = (
{
closed = 1;
nodes = (
"86 1118 LINE",
"86 885 LINE",
"573 885 LINE",
"55 180 LINE",
"55 0 LINE",
"938 0 LINE",
"938 233 LINE",
"416 233 LINE",
"920 920 LINE",
"920 1118 LINE"
);
}
);
width = 998;
}
);
unicode = 007A;
},
{
glyphname = zcaron;
lastChange = "2013-03-07 06:32:14 +0200";
layers = (
{
layerId = "ECE8EDD2-0EDB-4EFB-866E-7B25CF44A28E";
name = Bold;
paths = (
{
closed = 1;
nodes = (
"86 1118 LINE",
"86 885 LINE",
"573 885 LINE",
"55 180 LINE",
"55 0 LINE",
"938 0 LINE",
"938 233 LINE",
"416 233 LINE",
"920 920 LINE",
"920 1118 LINE"
);
},
{
closed = 1;
nodes = (
"749 1569 LINE",
"649 1510 OFFCURVE",
"571 1451 OFFCURVE",
"515 1393 CURVE",
"460 1448 OFFCURVE",
"384 1507 OFFCURVE",
"286 1569 CURVE",
"83 1569 LINE",
"83 1542 LINE",
"162 1460 OFFCURVE",
"220 1397 OFFCURVE",
"256 1354 CURVE SMOOTH",
"292 1310 OFFCURVE",
"320 1272 OFFCURVE",
"339 1241 CURVE",
"696 1241 LINE",
"737 1308 OFFCURVE",
"840 1430 OFFCURVE",
"952 1542 CURVE",
"952 1569 LINE"
);
}
);
width = 999;
}
);
unicode = 017E;
},
{
glyphname = mu;
lastChange = "2013-03-07 06:32:14 +0200";
layers = (
{
layerId = "ECE8EDD2-0EDB-4EFB-866E-7B25CF44A28E";
name = Bold;
paths = (
{
closed = 1;
nodes = (
"887 1118 LINE",
"887 592 LINE SMOOTH",
"887 461 OFFCURVE",
"868 367 OFFCURVE",
"830 309 CURVE SMOOTH",
"792 252 OFFCURVE",
"731 223 OFFCURVE",
"647 223 CURVE SMOOTH",
"522 223 OFFCURVE",
"465 304 OFFCURVE",
"465 465 CURVE SMOOTH",
"465 1118 LINE",
"160 1118 LINE",
"160 -492 LINE",
"465 -492 LINE",
"465 -172 LINE",
"460 -15 LINE",
"455 70 LINE",
"498 11 OFFCURVE",
"570 -20 OFFCURVE",
"653 -20 CURVE SMOOTH",
"770 -20 OFFCURVE",
"847 37 OFFCURVE",
"903 150 CURVE",
"918 150 LINE",
"961 0 LINE",
"1192 0 LINE",
"1192 1118 LINE"
);
}
);
width = 1352;
}
);
unicode = 03BC;
},
{
glyphname = "alef-hb";
lastChange = "2013-03-07 06:32:14 +0200";
layers = (
{
anchors = (
{
name = bottom;
position = "{665, -152}";
},
{
name = bottomleft;
position = "{20, 0}";
},
{
name = center;
position = "{606, 205}";
},
{
name = top;
position = "{665, 1118}";
},
{
name = topleft;
position = "{133, 1160}";
}
);
layerId = "ECE8EDD2-0EDB-4EFB-866E-7B25CF44A28E";
name = Bold;
paths = (
{
closed = 1;
nodes = (
"904 1289 LINE",
"903 825 LINE SMOOTH",
"903 737 OFFCURVE",
"884 679 OFFCURVE",
"823 651 CURVE",
"698 848 LINE",
"438 1290 LINE",
"92 1290 LINE",
"379 838 LINE",
"143 769 OFFCURVE",
"117 605 OFFCURVE",
"117 461 CURVE SMOOTH",
"117 0 LINE",
"421 0 LINE",
"422 464 LINE SMOOTH",
"422 553 OFFCURVE",
"441 611 OFFCURVE",
"506 639 CURVE",
"890 0 LINE",
"1237 0 LINE",
"949 452 LINE",
"1181 521 OFFCURVE",
"1208 684 OFFCURVE",
"1208 828 CURVE SMOOTH",
"1208 1290 LINE"
);
}
);
width = 1329;
}
);
unicode = 05D0;
},
{
glyphname = "bet-hb";
lastChange = "2013-03-07 06:32:14 +0200";
layers = (
{
anchors = (
{
name = bottom;
position = "{591, -152}";
},
{
name = bottomleft;
position = "{20, 0}";
},
{
name = center;
position = "{382, 665}";
},
{
name = top;
position = "{591, 1118}";
},
{
name = topleft;
position = "{155, 1160}";
}
);
layerId = "ECE8EDD2-0EDB-4EFB-866E-7B25CF44A28E";
name = Bold;
paths = (
{
closed = 1;
nodes = (
"249 1310 OFFCURVE",
"102 1292 OFFCURVE",
"102 1292 CURVE",
"102 1051 LINE",
"102 1051 OFFCURVE",
"282 1075 OFFCURVE",
"427 1075 CURVE SMOOTH",
"572 1075 OFFCURVE",
"681 1020 OFFCURVE",
"681 844 CURVE SMOOTH",
"681 233 LINE",
"681 233 OFFCURVE",
"102 233 OFFCURVE",
"102 233 CURVE SMOOTH",
"102 233 OFFCURVE",
"102 0 OFFCURVE",
"102 0 CURVE SMOOTH",
"102 0 OFFCURVE",
"1134 0 OFFCURVE",
"1134 0 CURVE SMOOTH",
"1134 0 OFFCURVE",
"1134 233 OFFCURVE",
"1134 233 CURVE SMOOTH",
"1134 233 OFFCURVE",
"986 233 OFFCURVE",
"986 233 CURVE",
"986 843 LINE SMOOTH",
"986 1134 OFFCURVE",
"920 1310 OFFCURVE",
"466 1310 CURVE SMOOTH"
);
}
);
width = 1182;
}
);
unicode = 05D1;
},
{
glyphname = "gimel-hb";
lastChange = "2013-03-07 06:32:14 +0200";
layers = (
{
anchors = (
{
name = bottom;
position = "{439, -152}";
},
{
name = bottomleft;
position = "{20, 0}";
},
{
name = center;
position = "{306, 665}";
},
{
name = top;
position = "{476, 1118}";
},
{
name = topleft;
position = "{233, 1160}";
}
);
layerId = "ECE8EDD2-0EDB-4EFB-866E-7B25CF44A28E";
name = Bold;
paths = (
{
closed = 1;
nodes = (
"287 1310 OFFCURVE",
"199 1287 OFFCURVE",
"199 1287 CURVE SMOOTH",
"199 1287 OFFCURVE",
"199 1046 OFFCURVE",
"199 1046 CURVE SMOOTH",
"199 1046 OFFCURVE",
"281 1069 OFFCURVE",
"374 1069 CURVE SMOOTH",
"477 1069 OFFCURVE",
"492 983 OFFCURVE",
"492 908 CURVE SMOOTH",
"492 544 LINE SMOOTH",
"492 420 OFFCURVE",
"426 319 OFFCURVE",
"321 286 CURVE SMOOTH",
"195 246 OFFCURVE",
"91 274 OFFCURVE",
"92 274 CURVE",
"70 -9 LINE",
"70 -9 OFFCURVE",
"120 -20 OFFCURVE",
"171 -20 CURVE SMOOTH",
"404 -20 OFFCURVE",
"506 188 OFFCURVE",
"506 188 CURVE SMOOTH",
"506 188 OFFCURVE",
"521 188 OFFCURVE",
"521 188 CURVE SMOOTH",
"521 188 OFFCURVE",
"566 0 OFFCURVE",
"566 0 CURVE SMOOTH",
"566 0 OFFCURVE",
"797 0 OFFCURVE",
"797 0 CURVE",
"797 908 LINE SMOOTH",
"797 1134 OFFCURVE",
"749 1310 OFFCURVE",
"410 1310 CURVE SMOOTH"
);
}
);
width = 951;
}
);
unicode = 05D2;
},
{
glyphname = "dalet-hb";
lastChange = "2013-03-07 06:32:14 +0200";
layers = (
{
anchors = (
{
name = bottom;
position = "{755, -152}";
},
{
name = bottomleft;
position = "{20, 0}";
},
{
name = center;
position = "{358, 665}";
},
{
name = top;
position = "{561, 1118}";
},
{
name = topleft;
position = "{100, 1160}";
}
);
layerId = "ECE8EDD2-0EDB-4EFB-866E-7B25CF44A28E";
name = Bold;
paths = (
{
closed = 1;
nodes = (
"43 1290 LINE",
"43 1057 LINE",
"744 1057 LINE",
"744 1050 LINE",
"744 1050 OFFCURVE",
"593 1003 OFFCURVE",
"593 808 CURVE SMOOTH",
"593 0 LINE",
"593 0 OFFCURVE",
"898 0 OFFCURVE",
"898 0 CURVE",
"898 801 LINE SMOOTH",
"898 904 OFFCURVE",
"916 971 OFFCURVE",
"986 1022 CURVE SMOOTH",
"1017 1043 OFFCURVE",
"1045 1058 OFFCURVE",
"1074 1069 CURVE",
"1074 1290 LINE"
);
}
);
width = 1121;
}
);
unicode = 05D3;
},
{
glyphname = "he-hb";
lastChange = "2013-03-07 06:32:14 +0200";
layers = (
{
anchors = (
{
name = bottom;
position = "{673, -152}";
},
{
name = bottomleft;
position = "{20, 0}";
},
{
name = center;
position = "{673, 665}";
},
{
name = top;
position = "{673, 1118}";
},
{
name = topleft;
position = "{203, 1160}";
}
);
layerId = "ECE8EDD2-0EDB-4EFB-866E-7B25CF44A28E";
name = Bold;
paths = (
{
closed = 1;
nodes = (
"365 1310 OFFCURVE",
"160 1267 OFFCURVE",
"160 1267 CURVE",
"160 1036 LINE",
"160 1036 OFFCURVE",
"428 1075 OFFCURVE",
"631 1075 CURVE SMOOTH",
"776 1075 OFFCURVE",
"885 1020 OFFCURVE",
"885 844 CURVE SMOOTH",
"885 0 LINE",
"1191 0 LINE",
"1191 843 LINE SMOOTH",
"1191 1134 OFFCURVE",
"1124 1310 OFFCURVE",
"670 1310 CURVE SMOOTH"
);
},
{
closed = 1;
nodes = (
"160 823 LINE",
"160 0 LINE",
"466 0 LINE",
"466 823 LINE"
);
}
);
width = 1345;
}
);
unicode = 05D4;
},
{
glyphname = "vav-hb";
lastChange = "2013-03-07 06:32:14 +0200";
layers = (
{
anchors = (
{
name = bottom;
position = "{313, -152}";
},
{
name = bottomleft;
position = "{20, 0}";
},
{
name = center;
position = "{32, 665}";
},
{
name = top;
position = "{313, 1118}";
},
{
name = topleft;
position = "{248, 1160}";
}
);
layerId = "ECE8EDD2-0EDB-4EFB-866E-7B25CF44A28E";
name = Bold;
paths = (
{
closed = 1;
nodes = (
"160 1290 LINE",
"160 0 LINE",
"465 0 LINE",
"465 1290 LINE"
);
}
);
width = 625;
}
);
unicode = 05D5;
},
{
glyphname = "zayin-hb";
lastChange = "2013-03-07 06:32:14 +0200";
layers = (
{
anchors = (
{
name = bottom;
position = "{319, -152}";
},
{
name = bottomleft;
position = "{20, 0}";
},
{
name = center;
position = "{16, 665}";
},
{
name = top;
position = "{351, 1118}";
},
{
name = topleft;
position = "{169, 1160}";
}
);
layerId = "ECE8EDD2-0EDB-4EFB-866E-7B25CF44A28E";
name = Bold;
paths = (
{
closed = 1;
nodes = (
"112 1290 LINE",
"112 1057 LINE",
"426 1057 LINE",
"426 1050 LINE",
"426 1050 OFFCURVE",
"159 943 OFFCURVE",
"159 434 CURVE SMOOTH",
"159 0 LINE",
"159 0 OFFCURVE",
"464 0 OFFCURVE",
"464 0 CURVE",
"464 434 LINE SMOOTH",
"464 606 OFFCURVE",
"461 780 OFFCURVE",
"563 948 CURVE SMOOTH",
"606 1019 OFFCURVE",
"654 1057 OFFCURVE",
"654 1057 CURVE",
"654 1290 LINE"
);
}
);
width = 701;
}
);
unicode = 05D6;
},
{
glyphname = "het-hb";
lastChange = "2013-03-07 06:32:14 +0200";
layers = (
{
anchors = (
{
name = bottom;
position = "{673, -152}";
},
{
name = bottomleft;
position = "{20, 0}";
},
{
name = center;
position = "{673, 665}";
},
{
name = top;
position = "{673, 1118}";
},
{
name = topleft;
position = "{209, 1160}";
}
);
layerId = "ECE8EDD2-0EDB-4EFB-866E-7B25CF44A28E";
name = Bold;
paths = (
{
closed = 1;
nodes = (
"365 1310 OFFCURVE",
"160 1267 OFFCURVE",
"160 1267 CURVE",
"160 0 LINE",
"466 0 LINE",
"466 1068 LINE",
"521 1072 OFFCURVE",
"578 1075 OFFCURVE",
"631 1075 CURVE SMOOTH",
"776 1075 OFFCURVE",
"885 1020 OFFCURVE",
"885 844 CURVE SMOOTH",
"885 0 LINE",
"1191 0 LINE",
"1191 843 LINE SMOOTH",
"1191 1134 OFFCURVE",
"1124 1310 OFFCURVE",
"670 1310 CURVE SMOOTH"
);
}
);
width = 1345;
}
);
unicode = 05D7;
},
{
glyphname = "tet-hb";
lastChange = "2013-03-07 06:32:14 +0200";
layers = (
{
anchors = (
{
name = bottom;
position = "{682, -152}";
},
{
name = bottomleft;
position = "{20, 0}";
},
{
name = center;
position = "{697, 665}";
},
{
name = top;
position = "{665, 1118}";
},
{
name = topleft;
position = "{203, 1160}";
}
);
layerId = "ECE8EDD2-0EDB-4EFB-866E-7B25CF44A28E";
name = Bold;
paths = (
{
closed = 1;
nodes = (
"710 1310 OFFCURVE",
"637 1288 OFFCURVE",
"637 1288 CURVE",
"637 1063 LINE",
"637 1063 OFFCURVE",
"677 1068 OFFCURVE",
"701 1068 CURVE SMOOTH",
"867 1068 OFFCURVE",
"931 1023 OFFCURVE",
"931 645 CURVE SMOOTH",
"931 343 OFFCURVE",
"849 225 OFFCURVE",
"693 225 CURVE SMOOTH",
"533 225 OFFCURVE",
"461 367 OFFCURVE",
"461 645 CURVE SMOOTH",
"461 845 OFFCURVE",
"461 1288 OFFCURVE",
"461 1288 CURVE SMOOTH",
"461 1288 OFFCURVE",
"154 1288 OFFCURVE",
"154 1288 CURVE SMOOTH",
"154 1288 OFFCURVE",
"154 798 OFFCURVE",
"154 645 CURVE SMOOTH",
"154 214 OFFCURVE",
"388 -20 OFFCURVE",
"683 -20 CURVE SMOOTH",
"1040 -20 OFFCURVE",
"1238 215 OFFCURVE",
"1238 645 CURVE SMOOTH",
"1238 1155 OFFCURVE",
"1095 1310 OFFCURVE",
"793 1310 CURVE SMOOTH"
);
}
);
width = 1330;
}
);
unicode = 05D8;
},
{
glyphname = "yod-hb";
lastChange = "2013-03-07 06:32:14 +0200";
layers = (
{
anchors = (
{
name = bottom;
position = "{296, -152}";
},
{
name = bottomleft;
position = "{20, 0}";
},
{
name = center;
position = "{28, 852}";
},
{
name = top;
position = "{296, 1118}";
},
{
name = topleft;
position = "{211, 1160}";
}
);
layerId = "ECE8EDD2-0EDB-4EFB-866E-7B25CF44A28E";
name = Bold;
paths = (
{
closed = 1;
nodes = (
"147 1290 LINE",
"147 436 LINE",
"249 436 LINE",
"452 694 LINE",
"452 1290 LINE"
);
}
);
width = 592;
}
);
unicode = 05D9;
},
{
glyphname = "finalkaf-hb";
lastChange = "2013-03-07 06:32:14 +0200";
layers = (
{
anchors = (
{
name = bottom;
position = "{185, 185}";
},
{
name = bottomleft;
position = "{20, 0}";
},
{
name = center;
position = "{315, 665}";
},
{
name = top;
position = "{547, 1118}";
},
{
name = topleft;
position = "{100, 1160}";
}
);
layerId = "ECE8EDD2-0EDB-4EFB-866E-7B25CF44A28E";
name = Bold;
paths = (
{
closed = 1;
nodes = (
"262 1310 OFFCURVE",
"132 1299 OFFCURVE",
"43 1288 CURVE",
"43 1053 LINE",
"138 1063 OFFCURVE",
"268 1075 OFFCURVE",
"379 1075 CURVE SMOOTH",
"581 1075 OFFCURVE",
"633 926 OFFCURVE",
"633 750 CURVE SMOOTH",
"633 -492 LINE",
"633 -492 OFFCURVE",
"939 -492 OFFCURVE",
"939 -492 CURVE",
"939 719 LINE SMOOTH",
"939 1010 OFFCURVE",
"824 1310 OFFCURVE",
"418 1310 CURVE SMOOTH"
);
}
);
width = 1093;
}
);
unicode = 05DA;
},
{
glyphname = "kaf-hb";
lastChange = "2013-03-07 06:32:14 +0200";
layers = (
{
anchors = (
{
name = bottom;
position = "{430, -152}";
},
{
name = bottomleft;
position = "{20, 0}";
},
{
name = center;
position = "{348, 665}";
},
{
name = top;
position = "{528, 1118}";
},
{
name = topleft;
position = "{124, 1160}";
}
);
layerId = "ECE8EDD2-0EDB-4EFB-866E-7B25CF44A28E";
name = Bold;
paths = (
{
closed = 1;
nodes = (
"285 1310 OFFCURVE",
"155 1299 OFFCURVE",
"66 1288 CURVE",
"66 1053 LINE",
"161 1063 OFFCURVE",
"291 1075 OFFCURVE",
"402 1075 CURVE SMOOTH",
"604 1075 OFFCURVE",
"656 926 OFFCURVE",
"656 750 CURVE SMOOTH",
"656 540 LINE SMOOTH",
"656 364 OFFCURVE",
"604 226 OFFCURVE",
"402 226 CURVE SMOOTH",
"291 226 OFFCURVE",
"139 237 OFFCURVE",
"66 246 CURVE",
"66 8 LINE",
"155 -9 OFFCURVE",
"285 -20 OFFCURVE",
"441 -20 CURVE SMOOTH",
"877 -20 OFFCURVE",
"962 280 OFFCURVE",
"962 571 CURVE SMOOTH",
"962 719 LINE SMOOTH",
"962 1010 OFFCURVE",
"847 1310 OFFCURVE",
"441 1310 CURVE SMOOTH"
);
}
);
width = 1055;
}
);
unicode = 05DB;
},
{
glyphname = "lamed-hb";
lastChange = "2013-03-07 06:32:14 +0200";
layers = (
{
anchors = (
{
name = bottom;
position = "{606, -152}";
},
{
name = bottomleft;
position = "{20, 0}";
},
{
name = center;
position = "{309, 665}";
},
{
name = top;
position = "{558, 1118}";
},
{
name = topleft;
position = "{-67, 1160}";
}
);
layerId = "ECE8EDD2-0EDB-4EFB-866E-7B25CF44A28E";
name = Bold;
paths = (
{
closed = 1;
nodes = (
"70 1556 LINE",
"70 1057 LINE",
"747 1057 LINE",
"747 1057 OFFCURVE",
"582 479 OFFCURVE",
"582 479 CURVE SMOOTH",
"582 479 OFFCURVE",
"474 0 OFFCURVE",
"474 0 CURVE SMOOTH",
"474 0 OFFCURVE",
"771 0 OFFCURVE",
"771 0 CURVE",
"879 479 LINE",
"1054 1092 LINE",
"1054 1290 LINE",
"375 1290 LINE",
"375 1556 LINE"
);
}
);
width = 1115;
}
);
unicode = 05DC;
},
{
glyphname = "finalmem-hb";
lastChange = "2013-03-07 06:32:14 +0200";
layers = (
{
anchors = (
{
name = bottom;
position = "{673, -152}";
},
{
name = bottomleft;
position = "{20, 0}";
},
{
name = center;
position = "{673, 665}";
},
{
name = top;
position = "{673, 1118}";
},
{
name = topleft;
position = "{212, 1160}";
}
);
layerId = "ECE8EDD2-0EDB-4EFB-866E-7B25CF44A28E";
name = Bold;
paths = (
{
closed = 1;
nodes = (
"365 1310 OFFCURVE",
"160 1267 OFFCURVE",
"160 1267 CURVE",
"160 0 LINE",
"1191 0 LINE",
"1191 931 LINE SMOOTH",
"1191 1194 OFFCURVE",
"1043 1310 OFFCURVE",
"670 1310 CURVE SMOOTH"
);
},
{
closed = 1;
nodes = (
"783 1075 OFFCURVE",
"885 1057 OFFCURVE",
"885 931 CURVE SMOOTH",
"885 233 LINE",
"466 233 LINE",
"466 1068 LINE",
"521 1072 OFFCURVE",
"578 1075 OFFCURVE",
"631 1075 CURVE SMOOTH"
);
}
);
width = 1345;
}
);
unicode = 05DD;
},
{
glyphname = "mem-hb";
lastChange = "2013-03-07 06:32:14 +0200";
layers = (
{
anchors = (
{
name = bottom;
position = "{707, -152}";
},
{
name = bottomleft;
position = "{20, 0}";
},
{
name = center;
position = "{707, 665}";
},
{
name = top;
position = "{707, 1118}";
},
{
name = topleft;
position = "{142, 1160}";
}
);
layerId = "ECE8EDD2-0EDB-4EFB-866E-7B25CF44A28E";
name = Bold;
paths = (
{
closed = 1;
nodes = (
"573 1310 OFFCURVE",
"476 1093 OFFCURVE",
"476 1093 CURVE SMOOTH",
"476 1093 OFFCURVE",
"457 1093 OFFCURVE",
"457 1093 CURVE SMOOTH",
"457 1093 OFFCURVE",
"446 1145 OFFCURVE",
"430 1200 CURVE SMOOTH",
"415 1252 OFFCURVE",
"400 1291 OFFCURVE",
"400 1291 CURVE SMOOTH",
"400 1291 OFFCURVE",
"108 1293 OFFCURVE",
"108 1291 CURVE SMOOTH",
"108 1289 OFFCURVE",
"121 1257 OFFCURVE",
"144 1176 CURVE SMOOTH",
"171 1081 OFFCURVE",
"191 965 OFFCURVE",
"177 819 CURVE SMOOTH",
"102 0 LINE",
"102 0 OFFCURVE",
"400 0 OFFCURVE",
"400 0 CURVE",
"476 860 LINE",
"476 860 OFFCURVE",
"564 1068 OFFCURVE",
"730 1068 CURVE SMOOTH",
"931 1068 OFFCURVE",
"947 864 OFFCURVE",
"947 695 CURVE SMOOTH",
"947 233 LINE",
"947 233 OFFCURVE",
"707 233 OFFCURVE",
"707 233 CURVE SMOOTH",
"707 233 OFFCURVE",
"707 0 OFFCURVE",
"707 0 CURVE SMOOTH",
"707 0 OFFCURVE",
"1259 0 OFFCURVE",
"1259 0 CURVE",
"1259 730 LINE SMOOTH",
"1259 1020 OFFCURVE",
"1179 1310 OFFCURVE",
"861 1310 CURVE SMOOTH"
);
}
);
width = 1413;
}
);
unicode = 05DE;
},
{
glyphname = "finalnun-hb";
lastChange = "2013-03-07 06:32:14 +0200";
layers = (
{
anchors = (
{
name = bottom;
position = "{-276, 188}";
},
{
name = bottomleft;
position = "{20, 0}";
},
{
name = center;
position = "{-45, 665}";
},
{
name = top;
position = "{301, 1118}";
},
{
name = topleft;
position = "{124, 1160}";
}
);
layerId = "ECE8EDD2-0EDB-4EFB-866E-7B25CF44A28E";
name = Bold;
paths = (
{
closed = 1;
nodes = (
"378 1290 OFFCURVE",
"75 1290 OFFCURVE",
"73 1290 CURVE SMOOTH",
"71 1290 OFFCURVE",
"143 1123 OFFCURVE",
"143 825 CURVE SMOOTH",
"143 714 OFFCURVE",
"143 -492 OFFCURVE",
"143 -492 CURVE SMOOTH",
"143 -492 OFFCURVE",
"448 -492 OFFCURVE",
"448 -492 CURVE",
"448 825 LINE SMOOTH",
"448 1123 OFFCURVE",
"376 1290 OFFCURVE",
"378 1290 CURVE"
);
}
);
width = 602;
}
);
unicode = 05DF;
},
{
glyphname = "nun-hb";
lastChange = "2013-03-07 06:32:14 +0200";
layers = (
{
anchors = (
{
name = bottom;
position = "{440, -152}";
},
{
name = bottomleft;
position = "{20, 0}";
},
{
name = center;
position = "{227, 665}";
},
{
name = top;
position = "{440, 1118}";
},
{
name = topleft;
position = "{197, 1160}";
}
);
layerId = "ECE8EDD2-0EDB-4EFB-866E-7B25CF44A28E";
name = Bold;
paths = (
{
closed = 1;
nodes = (
"251 1310 OFFCURVE",
"184 1299 OFFCURVE",
"151 1292 CURVE",
"151 1052 LINE",
"182 1059 OFFCURVE",
"239 1069 OFFCURVE",
"302 1069 CURVE SMOOTH",
"405 1069 OFFCURVE",
"420 983 OFFCURVE",
"420 908 CURVE SMOOTH",
"420 463 LINE",
"420 310 OFFCURVE",
"402 233 OFFCURVE",
"402 233 CURVE",
"92 233 LINE",
"92 0 LINE",
"675 0 LINE",
"675 0 OFFCURVE",
"725 172 OFFCURVE",
"725 383 CURVE",
"725 908 LINE SMOOTH",
"725 1134 OFFCURVE",
"652 1310 OFFCURVE",
"338 1310 CURVE SMOOTH"
);
}
);
width = 879;
}
);
unicode = 05E0;
},
{
glyphname = "samekh-hb";
lastChange = "2013-03-07 06:32:14 +0200";
layers = (
{
anchors = (
{
name = bottom;
position = "{634, -152}";
},
{
name = bottomleft;
position = "{20, 0}";
},
{
name = center;
position = "{634, 665}";
},
{
name = top;
position = "{634, 1118}";
},
{
name = topleft;
position = "{158, 1160}";
}
);
layerId = "ECE8EDD2-0EDB-4EFB-866E-7B25CF44A28E";
name = Bold;
paths = (
{
closed = 1;
nodes = (
"343 1310 OFFCURVE",
"112 1282 OFFCURVE",
"112 1282 CURVE",
"112 1051 LINE",
"244 1060 LINE",
"244 1052 LINE",
"173 986 OFFCURVE",
"92 816 OFFCURVE",
"92 645 CURVE SMOOTH",
"92 224 OFFCURVE",
"300 -20 OFFCURVE",
"637 -20 CURVE SMOOTH",
"967 -20 OFFCURVE",
"1176 224 OFFCURVE",
"1176 645 CURVE SMOOTH",
"1176 1066 OFFCURVE",
"976 1310 OFFCURVE",
"634 1310 CURVE SMOOTH"
);
},
{
closed = 1;
nodes = (
"797 1075 OFFCURVE",
"866 916 OFFCURVE",
"866 645 CURVE SMOOTH",
"866 374 OFFCURVE",
"797 223 OFFCURVE",
"634 223 CURVE SMOOTH",
"471 223 OFFCURVE",
"402 374 OFFCURVE",
"402 645 CURVE SMOOTH",
"402 845 OFFCURVE",
"448 972 OFFCURVE",
"521 1073 CURVE",
"521 1073 OFFCURVE",
"564 1075 OFFCURVE",
"634 1075 CURVE SMOOTH"
);
}
);
width = 1268;
}
);
unicode = 05E1;
},
{
glyphname = "ayin-hb";
lastChange = "2013-03-07 06:32:14 +0200";
layers = (
{
anchors = (
{
name = bottom;
position = "{649, -152}";
},
{
name = bottomleft;
position = "{20, 0}";
},
{
name = center;
position = "{700, 805}";
},
{
name = top;
position = "{649, 1118}";
},
{
name = topleft;
position = "{167, 1160}";
}
);
layerId = "ECE8EDD2-0EDB-4EFB-866E-7B25CF44A28E";
name = Bold;
paths = (
{
closed = 1;
nodes = (
"117 1290 LINE",
"399 225 LINE",
"70 176 LINE",
"70 -60 LINE",
"479 0 LINE SMOOTH",
"1092 105 OFFCURVE",
"1130 557 OFFCURVE",
"1145 729 CURVE SMOOTH",
"1195 1289 LINE",
"893 1289 LINE",
"840 685 LINE SMOOTH",
"823 487 OFFCURVE",
"765 367 OFFCURVE",
"658 299 CURVE",
"578 708 LINE",
"421 1290 LINE"
);
}
);
width = 1297;
}
);
unicode = 05E2;
},
{
glyphname = "finalpe-hb";
lastChange = "2013-03-07 06:32:14 +0200";
layers = (
{
anchors = (
{
name = bottom;
position = "{396, 184}";
},
{
name = bottomleft;
position = "{20, 0}";
},
{
name = center;
position = "{613, 865}";
},
{
name = top;
position = "{655, 1118}";
},
{
name = topleft;
position = "{148, 1160}";
}
);
layerId = "ECE8EDD2-0EDB-4EFB-866E-7B25CF44A28E";
name = Bold;
paths = (
{
closed = 1;
nodes = (
"368 1312 OFFCURVE",
"70 1209 OFFCURVE",
"70 853 CURVE SMOOTH",
"70 484 OFFCURVE",
"339 452 OFFCURVE",
"483 433 CURVE SMOOTH",
"536 426 LINE",
"536 426 OFFCURVE",
"587 654 OFFCURVE",
"587 654 CURVE",
"549 661 LINE SMOOTH",
"505 669 OFFCURVE",
"380 721 OFFCURVE",
"380 864 CURVE SMOOTH",
"380 898 OFFCURVE",
"391 1067 OFFCURVE",
"613 1067 CURVE SMOOTH",
"835 1067 OFFCURVE",
"844 842 OFFCURVE",
"844 646 CURVE",
"844 647 OFFCURVE",
"844 -492 OFFCURVE",
"844 -492 CURVE SMOOTH",
"844 -492 OFFCURVE",
"1155 -492 OFFCURVE",
"1155 -492 CURVE SMOOTH",
"1155 -492 OFFCURVE",
"1155 645 OFFCURVE",
"1155 646 CURVE SMOOTH",
"1155 1201 OFFCURVE",
"858 1312 OFFCURVE",
"613 1312 CURVE SMOOTH"
);
}
);
width = 1309;
}
);
unicode = 05E3;
},
{
glyphname = "pe-hb";
lastChange = "2013-03-07 06:32:14 +0200";
layers = (
{
anchors = (
{
name = bottom;
position = "{635, -152}";
},
{
name = bottomleft;
position = "{20, 0}";
},
{
name = center;
position = "{635, 868}";
},
{
name = top;
position = "{635, 1118}";
},
{
name = topleft;
position = "{173, 1160}";
}
);
layerId = "ECE8EDD2-0EDB-4EFB-866E-7B25CF44A28E";
name = Bold;
paths = (
{
closed = 1;
nodes = (
"390 1310 OFFCURVE",
"92 1209 OFFCURVE",
"92 853 CURVE SMOOTH",
"92 484 OFFCURVE",
"361 452 OFFCURVE",
"505 433 CURVE SMOOTH",
"558 426 LINE",
"558 426 OFFCURVE",
"609 654 OFFCURVE",
"609 654 CURVE",
"571 661 LINE SMOOTH",
"527 669 OFFCURVE",
"402 721 OFFCURVE",
"402 864 CURVE SMOOTH",
"402 898 OFFCURVE",
"413 1067 OFFCURVE",
"635 1067 CURVE SMOOTH",
"857 1067 OFFCURVE",
"866 842 OFFCURVE",
"866 646 CURVE SMOOTH",
"866 450 OFFCURVE",
"857 214 OFFCURVE",
"635 214 CURVE SMOOTH",
"398 214 OFFCURVE",
"168 232 OFFCURVE",
"168 232 CURVE",
"168 8 LINE",
"168 8 OFFCURVE",
"346 -20 OFFCURVE",
"634 -20 CURVE SMOOTH",
"923 -20 OFFCURVE",
"1177 91 OFFCURVE",
"1177 646 CURVE SMOOTH",
"1177 1201 OFFCURVE",
"880 1310 OFFCURVE",
"635 1310 CURVE SMOOTH"
);
}
);
width = 1269;
}
);
unicode = 05E4;
},
{
glyphname = "finaltsadi-hb";
lastChange = "2013-03-07 06:32:14 +0200";
layers = (
{
anchors = (
{
name = bottom;
position = "{-112, 188}";
},
{
name = bottomleft;
position = "{20, 0}";
},
{
name = center;
position = "{630, 968}";
},
{
name = top;
position = "{587, 1118}";
},
{
name = topleft;
position = "{79, 1160}";
}
);
layerId = "ECE8EDD2-0EDB-4EFB-866E-7B25CF44A28E";
name = Bold;
paths = (
{
closed = 1;
nodes = (
"766 1290 LINE",
"766 825 LINE SMOOTH",
"766 694 OFFCURVE",
"722 643 OFFCURVE",
"617 643 CURVE SMOOTH",
"604 643 OFFCURVE",
"584 644 OFFCURVE",
"564 646 CURVE",
"561 661 LINE",
"342 1290 LINE",
"8 1290 LINE",
"293 577 LINE",
"293 -492 LINE",
"598 -492 LINE",
"598 440 LINE",
"622 437 OFFCURVE",
"649 435 OFFCURVE",
"679 435 CURVE SMOOTH",
"996 435 OFFCURVE",
"1071 640 OFFCURVE",
"1071 828 CURVE SMOOTH",
"1071 1290 LINE"
);
}
);
width = 1173;
}
);
unicode = 05E5;
},
{
glyphname = "tsadi-hb";
lastChange = "2013-03-07 06:32:14 +0200";
layers = (
{
anchors = (
{
name = bottom;
position = "{585, -152}";
},
{
name = bottomleft;
position = "{20, 0}";
},
{
name = center;
position = "{270, 520}";
},
{
name = top;
position = "{637, 1118}";
},
{
name = topleft;
position = "{121, 1160}";
}
);
layerId = "ECE8EDD2-0EDB-4EFB-866E-7B25CF44A28E";
name = Bold;
paths = (
{
closed = 1;
nodes = (
"65 1290 LINE",
"520 573 LINE",
"801 223 LINE",
"801 219 LINE",
"573 233 LINE",
"75 233 LINE",
"75 0 LINE",
"1177 0 LINE",
"1177 176 LINE",
"920 505 LINE",
"1129 683 OFFCURVE",
"1150 933 OFFCURVE",
"1161 1051 CURVE SMOOTH",
"1182 1289 LINE",
"880 1289 LINE",
"856 1007 LINE SMOOTH",
"844 876 OFFCURVE",
"816 779 OFFCURVE",
"767 709 CURVE",
"407 1290 LINE"
);
}
);
width = 1274;
}
);
unicode = 05E6;
},
{
glyphname = "qof-hb";
lastChange = "2013-03-07 06:32:14 +0200";
layers = (
{
anchors = (
{
name = bottom;
position = "{812, -152}";
},
{
name = bottomleft;
position = "{20, 0}";
},
{
name = center;
position = "{615, 665}";
},
{
name = top;
position = "{642, 1118}";
},
{
name = topleft;
position = "{205, 1160}";
}
);
layerId = "ECE8EDD2-0EDB-4EFB-866E-7B25CF44A28E";
name = Bold;
paths = (
{
closed = 1;
nodes = (
"160 1290 LINE",
"160 1057 LINE",
"915 1057 LINE",
"715 505 LINE SMOOTH",
"661 357 OFFCURVE",
"625 133 OFFCURVE",
"625 34 CURVE SMOOTH",
"625 0 LINE",
"928 0 LINE",
"928 34 LINE SMOOTH",
"928 150 OFFCURVE",
"962 327 OFFCURVE",
"1032 517 CURVE SMOOTH",
"1249 1106 LINE",
"1249 1290 LINE"
);
},
{
closed = 1;
nodes = (
"161 772 LINE",
"161 -493 LINE",
"161 -493 OFFCURVE",
"444 -493 OFFCURVE",
"444 -493 CURVE",
"444 772 LINE"
);
}
);
width = 1310;
}
);
unicode = 05E7;
},
{
glyphname = "resh-hb";
lastChange = "2013-03-07 06:32:14 +0200";
layers = (
{
anchors = (
{
name = bottom;
position = "{767, -152}";
},
{
name = bottomleft;
position = "{20, 0}";
},
{
name = center;
position = "{324, 665}";
},
{
name = top;
position = "{541, 1118}";
},
{
name = topleft;
position = "{109, 1160}";
}
);
layerId = "ECE8EDD2-0EDB-4EFB-866E-7B25CF44A28E";
name = Bold;
paths = (
{
closed = 1;
nodes = (
"257 1310 OFFCURVE",
"132 1299 OFFCURVE",
"43 1289 CURVE",
"43 1054 LINE",
"137 1064 OFFCURVE",
"261 1075 OFFCURVE",
"368 1075 CURVE SMOOTH",
"513 1075 OFFCURVE",
"622 1020 OFFCURVE",
"622 844 CURVE SMOOTH",
"622 0 LINE",
"928 0 LINE",
"928 843 LINE SMOOTH",
"928 1134 OFFCURVE",
"861 1310 OFFCURVE",
"407 1310 CURVE SMOOTH"
);
}
);
width = 1082;
}
);
unicode = 05E8;
},
{
glyphname = "shin-hb";
lastChange = "2013-03-07 06:32:14 +0200";
layers = (
{
anchors = (
{
name = bottom;
position = "{645, -152}";
},
{
name = bottomleft;
position = "{20, 0}";
},
{
name = center;
position = "{906, 413}";
},
{
name = top;
position = "{803, 1160}";
},
{
name = topleft;
position = "{145, 1160}";
},
{
name = topright;
position = "{1585, 1160}";
}
);
layerId = "ECE8EDD2-0EDB-4EFB-866E-7B25CF44A28E";
name = Bold;
paths = (
{
closed = 1;
nodes = (
"1223 1290 LINE",
"1175 721 LINE SMOOTH",
"1151 431 OFFCURVE",
"1040 233 OFFCURVE",
"809 233 CURVE SMOOTH",
"483 233 LINE",
"466 437 LINE",
"484 436 OFFCURVE",
"502 435 OFFCURVE",
"523 435 CURVE SMOOTH",
"841 435 OFFCURVE",
"918 640 OFFCURVE",
"933 828 CURVE SMOOTH",
"970 1290 LINE",
"680 1290 LINE",
"642 825 LINE SMOOTH",
"631 694 OFFCURVE",
"583 643 OFFCURVE",
"478 643 CURVE SMOOTH",
"470 643 OFFCURVE",
"460 643 OFFCURVE",
"448 644 CURVE",
"394 1290 LINE",
"102 1290 LINE",
"211 0 LINE",
"795 0 LINE SMOOTH",
"1417 0 OFFCURVE",
"1452 557 OFFCURVE",
"1467 729 CURVE SMOOTH",
"1515 1290 LINE"
);
}
);
width = 1605;
}
);
unicode = 05E9;
},
{
glyphname = "tav-hb";
lastChange = "2013-03-07 06:32:14 +0200";
layers = (
{
anchors = (
{
name = bottom;
position = "{718, -152}";
},
{
name = bottomleft;
position = "{20, 0}";
},
{
name = center;
position = "{788, 665}";
},
{
name = top;
position = "{718, 1118}";
},
{
name = topleft;
position = "{200, 1160}";
}
);
layerId = "ECE8EDD2-0EDB-4EFB-866E-7B25CF44A28E";
name = Bold;
paths = (
{
closed = 1;
nodes = (
"455 1310 OFFCURVE",
"149 1267 OFFCURVE",
"149 1267 CURVE",
"149 1036 LINE",
"149 1036 OFFCURVE",
"209 1042 OFFCURVE",
"294 1050 CURVE",
"294 382 LINE SMOOTH",
"294 306 OFFCURVE",
"279 221 OFFCURVE",
"176 221 CURVE SMOOTH",
"137 221 OFFCURVE",
"70 239 OFFCURVE",
"70 239 CURVE",
"70 7 LINE",
"70 7 OFFCURVE",
"124 -20 OFFCURVE",
"212 -20 CURVE SMOOTH",
"526 -20 OFFCURVE",
"599 156 OFFCURVE",
"599 382 CURVE SMOOTH",
"599 1072 LINE",
"643 1074 OFFCURVE",
"684 1075 OFFCURVE",
"721 1075 CURVE SMOOTH",
"866 1075 OFFCURVE",
"974 1020 OFFCURVE",
"974 844 CURVE SMOOTH",
"974 0 LINE",
"1281 0 LINE",
"1281 843 LINE SMOOTH",
"1281 1134 OFFCURVE",
"1214 1310 OFFCURVE",
"760 1310 CURVE SMOOTH"
);
}
);
width = 1435;
}
);
unicode = 05EA;
},
{
glyphname = zero;
lastChange = "2013-03-07 06:32:14 +0200";
layers = (
{
layerId = "ECE8EDD2-0EDB-4EFB-866E-7B25CF44A28E";
name = Bold;
paths = (
{
closed = 1;
nodes = (
"237 1485 OFFCURVE",
"74 1247 OFFCURVE",
"74 731 CURVE SMOOTH",
"74 236 OFFCURVE",
"247 -20 OFFCURVE",
"584 -20 CURVE SMOOTH",
"932 -20 OFFCURVE",
"1096 220 OFFCURVE",
"1096 731 CURVE SMOOTH",
"1096 1224 OFFCURVE",
"921 1485 OFFCURVE",
"584 1485 CURVE SMOOTH"
);
},
{
closed = 1;
nodes = (
"655 1235 OFFCURVE",
"707 1196 OFFCURVE",
"739 1117 CURVE SMOOTH",
"772 1039 OFFCURVE",
"788 910 OFFCURVE",
"788 731 CURVE SMOOTH",
"788 554 OFFCURVE",
"772 426 OFFCURVE",
"740 347 CURVE SMOOTH",
"708 268 OFFCURVE",
"656 229 OFFCURVE",
"584 229 CURVE SMOOTH",
"511 229 OFFCURVE",
"458 268 OFFCURVE",
"427 345 CURVE SMOOTH",
"396 423 OFFCURVE",
"381 552 OFFCURVE",
"381 731 CURVE SMOOTH",
"381 910 OFFCURVE",
"397 1039 OFFCURVE",
"428 1117 CURVE SMOOTH",
"459 1196 OFFCURVE",
"511 1235 OFFCURVE",
"584 1235 CURVE SMOOTH"
);
}
);
width = 1169;
}
);
unicode = 0030;
},
{
glyphname = one;
lastChange = "2013-03-07 06:32:14 +0200";
layers = (
{
layerId = "ECE8EDD2-0EDB-4EFB-866E-7B25CF44A28E";
name = Bold;
paths = (
{
closed = 1;
nodes = (
"592 1462 LINE",
"121 1087 LINE",
"270 901 LINE",
"438 1036 LINE SMOOTH",
"458 1052 OFFCURVE",
"494 1086 OFFCURVE",
"545 1137 CURVE",
"540 984 LINE",
"537 846 LINE",
"537 0 LINE",
"846 0 LINE",
"846 1462 LINE"
);
}
);
width = 1169;
}
);
unicode = 0031;
},
{
glyphname = two;
lastChange = "2013-03-07 06:32:14 +0200";
layers = (
{
layerId = "ECE8EDD2-0EDB-4EFB-866E-7B25CF44A28E";
name = Bold;
paths = (
{
closed = 1;
nodes = (
"461 1483 OFFCURVE",
"352 1455 OFFCURVE",
"257 1404 CURVE SMOOTH",
"210 1379 OFFCURVE",
"150 1335 OFFCURVE",
"78 1274 CURVE",
"246 1075 LINE",
"362 1171 OFFCURVE",
"465 1225 OFFCURVE",
"578 1225 CURVE SMOOTH",
"686 1225 OFFCURVE",
"756 1168 OFFCURVE",
"756 1051 CURVE SMOOTH",
"756 971 OFFCURVE",
"729 904 OFFCURVE",
"662 817 CURVE SMOOTH",
"629 774 OFFCURVE",
"558 697 OFFCURVE",
"449 586 CURVE SMOOTH",
"82 215 LINE",
"82 0 LINE",
"1104 0 LINE",
"1104 260 LINE",
"467 260 LINE",
"467 274 LINE",
"655 451 LINE SMOOTH",
"780 566 OFFCURVE",
"868 654 OFFCURVE",
"917 716 CURVE SMOOTH",
"967 778 OFFCURVE",
"1004 838 OFFCURVE",
"1027 897 CURVE SMOOTH",
"1051 956 OFFCURVE",
"1063 1020 OFFCURVE",
"1063 1087 CURVE SMOOTH",
"1066 1318 OFFCURVE",
"873 1486 OFFCURVE",
"600 1483 CURVE SMOOTH"
);
}
);
width = 1169;
}
);
unicode = 0032;
},
{
glyphname = three;
lastChange = "2013-03-07 06:32:14 +0200";
layers = (
{
layerId = "ECE8EDD2-0EDB-4EFB-866E-7B25CF44A28E";
name = Bold;
paths = (
{
closed = 1;
nodes = (
"372 1483 OFFCURVE",
"213 1435 OFFCURVE",
"80 1339 CURVE",
"223 1126 LINE",
"344 1205 OFFCURVE",
"439 1233 OFFCURVE",
"535 1233 CURVE SMOOTH",
"674 1233 OFFCURVE",
"743 1178 OFFCURVE",
"743 1067 CURVE SMOOTH",
"743 923 OFFCURVE",
"643 870 OFFCURVE",
"416 870 CURVE SMOOTH",
"303 870 LINE",
"303 633 LINE",
"414 633 LINE SMOOTH",
"659 633 OFFCURVE",
"766 581 OFFCURVE",
"766 444 CURVE SMOOTH",
"766 291 OFFCURVE",
"671 225 OFFCURVE",
"467 225 CURVE SMOOTH",
"334 225 OFFCURVE",
"191 265 OFFCURVE",
"78 322 CURVE",
"78 59 LINE",
"201 6 OFFCURVE",
"341 -20 OFFCURVE",
"500 -20 CURVE SMOOTH",
"689 -20 OFFCURVE",
"835 19 OFFCURVE",
"937 96 CURVE SMOOTH",
"1039 176 OFFCURVE",
"1090 285 OFFCURVE",
"1090 426 CURVE SMOOTH",
"1090 619 OFFCURVE",
"967 735 OFFCURVE",
"731 764 CURVE",
"731 770 LINE",
"931 818 OFFCURVE",
"1047 952 OFFCURVE",
"1047 1135 CURVE SMOOTH",
"1047 1244 OFFCURVE",
"1003 1330 OFFCURVE",
"915 1391 CURVE SMOOTH",
"828 1452 OFFCURVE",
"708 1483 OFFCURVE",
"557 1483 CURVE SMOOTH"
);
}
);
width = 1169;
}
);
unicode = 0033;
},
{
glyphname = four;
lastChange = "2013-03-07 06:32:14 +0200";
layers = (
{
layerId = "ECE8EDD2-0EDB-4EFB-866E-7B25CF44A28E";
name = Bold;
paths = (
{
closed = 1;
nodes = (
"676 1462 LINE",
"35 518 LINE",
"35 303 LINE",
"659 303 LINE",
"659 0 LINE",
"961 0 LINE",
"961 303 LINE",
"1137 303 LINE",
"1137 543 LINE",
"961 543 LINE",
"961 1462 LINE"
);
},
{
closed = 1;
nodes = (
"670 1095 OFFCURVE",
"667 1050 OFFCURVE",
"664 970 CURVE SMOOTH",
"661 892 OFFCURVE",
"659 832 OFFCURVE",
"659 791 CURVE SMOOTH",
"659 543 LINE",
"307 543 LINE",
"575 948 LINE SMOOTH",
"610 999 OFFCURVE",
"639 1053 OFFCURVE",
"664 1108 CURVE",
"672 1108 LINE"
);
}
);
width = 1169;
}
);
unicode = 0034;
},
{
glyphname = five;
lastChange = "2013-03-07 06:32:14 +0200";
layers = (
{
layerId = "ECE8EDD2-0EDB-4EFB-866E-7B25CF44A28E";
name = Bold;
paths = (
{
closed = 1;
nodes = (
"184 1462 LINE",
"129 717 LINE",
"252 651 LINE",
"279 659 OFFCURVE",
"313 666 OFFCURVE",
"356 673 CURVE SMOOTH",
"399 680 OFFCURVE",
"438 684 OFFCURVE",
"473 684 CURVE SMOOTH",
"668 684 OFFCURVE",
"766 610 OFFCURVE",
"766 463 CURVE SMOOTH",
"766 308 OFFCURVE",
"672 231 OFFCURVE",
"483 231 CURVE SMOOTH",
"420 231 OFFCURVE",
"354 240 OFFCURVE",
"284 257 CURVE SMOOTH",
"214 275 OFFCURVE",
"153 298 OFFCURVE",
"99 326 CURVE",
"99 59 LINE",
"200 6 OFFCURVE",
"331 -20 OFFCURVE",
"494 -20 CURVE SMOOTH",
"681 -20 OFFCURVE",
"825 24 OFFCURVE",
"926 112 CURVE SMOOTH",
"1027 200 OFFCURVE",
"1077 326 OFFCURVE",
"1077 489 CURVE SMOOTH",
"1077 627 OFFCURVE",
"1035 736 OFFCURVE",
"951 815 CURVE SMOOTH",
"868 894 OFFCURVE",
"755 934 OFFCURVE",
"614 934 CURVE SMOOTH",
"554 934 OFFCURVE",
"504 929 OFFCURVE",
"463 920 CURVE SMOOTH",
"428 913 LINE",
"455 1200 LINE",
"976 1200 LINE",
"976 1462 LINE"
);
}
);
width = 1169;
}
);
unicode = 0035;
},
{
glyphname = six;
lastChange = "2013-03-07 06:32:14 +0200";
layers = (
{
layerId = "ECE8EDD2-0EDB-4EFB-866E-7B25CF44A28E";
name = Bold;
paths = (
{
closed = 1;
nodes = (
"317 1479 OFFCURVE",
"72 1200 OFFCURVE",
"72 621 CURVE SMOOTH",
"69 215 OFFCURVE",
"283 -22 OFFCURVE",
"606 -20 CURVE SMOOTH",
"762 -20 OFFCURVE",
"884 25 OFFCURVE",
"971 116 CURVE SMOOTH",
"1060 207 OFFCURVE",
"1104 331 OFFCURVE",
"1104 487 CURVE SMOOTH",
"1104 632 OFFCURVE",
"1067 745 OFFCURVE",
"992 827 CURVE SMOOTH",
"919 909 OFFCURVE",
"817 950 OFFCURVE",
"686 950 CURVE SMOOTH",
"541 950 OFFCURVE",
"435 893 OFFCURVE",
"369 780 CURVE",
"356 780 LINE",
"362 895 OFFCURVE",
"382 983 OFFCURVE",
"415 1047 CURVE SMOOTH",
"448 1110 OFFCURVE",
"498 1157 OFFCURVE",
"565 1189 CURVE SMOOTH",
"632 1221 OFFCURVE",
"719 1237 OFFCURVE",
"825 1237 CURVE SMOOTH",
"883 1237 OFFCURVE",
"942 1230 OFFCURVE",
"1001 1217 CURVE",
"1001 1464 LINE",
"954 1474 OFFCURVE",
"888 1479 OFFCURVE",
"805 1479 CURVE SMOOTH"
);
},
{
closed = 1;
nodes = (
"739 713 OFFCURVE",
"805 626 OFFCURVE",
"805 483 CURVE SMOOTH",
"805 319 OFFCURVE",
"732 227 OFFCURVE",
"600 227 CURVE SMOOTH",
"536 227 OFFCURVE",
"483 254 OFFCURVE",
"441 309 CURVE SMOOTH",
"400 364 OFFCURVE",
"379 431 OFFCURVE",
"379 510 CURVE SMOOTH",
"379 564 OFFCURVE",
"401 611 OFFCURVE",
"445 652 CURVE SMOOTH",
"490 693 OFFCURVE",
"543 713 OFFCURVE",
"606 713 CURVE SMOOTH"
);
}
);
width = 1169;
}
);
unicode = 0036;
},
{
glyphname = seven;
lastChange = "2013-03-07 06:32:14 +0200";
layers = (
{
layerId = "ECE8EDD2-0EDB-4EFB-866E-7B25CF44A28E";
name = Bold;
paths = (
{
closed = 1;
nodes = (
"55 1460 LINE",
"55 1200 LINE",
"776 1200 LINE",
"227 0 LINE",
"551 0 LINE",
"1104 1266 LINE",
"1104 1460 LINE"
);
}
);
width = 1169;
}
);
unicode = 0037;
},
{
glyphname = eight;
lastChange = "2013-03-07 06:32:14 +0200";
layers = (
{
layerId = "ECE8EDD2-0EDB-4EFB-866E-7B25CF44A28E";
name = Bold;
paths = (
{
closed = 1;
nodes = (
"447 1481 OFFCURVE",
"334 1449 OFFCURVE",
"247 1384 CURVE SMOOTH",
"160 1319 OFFCURVE",
"117 1235 OFFCURVE",
"117 1130 CURVE SMOOTH",
"117 986 OFFCURVE",
"185 869 OFFCURVE",
"352 764 CURVE",
"156 665 OFFCURVE",
"72 538 OFFCURVE",
"72 371 CURVE SMOOTH",
"72 246 OFFCURVE",
"118 150 OFFCURVE",
"209 82 CURVE SMOOTH",
"300 14 OFFCURVE",
"426 -20 OFFCURVE",
"586 -20 CURVE SMOOTH",
"739 -20 OFFCURVE",
"863 16 OFFCURVE",
"957 89 CURVE SMOOTH",
"1051 162 OFFCURVE",
"1098 259 OFFCURVE",
"1098 379 CURVE SMOOTH",
"1098 531 OFFCURVE",
"1010 655 OFFCURVE",
"791 772 CURVE",
"974 864 OFFCURVE",
"1053 978 OFFCURVE",
"1053 1128 CURVE SMOOTH",
"1053 1236 OFFCURVE",
"1010 1322 OFFCURVE",
"924 1385 CURVE SMOOTH",
"839 1449 OFFCURVE",
"726 1481 OFFCURVE",
"586 1481 CURVE SMOOTH"
);
},
{
closed = 1;
nodes = (
"740 549 OFFCURVE",
"811 476 OFFCURVE",
"811 387 CURVE SMOOTH",
"811 279 OFFCURVE",
"735 207 OFFCURVE",
"582 207 CURVE SMOOTH",
"443 207 OFFCURVE",
"358 274 OFFCURVE",
"358 389 CURVE SMOOTH",
"358 489 OFFCURVE",
"429 572 OFFCURVE",
"571 637 CURVE"
);
},
{
closed = 1;
nodes = (
"688 1255 OFFCURVE",
"762 1198 OFFCURVE",
"762 1106 CURVE SMOOTH",
"762 1022 OFFCURVE",
"717 962 OFFCURVE",
"586 901 CURVE",
"519 934 OFFCURVE",
"472 967 OFFCURVE",
"446 997 CURVE",
"421 1030 OFFCURVE",
"408 1066 OFFCURVE",
"408 1106 CURVE SMOOTH",
"408 1197 OFFCURVE",
"479 1255 OFFCURVE",
"584 1255 CURVE SMOOTH"
);
}
);
width = 1169;
}
);
unicode = 0038;
},
{
glyphname = nine;
lastChange = "2013-03-07 06:32:14 +0200";
layers = (
{
layerId = "ECE8EDD2-0EDB-4EFB-866E-7B25CF44A28E";
name = Bold;
paths = (
{
closed = 1;
nodes = (
"410 1479 OFFCURVE",
"288 1433 OFFCURVE",
"199 1342 CURVE SMOOTH",
"110 1251 OFFCURVE",
"66 1128 OFFCURVE",
"66 970 CURVE SMOOTH",
"66 826 OFFCURVE",
"103 712 OFFCURVE",
"176 630 CURVE SMOOTH",
"249 549 OFFCURVE",
"350 508 OFFCURVE",
"477 508 CURVE SMOOTH",
"553 508 OFFCURVE",
"616 521 OFFCURVE",
"667 546 CURVE SMOOTH",
"718 571 OFFCURVE",
"762 615 OFFCURVE",
"801 678 CURVE",
"813 678 LINE",
"802 450 OFFCURVE",
"732 327 OFFCURVE",
"599 266 CURVE SMOOTH",
"532 236 OFFCURVE",
"447 221 OFFCURVE",
"344 221 CURVE SMOOTH",
"283 221 OFFCURVE",
"224 228 OFFCURVE",
"168 242 CURVE",
"168 -6 LINE",
"213 -15 OFFCURVE",
"278 -20 OFFCURVE",
"365 -20 CURVE SMOOTH",
"857 -20 OFFCURVE",
"1098 262 OFFCURVE",
"1098 838 CURVE SMOOTH",
"1102 1238 OFFCURVE",
"887 1482 OFFCURVE",
"563 1479 CURVE SMOOTH"
);
},
{
closed = 1;
nodes = (
"634 1231 OFFCURVE",
"687 1204 OFFCURVE",
"728 1149 CURVE SMOOTH",
"770 1094 OFFCURVE",
"791 1027 OFFCURVE",
"791 948 CURVE SMOOTH",
"791 895 OFFCURVE",
"769 847 OFFCURVE",
"724 806 CURVE SMOOTH",
"679 765 OFFCURVE",
"626 745 OFFCURVE",
"563 745 CURVE SMOOTH",
"430 745 OFFCURVE",
"365 834 OFFCURVE",
"365 974 CURVE SMOOTH",
"365 1140 OFFCURVE",
"441 1231 OFFCURVE",
"569 1231 CURVE SMOOTH"
);
}
);
width = 1169;
}
);
unicode = 0039;
},
{
glyphname = onehalf;
lastChange = "2013-03-07 06:32:14 +0200";
layers = (
{
layerId = "ECE8EDD2-0EDB-4EFB-866E-7B25CF44A28E";
name = Bold;
paths = (
{
closed = 1;
nodes = (
"1131 1462 LINE",
"320 0 LINE",
"559 0 LINE",
"1370 1462 LINE"
);
},
{
closed = 1;
nodes = (
"347 1462 LINE",
"46 1227 LINE",
"155 1100 LINE",
"233 1161 LINE",
"265 1189 OFFCURVE",
"290 1215 OFFCURVE",
"308 1239 CURVE",
"303 1144 LINE",
"300 1032 LINE",
"300 586 LINE",
"538 586 LINE",
"538 1462 LINE"
);
},
{
closed = 1;
nodes = (
"1271 898 OFFCURVE",
"1159 855 OFFCURVE",
"1061 769 CURVE",
"1184 617 LINE",
"1250 676 OFFCURVE",
"1310 705 OFFCURVE",
"1364 705 CURVE SMOOTH",
"1417 705 OFFCURVE",
"1452 678 OFFCURVE",
"1452 627 CURVE SMOOTH",
"1452 594 OFFCURVE",
"1442 562 OFFCURVE",
"1423 532 CURVE SMOOTH",
"1404 503 OFFCURVE",
"1361 455 OFFCURVE",
"1293 388 CURVE SMOOTH",
"1069 169 LINE",
"1069 0 LINE",
"1716 0 LINE",
"1716 201 LINE",
"1364 201 LINE",
"1469 296 LINE SMOOTH",
"1555 374 OFFCURVE",
"1614 438 OFFCURVE",
"1645 488 CURVE SMOOTH",
"1676 538 OFFCURVE",
"1692 591 OFFCURVE",
"1692 648 CURVE SMOOTH",
"1692 726 OFFCURVE",
"1666 787 OFFCURVE",
"1613 831 CURVE SMOOTH",
"1560 876 OFFCURVE",
"1488 898 OFFCURVE",
"1397 898 CURVE SMOOTH"
);
}
);
width = 1804;
}
);
unicode = 00BD;
},
{
glyphname = onequarter;
lastChange = "2013-03-07 06:32:14 +0200";
layers = (
{
layerId = "ECE8EDD2-0EDB-4EFB-866E-7B25CF44A28E";
name = Bold;
paths = (
{
closed = 1;
nodes = (
"1131 1462 LINE",
"320 0 LINE",
"559 0 LINE",
"1370 1462 LINE"
);
},
{
closed = 1;
nodes = (
"347 1462 LINE",
"46 1227 LINE",
"155 1100 LINE",
"233 1161 LINE",
"265 1189 OFFCURVE",
"290 1215 OFFCURVE",
"308 1239 CURVE",
"303 1144 LINE",
"300 1032 LINE",
"300 586 LINE",
"538 586 LINE",
"538 1462 LINE"
);
},
{
closed = 1;
nodes = (
"1321 603 OFFCURVE",
"1319 541 OFFCURVE",
"1319 484 CURVE SMOOTH",
"1319 320 LINE",
"1121 320 LINE",
"1248 511 LINE SMOOTH",
"1258 526 OFFCURVE",
"1272 552 OFFCURVE",
"1289 588 CURVE SMOOTH",
"1307 624 OFFCURVE",
"1319 651 OFFCURVE",
"1325 668 CURVE"
);
},
{
closed = 1;
nodes = (
"1321 883 LINE",
"936 306 LINE",
"936 152 LINE",
"1319 152 LINE",
"1319 0 LINE",
"1557 0 LINE",
"1557 152 LINE",
"1682 152 LINE",
"1682 320 LINE",
"1557 320 LINE",
"1557 883 LINE"
);
}
);
width = 1804;
}
);
unicode = 00BC;
},
{
glyphname = threequarters;
lastChange = "2013-03-07 06:32:14 +0200";
layers = (
{
layerId = "ECE8EDD2-0EDB-4EFB-866E-7B25CF44A28E";
name = Bold;
paths = (
{
closed = 1;
nodes = (
"1202 1462 LINE",
"391 0 LINE",
"630 0 LINE",
"1441 1462 LINE"
);
},
{
closed = 1;
nodes = (
"271 1481 OFFCURVE",
"175 1435 OFFCURVE",
"92 1372 CURVE",
"193 1231 LINE",
"269 1284 OFFCURVE",
"318 1309 OFFCURVE",
"381 1309 CURVE SMOOTH",
"449 1309 OFFCURVE",
"482 1272 OFFCURVE",
"482 1221 CURVE SMOOTH",
"482 1145 OFFCURVE",
"429 1112 OFFCURVE",
"318 1112 CURVE SMOOTH",
"226 1112 LINE",
"226 952 LINE",
"338 952 LINE SMOOTH",
"442 952 OFFCURVE",
"504 917 OFFCURVE",
"504 846 CURVE SMOOTH",
"504 775 OFFCURVE",
"456 739 OFFCURVE",
"361 739 CURVE SMOOTH",
"279 739 OFFCURVE",
"189 769 OFFCURVE",
"90 829 CURVE",
"90 639 LINE",
"177 592 OFFCURVE",
"268 569 OFFCURVE",
"363 569 CURVE SMOOTH",
"611 569 OFFCURVE",
"725 668 OFFCURVE",
"725 829 CURVE SMOOTH",
"725 934 OFFCURVE",
"652 1011 OFFCURVE",
"527 1038 CURVE",
"527 1051 LINE",
"640 1088 OFFCURVE",
"697 1154 OFFCURVE",
"697 1249 CURVE SMOOTH",
"697 1318 OFFCURVE",
"670 1374 OFFCURVE",
"616 1417 CURVE SMOOTH",
"562 1460 OFFCURVE",
"493 1481 OFFCURVE",
"408 1481 CURVE SMOOTH"
);
},
{
closed = 1;
nodes = (
"1351 603 OFFCURVE",
"1349 541 OFFCURVE",
"1349 484 CURVE SMOOTH",
"1349 320 LINE",
"1151 320 LINE",
"1278 511 LINE SMOOTH",
"1288 526 OFFCURVE",
"1302 552 OFFCURVE",
"1319 588 CURVE SMOOTH",
"1337 624 OFFCURVE",
"1349 651 OFFCURVE",
"1355 668 CURVE"
);
},
{
closed = 1;
nodes = (
"1351 883 LINE",
"966 306 LINE",
"966 152 LINE",
"1349 152 LINE",
"1349 0 LINE",
"1587 0 LINE",
"1587 152 LINE",
"1712 152 LINE",
"1712 320 LINE",
"1587 320 LINE",
"1587 883 LINE"
);
}
);
width = 1804;
}
);
unicode = 00BE;
},
{
glyphname = onesuperior;
lastChange = "2013-03-07 06:32:14 +0200";
layers = (
{
layerId = "ECE8EDD2-0EDB-4EFB-866E-7B25CF44A28E";
name = Bold;
paths = (
{
closed = 1;
nodes = (
"393 1462 LINE",
"92 1227 LINE",
"201 1100 LINE",
"279 1161 LINE",
"311 1189 OFFCURVE",
"336 1215 OFFCURVE",
"354 1239 CURVE",
"349 1144 LINE",
"346 1032 LINE",
"346 586 LINE",
"584 586 LINE",
"584 1462 LINE"
);
}
);
width = 776;
}
);
unicode = 00B9;
},
{
glyphname = twosuperior;
lastChange = "2013-03-07 06:32:14 +0200";
layers = (
{
layerId = "ECE8EDD2-0EDB-4EFB-866E-7B25CF44A28E";
name = Bold;
paths = (
{
closed = 1;
nodes = (
"257 1483 OFFCURVE",
"145 1440 OFFCURVE",
"47 1354 CURVE",
"170 1202 LINE",
"236 1261 OFFCURVE",
"296 1290 OFFCURVE",
"350 1290 CURVE SMOOTH",
"403 1290 OFFCURVE",
"438 1263 OFFCURVE",
"438 1212 CURVE SMOOTH",
"438 1179 OFFCURVE",
"428 1147 OFFCURVE",
"409 1117 CURVE SMOOTH",
"390 1088 OFFCURVE",
"347 1040 OFFCURVE",
"279 972 CURVE SMOOTH",
"55 754 LINE",
"55 586 LINE",
"702 586 LINE",
"702 786 LINE",
"350 786 LINE",
"455 881 LINE SMOOTH",
"541 959 OFFCURVE",
"600 1023 OFFCURVE",
"631 1073 CURVE SMOOTH",
"662 1123 OFFCURVE",
"678 1176 OFFCURVE",
"678 1233 CURVE SMOOTH",
"678 1311 OFFCURVE",
"652 1372 OFFCURVE",
"599 1416 CURVE SMOOTH",
"546 1461 OFFCURVE",
"474 1483 OFFCURVE",
"383 1483 CURVE SMOOTH"
);
}
);
width = 776;
}
);
unicode = 00B2;
},
{
glyphname = threesuperior;
lastChange = "2013-03-07 06:32:14 +0200";
layers = (
{
layerId = "ECE8EDD2-0EDB-4EFB-866E-7B25CF44A28E";
name = Bold;
paths = (
{
closed = 1;
nodes = (
"240 1481 OFFCURVE",
"144 1435 OFFCURVE",
"61 1372 CURVE",
"162 1231 LINE",
"238 1284 OFFCURVE",
"287 1309 OFFCURVE",
"350 1309 CURVE SMOOTH",
"418 1309 OFFCURVE",
"451 1272 OFFCURVE",
"451 1221 CURVE SMOOTH",
"451 1145 OFFCURVE",
"398 1112 OFFCURVE",
"287 1112 CURVE SMOOTH",
"195 1112 LINE",
"195 952 LINE",
"307 952 LINE SMOOTH",
"411 952 OFFCURVE",
"473 917 OFFCURVE",
"473 846 CURVE SMOOTH",
"473 775 OFFCURVE",
"425 739 OFFCURVE",
"330 739 CURVE SMOOTH",
"248 739 OFFCURVE",
"158 769 OFFCURVE",
"59 829 CURVE",
"59 639 LINE",
"146 592 OFFCURVE",
"237 569 OFFCURVE",
"332 569 CURVE SMOOTH",
"580 569 OFFCURVE",
"694 668 OFFCURVE",
"694 829 CURVE SMOOTH",
"694 934 OFFCURVE",
"621 1011 OFFCURVE",
"496 1038 CURVE",
"496 1051 LINE",
"609 1088 OFFCURVE",
"666 1154 OFFCURVE",
"666 1249 CURVE SMOOTH",
"666 1318 OFFCURVE",
"639 1374 OFFCURVE",
"585 1417 CURVE SMOOTH",
"531 1460 OFFCURVE",
"462 1481 OFFCURVE",
"377 1481 CURVE SMOOTH"
);
}
);
width = 776;
}
);
unicode = 00B3;
},
{
glyphname = asterisk;
lastChange = "2013-03-07 06:32:14 +0200";
layers = (
{
layerId = "ECE8EDD2-0EDB-4EFB-866E-7B25CF44A28E";
name = Bold;
paths = (
{
closed = 1;
nodes = (
"426 1556 LINE",
"467 1188 LINE",
"102 1292 LINE",
"63 1042 LINE",
"401 1016 LINE",
"180 719 LINE",
"416 600 LINE",
"553 911 LINE",
"709 598 LINE",
"936 719 LINE",
"713 1016 LINE",
"1053 1040 LINE",
"1020 1292 LINE",
"647 1188 LINE",
"688 1556 LINE"
);
}
);
width = 1116;
}
);
unicode = 002A;
},
{
glyphname = backslash;
lastChange = "2013-03-07 06:32:14 +0200";
layers = (
{
layerId = "ECE8EDD2-0EDB-4EFB-866E-7B25CF44A28E";
name = Bold;
paths = (
{
closed = 1;
nodes = (
"12 1462 LINE",
"557 0 LINE",
"834 0 LINE",
"289 1462 LINE"
);
}
);
width = 846;
}
);
unicode = 005C;
},
{
glyphname = bullet;
lastChange = "2013-03-07 06:32:14 +0200";
layers = (
{
layerId = "ECE8EDD2-0EDB-4EFB-866E-7B25CF44A28E";
name = Bold;
paths = (
{
closed = 1;
nodes = (
"200 1065 OFFCURVE",
"97 953 OFFCURVE",
"97 748 CURVE SMOOTH",
"97 545 OFFCURVE",
"201 430 OFFCURVE",
"385 430 CURVE SMOOTH",
"566 430 OFFCURVE",
"672 545 OFFCURVE",
"672 748 CURVE SMOOTH",
"672 952 OFFCURVE",
"568 1065 OFFCURVE",
"385 1065 CURVE SMOOTH"
);
}
);
width = 770;
}
);
unicode = 2022;
},
{
glyphname = colon;
lastChange = "2013-03-07 06:32:14 +0200";
layers = (
{
layerId = "ECE8EDD2-0EDB-4EFB-866E-7B25CF44A28E";
name = Bold;
paths = (
{
closed = 1;
nodes = (
"178 1139 OFFCURVE",
"117 1081 OFFCURVE",
"117 968 CURVE SMOOTH",
"117 860 OFFCURVE",
"181 799 OFFCURVE",
"293 799 CURVE SMOOTH",
"401 799 OFFCURVE",
"467 861 OFFCURVE",
"467 968 CURVE SMOOTH",
"467 1078 OFFCURVE",
"404 1139 OFFCURVE",
"293 1139 CURVE SMOOTH"
);
},
{
closed = 1;
nodes = (
"178 313 OFFCURVE",
"117 255 OFFCURVE",
"117 143 CURVE SMOOTH",
"117 35 OFFCURVE",
"181 -27 OFFCURVE",
"293 -27 CURVE SMOOTH",
"402 -27 OFFCURVE",
"467 38 OFFCURVE",
"467 143 CURVE SMOOTH",
"467 252 OFFCURVE",
"404 313 OFFCURVE",
"293 313 CURVE SMOOTH"
);
}
);
width = 584;
}
);
unicode = 003A;
},
{
glyphname = comma;
lastChange = "2013-03-07 06:32:14 +0200";
layers = (
{
layerId = "ECE8EDD2-0EDB-4EFB-866E-7B25CF44A28E";
name = Bold;
paths = (
{
closed = 1;
nodes = (
"164 238 LINE",
"140 81 OFFCURVE",
"106 -87 OFFCURVE",
"63 -264 CURVE",
"283 -264 LINE",
"366 -79 OFFCURVE",
"424 80 OFFCURVE",
"459 215 CURVE",
"444 238 LINE"
);
}
);
width = 594;
}
);
unicode = 002C;
},
{
glyphname = ellipsis;
lastChange = "2013-03-07 06:32:14 +0200";
layers = (
{
layerId = "ECE8EDD2-0EDB-4EFB-866E-7B25CF44A28E";
name = Bold;
paths = (
{
closed = 1;
nodes = (
"761 313 OFFCURVE",
"700 255 OFFCURVE",
"700 143 CURVE SMOOTH",
"700 35 OFFCURVE",
"764 -27 OFFCURVE",
"877 -27 CURVE SMOOTH",
"985 -27 OFFCURVE",
"1051 38 OFFCURVE",
"1051 143 CURVE SMOOTH",
"1051 252 OFFCURVE",
"987 313 OFFCURVE",
"877 313 CURVE SMOOTH"
);
},
{
closed = 1;
nodes = (
"178 313 OFFCURVE",
"117 255 OFFCURVE",
"117 143 CURVE SMOOTH",
"117 35 OFFCURVE",
"181 -27 OFFCURVE",
"293 -27 CURVE SMOOTH",
"402 -27 OFFCURVE",
"467 38 OFFCURVE",
"467 143 CURVE SMOOTH",
"467 252 OFFCURVE",
"404 313 OFFCURVE",
"293 313 CURVE SMOOTH"
);
},
{
closed = 1;
nodes = (
"1345 313 OFFCURVE",
"1284 255 OFFCURVE",
"1284 143 CURVE SMOOTH",
"1284 35 OFFCURVE",
"1348 -27 OFFCURVE",
"1460 -27 CURVE SMOOTH",
"1569 -27 OFFCURVE",
"1634 38 OFFCURVE",
"1634 143 CURVE SMOOTH",
"1634 252 OFFCURVE",
"1571 313 OFFCURVE",
"1460 313 CURVE SMOOTH"
);
}
);
width = 1751;
}
);
unicode = 2026;
},
{
glyphname = exclam;
lastChange = "2013-03-07 06:32:14 +0200";
layers = (
{
layerId = "ECE8EDD2-0EDB-4EFB-866E-7B25CF44A28E";
name = Bold;
paths = (
{
closed = 1;
nodes = (
"121 1462 LINE",
"172 485 LINE",
"416 485 LINE",
"467 1462 LINE"
);
},
{
closed = 1;
nodes = (
"178 313 OFFCURVE",
"117 255 OFFCURVE",
"117 143 CURVE SMOOTH",
"117 35 OFFCURVE",
"181 -27 OFFCURVE",
"293 -27 CURVE SMOOTH",
"402 -27 OFFCURVE",
"467 38 OFFCURVE",
"467 143 CURVE SMOOTH",
"467 252 OFFCURVE",
"404 313 OFFCURVE",
"293 313 CURVE SMOOTH"
);
}
);
width = 586;
}
);
unicode = 0021;
},
{
glyphname = exclamdown;
lastChange = "2013-03-07 06:32:14 +0200";
layers = (
{
layerId = "ECE8EDD2-0EDB-4EFB-866E-7B25CF44A28E";
name = Bold;
paths = (
{
closed = 1;
nodes = (
"168 606 LINE",
"117 -369 LINE",
"463 -369 LINE",
"412 606 LINE"
);
},
{
closed = 1;
nodes = (
"183 1118 OFFCURVE",
"117 1056 OFFCURVE",
"117 948 CURVE SMOOTH",
"117 839 OFFCURVE",
"180 778 OFFCURVE",
"291 778 CURVE SMOOTH",
"406 778 OFFCURVE",
"467 836 OFFCURVE",
"467 948 CURVE SMOOTH",
"467 1057 OFFCURVE",
"403 1118 OFFCURVE",
"291 1118 CURVE SMOOTH"
);
}
);
width = 586;
}
);
unicode = 00A1;
},
{
glyphname = numbersign;
lastChange = "2013-03-07 06:32:14 +0200";
layers = (
{
layerId = "ECE8EDD2-0EDB-4EFB-866E-7B25CF44A28E";
name = Bold;
paths = (
{
closed = 1;
nodes = (
"901 1460 LINE",
"823 1053 LINE",
"625 1053 LINE",
"702 1460 LINE",
"483 1460 LINE",
"406 1053 LINE",
"117 1053 LINE",
"117 844 LINE",
"369 844 LINE",
"322 612 LINE",
"45 612 LINE",
"45 406 LINE",
"283 406 LINE",
"209 0 LINE",
"424 0 LINE",
"500 406 LINE",
"694 406 LINE",
"616 0 LINE",
"836 0 LINE",
"913 406 LINE",
"1210 406 LINE",
"1210 612 LINE",
"952 612 LINE",
"998 844 LINE",
"1278 844 LINE",
"1278 1053 LINE",
"1038 1053 LINE",
"1116 1460 LINE"
);
},
{
closed = 1;
nodes = (
"735 612 LINE",
"539 612 LINE",
"586 844 LINE",
"782 844 LINE"
);
}
);
width = 1323;
}
);
unicode = 0023;
},
{
glyphname = period;
lastChange = "2013-03-07 06:32:14 +0200";
layers = (
{
layerId = "ECE8EDD2-0EDB-4EFB-866E-7B25CF44A28E";
name = Bold;
paths = (
{
closed = 1;
nodes = (
"178 313 OFFCURVE",
"117 255 OFFCURVE",
"117 143 CURVE SMOOTH",
"117 35 OFFCURVE",
"181 -27 OFFCURVE",
"293 -27 CURVE SMOOTH",
"402 -27 OFFCURVE",
"467 38 OFFCURVE",
"467 143 CURVE SMOOTH",
"467 252 OFFCURVE",
"404 313 OFFCURVE",
"293 313 CURVE SMOOTH"
);
}
);
width = 584;
}
);
unicode = 002E;
},
{
glyphname = periodcentered;
lastChange = "2013-03-07 06:32:14 +0200";
layers = (
{
layerId = "ECE8EDD2-0EDB-4EFB-866E-7B25CF44A28E";
name = Bold;
paths = (
{
closed = 1;
nodes = (
"178 893 OFFCURVE",
"117 835 OFFCURVE",
"117 723 CURVE SMOOTH",
"117 614 OFFCURVE",
"181 553 OFFCURVE",
"293 553 CURVE SMOOTH",
"401 553 OFFCURVE",
"467 615 OFFCURVE",
"467 723 CURVE SMOOTH",
"467 832 OFFCURVE",
"404 893 OFFCURVE",
"293 893 CURVE SMOOTH"
);
}
);
width = 584;
}
);
unicode = 00B7;
},
{
glyphname = question;
lastChange = "2013-03-07 06:32:14 +0200";
layers = (
{
layerId = "ECE8EDD2-0EDB-4EFB-866E-7B25CF44A28E";
name = Bold;
paths = (
{
closed = 1;
nodes = (
"312 1483 OFFCURVE",
"155 1441 OFFCURVE",
"6 1358 CURVE",
"115 1139 LINE",
"243 1204 OFFCURVE",
"357 1237 OFFCURVE",
"457 1237 CURVE SMOOTH",
"572 1237 OFFCURVE",
"639 1191 OFFCURVE",
"639 1104 CURVE SMOOTH",
"639 1065 OFFCURVE",
"628 1030 OFFCURVE",
"605 998 CURVE SMOOTH",
"583 967 OFFCURVE",
"537 927 OFFCURVE",
"467 877 CURVE SMOOTH",
"394 824 OFFCURVE",
"344 773 OFFCURVE",
"317 726 CURVE SMOOTH",
"290 679 OFFCURVE",
"276 623 OFFCURVE",
"276 559 CURVE SMOOTH",
"276 485 LINE",
"541 485 LINE",
"541 545 LINE SMOOTH",
"541 585 OFFCURVE",
"549 617 OFFCURVE",
"566 642 CURVE SMOOTH",
"583 667 OFFCURVE",
"624 703 OFFCURVE",
"688 750 CURVE SMOOTH",
"781 817 OFFCURVE",
"845 877 OFFCURVE",
"878 930 CURVE SMOOTH",
"911 982 OFFCURVE",
"928 1047 OFFCURVE",
"928 1120 CURVE SMOOTH",
"928 1230 OFFCURVE",
"887 1318 OFFCURVE",
"806 1384 CURVE SMOOTH",
"725 1450 OFFCURVE",
"616 1483 OFFCURVE",
"479 1483 CURVE SMOOTH"
);
},
{
closed = 1;
nodes = (
"305 313 OFFCURVE",
"244 255 OFFCURVE",
"244 143 CURVE SMOOTH",
"244 35 OFFCURVE",
"308 -27 OFFCURVE",
"420 -27 CURVE SMOOTH",
"529 -27 OFFCURVE",
"594 38 OFFCURVE",
"594 143 CURVE SMOOTH",
"594 252 OFFCURVE",
"531 313 OFFCURVE",
"420 313 CURVE SMOOTH"
);
}
);
width = 976;
}
);
unicode = 003F;
},
{
glyphname = questiondown;
lastChange = "2013-03-07 06:32:14 +0200";
layers = (
{
layerId = "ECE8EDD2-0EDB-4EFB-866E-7B25CF44A28E";
name = Bold;
paths = (
{
closed = 1;
nodes = (
"449 606 LINE",
"449 547 LINE SMOOTH",
"449 506 OFFCURVE",
"440 474 OFFCURVE",
"422 449 CURVE SMOOTH",
"405 424 OFFCURVE",
"364 389 OFFCURVE",
"301 342 CURVE SMOOTH",
"206 272 OFFCURVE",
"142 211 OFFCURVE",
"109 158 CURVE SMOOTH",
"77 105 OFFCURVE",
"61 43 OFFCURVE",
"61 -29 CURVE SMOOTH",
"61 -142 OFFCURVE",
"103 -230 OFFCURVE",
"186 -294 CURVE SMOOTH",
"270 -359 OFFCURVE",
"385 -391 OFFCURVE",
"532 -391 CURVE SMOOTH",
"603 -391 OFFCURVE",
"679 -379 OFFCURVE",
"761 -356 CURVE SMOOTH",
"844 -333 OFFCURVE",
"918 -303 OFFCURVE",
"982 -266 CURVE",
"881 -45 LINE",
"753 -101 OFFCURVE",
"631 -145 OFFCURVE",
"526 -145 CURVE SMOOTH",
"407 -145 OFFCURVE",
"350 -90 OFFCURVE",
"350 -14 CURVE SMOOTH",
"350 28 OFFCURVE",
"359 64 OFFCURVE",
"378 92 CURVE SMOOTH",
"397 122 OFFCURVE",
"443 163 OFFCURVE",
"516 215 CURVE SMOOTH",
"588 266 OFFCURVE",
"639 316 OFFCURVE",
"668 363 CURVE SMOOTH",
"698 410 OFFCURVE",
"713 467 OFFCURVE",
"713 532 CURVE SMOOTH",
"713 606 LINE"
);
},
{
closed = 1;
nodes = (
"461 1118 OFFCURVE",
"395 1056 OFFCURVE",
"395 948 CURVE SMOOTH",
"395 839 OFFCURVE",
"458 778 OFFCURVE",
"569 778 CURVE SMOOTH",
"684 778 OFFCURVE",
"745 836 OFFCURVE",
"745 948 CURVE SMOOTH",
"745 1057 OFFCURVE",
"681 1118 OFFCURVE",
"569 1118 CURVE SMOOTH"
);
}
);
width = 976;
}
);
unicode = 00BF;
},
{
glyphname = quotedbl;
lastChange = "2013-03-07 06:32:14 +0200";
layers = (
{
layerId = "ECE8EDD2-0EDB-4EFB-866E-7B25CF44A28E";
name = Bold;
paths = (
{
closed = 1;
nodes = (
"555 1462 LINE",
"596 934 LINE",
"793 934 LINE",
"834 1462 LINE"
);
},
{
closed = 1;
nodes = (
"133 1462 LINE",
"174 934 LINE",
"371 934 LINE",
"412 1462 LINE"
);
}
);
width = 967;
}
);
unicode = 0022;
},
{
glyphname = quotesingle;
lastChange = "2013-03-07 06:32:14 +0200";
layers = (
{
layerId = "ECE8EDD2-0EDB-4EFB-866E-7B25CF44A28E";
name = Bold;
paths = (
{
closed = 1;
nodes = (
"133 1462 LINE",
"174 934 LINE",
"371 934 LINE",
"412 1462 LINE"
);
}
);
width = 545;
}
);
unicode = 0027;
},
{
glyphname = semicolon;
lastChange = "2013-03-07 06:32:14 +0200";
layers = (
{
layerId = "ECE8EDD2-0EDB-4EFB-866E-7B25CF44A28E";
name = Bold;
paths = (
{
closed = 1;
nodes = (
"164 238 LINE",
"140 81 OFFCURVE",
"106 -87 OFFCURVE",
"63 -264 CURVE",
"283 -264 LINE",
"366 -79 OFFCURVE",
"424 80 OFFCURVE",
"459 215 CURVE",
"444 238 LINE"
);
},
{
closed = 1;
nodes = (
"178 1139 OFFCURVE",
"117 1081 OFFCURVE",
"117 968 CURVE SMOOTH",
"117 860 OFFCURVE",
"181 799 OFFCURVE",
"293 799 CURVE SMOOTH",
"401 799 OFFCURVE",
"467 861 OFFCURVE",
"467 968 CURVE SMOOTH",
"467 1078 OFFCURVE",
"404 1139 OFFCURVE",
"293 1139 CURVE SMOOTH"
);
}
);
width = 594;
}
);
unicode = 003B;
},
{
glyphname = slash;
lastChange = "2013-03-07 06:32:14 +0200";
layers = (
{
layerId = "ECE8EDD2-0EDB-4EFB-866E-7B25CF44A28E";
name = Bold;
paths = (
{
closed = 1;
nodes = (
"559 1462 LINE",
"14 0 LINE",
"291 0 LINE",
"836 1462 LINE"
);
}
);
width = 846;
}
);
unicode = 002F;
},
{
glyphname = underscore;
lastChange = "2013-03-07 06:32:14 +0200";
layers = (
{
layerId = "ECE8EDD2-0EDB-4EFB-866E-7B25CF44A28E";
name = Bold;
paths = (
{
closed = 1;
nodes = (
"-4 -184 LINE",
"-4 -324 LINE",
"846 -324 LINE",
"846 -184 LINE"
);
}
);
width = 842;
}
);
unicode = 005F;
},
{
glyphname = braceleft;
lastChange = "2013-03-07 06:32:14 +0200";
layers = (
{
layerId = "ECE8EDD2-0EDB-4EFB-866E-7B25CF44A28E";
name = Bold;
paths = (
{
closed = 1;
nodes = (
"562 1462 OFFCURVE",
"449 1441 OFFCURVE",
"384 1399 CURVE SMOOTH",
"319 1358 OFFCURVE",
"287 1286 OFFCURVE",
"287 1184 CURVE SMOOTH",
"287 866 LINE",
"287 858 LINE SMOOTH",
"287 749 OFFCURVE",
"199 688 OFFCURVE",
"31 688 CURVE",
"31 449 LINE",
"198 449 OFFCURVE",
"287 386 OFFCURVE",
"287 270 CURVE SMOOTH",
"287 -45 LINE SMOOTH",
"287 -148 OFFCURVE",
"319 -220 OFFCURVE",
"384 -261 CURVE SMOOTH",
"449 -303 OFFCURVE",
"562 -324 OFFCURVE",
"725 -324 CURVE",
"725 -97 LINE",
"658 -95 OFFCURVE",
"613 -83 OFFCURVE",
"588 -60 CURVE SMOOTH",
"563 -37 OFFCURVE",
"551 -2 OFFCURVE",
"551 43 CURVE SMOOTH",
"551 342 LINE",
"551 351 LINE SMOOTH",
"551 469 OFFCURVE",
"473 540 OFFCURVE",
"317 563 CURVE",
"317 575 LINE",
"469 598 OFFCURVE",
"547 672 OFFCURVE",
"551 797 CURVE SMOOTH",
"551 1096 LINE SMOOTH",
"551 1187 OFFCURVE",
"593 1233 OFFCURVE",
"725 1237 CURVE",
"725 1462 LINE"
);
}
);
width = 807;
}
);
unicode = 007B;
},
{
glyphname = braceright;
lastChange = "2013-03-07 06:32:14 +0200";
layers = (
{
layerId = "ECE8EDD2-0EDB-4EFB-866E-7B25CF44A28E";
name = Bold;
paths = (
{
closed = 1;
nodes = (
"82 1237 LINE",
"149 1235 OFFCURVE",
"194 1223 OFFCURVE",
"219 1200 CURVE SMOOTH",
"244 1177 OFFCURVE",
"256 1143 OFFCURVE",
"256 1096 CURVE SMOOTH",
"256 797 LINE SMOOTH",
"260 672 OFFCURVE",
"338 598 OFFCURVE",
"489 575 CURVE",
"489 563 LINE",
"336 540 OFFCURVE",
"256 468 OFFCURVE",
"256 353 CURVE SMOOTH",
"256 342 LINE",
"256 43 LINE SMOOTH",
"256 -52 OFFCURVE",
"214 -94 OFFCURVE",
"82 -97 CURVE",
"82 -324 LINE",
"305 -324 OFFCURVE",
"424 -290 OFFCURVE",
"479 -214 CURVE SMOOTH",
"506 -176 OFFCURVE",
"520 -120 OFFCURVE",
"520 -45 CURVE SMOOTH",
"520 270 LINE SMOOTH",
"520 399 OFFCURVE",
"609 449 OFFCURVE",
"776 449 CURVE",
"776 688 LINE",
"599 688 OFFCURVE",
"520 744 OFFCURVE",
"520 856 CURVE SMOOTH",
"520 866 LINE",
"520 1184 LINE SMOOTH",
"520 1331 OFFCURVE",
"471 1400 OFFCURVE",
"344 1435 CURVE SMOOTH",
"281 1453 OFFCURVE",
"193 1462 OFFCURVE",
"82 1462 CURVE"
);
}
);
width = 807;
}
);
unicode = 007D;
},
{
glyphname = bracketleft;
lastChange = "2013-03-07 06:32:14 +0200";
layers = (
{
layerId = "ECE8EDD2-0EDB-4EFB-866E-7B25CF44A28E";
name = Bold;
paths = (
{
closed = 1;
nodes = (
"143 1462 LINE",
"143 -324 LINE",
"627 -324 LINE",
"627 -113 LINE",
"403 -113 LINE",
"403 1251 LINE",
"627 1251 LINE",
"627 1462 LINE"
);
}
);
width = 678;
}
);
unicode = 005B;
},
{
glyphname = bracketright;
lastChange = "2013-03-07 06:32:14 +0200";
layers = (
{
layerId = "ECE8EDD2-0EDB-4EFB-866E-7B25CF44A28E";
name = Bold;
paths = (
{
closed = 1;
nodes = (
"51 1462 LINE",
"51 1251 LINE",
"274 1251 LINE",
"274 -113 LINE",
"51 -113 LINE",
"51 -324 LINE",
"535 -324 LINE",
"535 1462 LINE"
);
}
);
width = 678;
}
);
unicode = 005D;
},
{
glyphname = parenleft;
lastChange = "2013-03-07 06:32:14 +0200";
layers = (
{
layerId = "ECE8EDD2-0EDB-4EFB-866E-7B25CF44A28E";
name = Bold;
paths = (
{
closed = 1;
nodes = (
"383 1462 LINE",
"188 1230 OFFCURVE",
"82 914 OFFCURVE",
"82 561 CURVE SMOOTH",
"82 213 OFFCURVE",
"187 -96 OFFCURVE",
"383 -324 CURVE",
"631 -324 LINE",
"540 -201 OFFCURVE",
"470 -63 OFFCURVE",
"421 89 CURVE SMOOTH",
"372 242 OFFCURVE",
"348 400 OFFCURVE",
"348 563 CURVE SMOOTH",
"348 888 OFFCURVE",
"445 1205 OFFCURVE",
"633 1462 CURVE"
);
}
);
width = 694;
}
);
unicode = 0028;
},
{
glyphname = parenright;
lastChange = "2013-03-07 06:32:14 +0200";
layers = (
{
layerId = "ECE8EDD2-0EDB-4EFB-866E-7B25CF44A28E";
name = Bold;
paths = (
{
closed = 1;
nodes = (
"61 1462 LINE",
"249 1205 OFFCURVE",
"346 888 OFFCURVE",
"346 563 CURVE SMOOTH",
"346 399 OFFCURVE",
"321 241 OFFCURVE",
"272 88 CURVE SMOOTH",
"223 -64 OFFCURVE",
"153 -201 OFFCURVE",
"63 -324 CURVE",
"311 -324 LINE",
"506 -99 OFFCURVE",
"612 210 OFFCURVE",
"612 561 CURVE SMOOTH",
"612 736 OFFCURVE",
"586 901 OFFCURVE",
"535 1055 CURVE SMOOTH",
"484 1210 OFFCURVE",
"409 1345 OFFCURVE",
"311 1462 CURVE"
);
}
);
width = 694;
}
);
unicode = 0029;
},
{
glyphname = emdash;
lastChange = "2013-03-07 06:32:14 +0200";
layers = (
{
layerId = "ECE8EDD2-0EDB-4EFB-866E-7B25CF44A28E";
name = Bold;
paths = (
{
closed = 1;
nodes = (
"82 666 LINE",
"82 436 LINE",
"1966 436 LINE",
"1966 666 LINE"
);
}
);
width = 2048;
}
);
unicode = 2014;
},
{
glyphname = endash;
lastChange = "2013-03-07 06:32:14 +0200";
layers = (
{
layerId = "ECE8EDD2-0EDB-4EFB-866E-7B25CF44A28E";
name = Bold;
paths = (
{
closed = 1;
nodes = (
"82 666 LINE",
"82 436 LINE",
"942 436 LINE",
"942 666 LINE"
);
}
);
width = 1024;
}
);
unicode = 2013;
},
{
glyphname = hyphen;
lastChange = "2013-03-07 06:32:14 +0200";
layers = (
{
layerId = "ECE8EDD2-0EDB-4EFB-866E-7B25CF44A28E";
name = Bold;
paths = (
{
closed = 1;
nodes = (
"61 674 LINE",
"61 424 LINE",
"598 424 LINE",
"598 674 LINE"
);
}
);
width = 659;
}
);
unicode = 002D;
},
{
glyphname = uni00AD;
lastChange = "2013-03-07 06:32:14 +0200";
layers = (
{
layerId = "ECE8EDD2-0EDB-4EFB-866E-7B25CF44A28E";
name = Bold;
paths = (
{
closed = 1;
nodes = (
"61 674 LINE",
"61 424 LINE",
"598 424 LINE",
"598 674 LINE"
);
}
);
width = 659;
}
);
unicode = 00AD;
},
{
glyphname = guillemotleft;
lastChange = "2013-03-07 06:32:14 +0200";
layers = (
{
layerId = "ECE8EDD2-0EDB-4EFB-866E-7B25CF44A28E";
name = Bold;
paths = (
{
closed = 1;
nodes = (
"588 573 LINE",
"588 547 LINE",
"958 93 LINE",
"1178 213 LINE",
"899 561 LINE",
"1178 909 LINE",
"958 1028 LINE"
);
},
{
closed = 1;
nodes = (
"82 573 LINE",
"82 547 LINE",
"453 93 LINE",
"672 213 LINE",
"393 561 LINE",
"672 909 LINE",
"453 1028 LINE"
);
}
);
width = 1260;
}
);
unicode = 00AB;
},
{
glyphname = guillemotright;
lastChange = "2013-03-07 06:32:14 +0200";
layers = (
{
layerId = "ECE8EDD2-0EDB-4EFB-866E-7B25CF44A28E";
name = Bold;
paths = (
{
closed = 1;
nodes = (
"588 909 LINE",
"866 561 LINE",
"588 213 LINE",
"807 93 LINE",
"1178 547 LINE",
"1178 573 LINE",
"807 1028 LINE"
);
},
{
closed = 1;
nodes = (
"82 909 LINE",
"360 561 LINE",
"82 213 LINE",
"301 93 LINE",
"672 547 LINE",
"672 573 LINE",
"301 1028 LINE"
);
}
);
width = 1260;
}
);
unicode = 00BB;
},
{
glyphname = guilsinglleft;
lastChange = "2013-03-07 06:32:14 +0200";
layers = (
{
layerId = "ECE8EDD2-0EDB-4EFB-866E-7B25CF44A28E";
name = Bold;
paths = (
{
closed = 1;
nodes = (
"82 573 LINE",
"82 547 LINE",
"453 93 LINE",
"672 213 LINE",
"393 561 LINE",
"672 909 LINE",
"453 1028 LINE"
);
}
);
width = 754;
}
);
unicode = 2039;
},
{
glyphname = guilsinglright;
lastChange = "2013-03-07 06:32:14 +0200";
layers = (
{
layerId = "ECE8EDD2-0EDB-4EFB-866E-7B25CF44A28E";
name = Bold;
paths = (
{
closed = 1;
nodes = (
"82 909 LINE",
"360 561 LINE",
"82 213 LINE",
"301 93 LINE",
"672 547 LINE",
"672 573 LINE",
"301 1028 LINE"
);
}
);
width = 754;
}
);
unicode = 203A;
},
{
glyphname = quotedblbase;
lastChange = "2013-03-07 06:32:14 +0200";
layers = (
{
layerId = "ECE8EDD2-0EDB-4EFB-866E-7B25CF44A28E";
name = Bold;
paths = (
{
closed = 1;
nodes = (
"631 238 LINE",
"607 81 OFFCURVE",
"573 -87 OFFCURVE",
"530 -264 CURVE",
"750 -264 LINE",
"833 -79 OFFCURVE",
"891 80 OFFCURVE",
"926 215 CURVE",
"911 238 LINE"
);
},
{
closed = 1;
nodes = (
"164 238 LINE",
"140 81 OFFCURVE",
"106 -87 OFFCURVE",
"63 -264 CURVE",
"283 -264 LINE",
"366 -79 OFFCURVE",
"424 80 OFFCURVE",
"459 215 CURVE",
"444 238 LINE"
);
}
);
width = 1061;
}
);
unicode = 201E;
},
{
glyphname = quotedblleft;
lastChange = "2013-03-07 06:32:14 +0200";
layers = (
{
layerId = "ECE8EDD2-0EDB-4EFB-866E-7B25CF44A28E";
name = Bold;
paths = (
{
closed = 1;
nodes = (
"668 1462 LINE",
"633 1387 OFFCURVE",
"598 1303 OFFCURVE",
"564 1211 CURVE SMOOTH",
"531 1120 OFFCURVE",
"507 1044 OFFCURVE",
"492 982 CURVE",
"506 961 LINE",
"786 961 LINE",
"809 1117 OFFCURVE",
"843 1284 OFFCURVE",
"887 1462 CURVE"
);
},
{
closed = 1;
nodes = (
"201 1462 LINE",
"166 1387 OFFCURVE",
"131 1303 OFFCURVE",
"96 1211 CURVE SMOOTH",
"64 1120 OFFCURVE",
"40 1044 OFFCURVE",
"25 982 CURVE",
"39 961 LINE",
"319 961 LINE",
"342 1117 OFFCURVE",
"376 1284 OFFCURVE",
"420 1462 CURVE"
);
}
);
width = 911;
}
);
unicode = 201C;
},
{
glyphname = quotedblright;
lastChange = "2013-03-07 06:32:14 +0200";
layers = (
{
layerId = "ECE8EDD2-0EDB-4EFB-866E-7B25CF44A28E";
name = Bold;
paths = (
{
closed = 1;
nodes = (
"592 1462 LINE",
"571 1325 OFFCURVE",
"538 1158 OFFCURVE",
"492 961 CURVE",
"711 961 LINE",
"795 1149 OFFCURVE",
"854 1309 OFFCURVE",
"887 1440 CURVE",
"872 1462 LINE"
);
},
{
closed = 1;
nodes = (
"125 1462 LINE",
"104 1325 OFFCURVE",
"71 1158 OFFCURVE",
"25 961 CURVE",
"244 961 LINE",
"328 1149 OFFCURVE",
"387 1309 OFFCURVE",
"420 1440 CURVE",
"406 1462 LINE"
);
}
);
width = 911;
}
);
unicode = 201D;
},
{
glyphname = quoteleft;
lastChange = "2013-03-07 06:32:14 +0200";
layers = (
{
layerId = "ECE8EDD2-0EDB-4EFB-866E-7B25CF44A28E";
name = Bold;
paths = (
{
closed = 1;
nodes = (
"201 1462 LINE",
"166 1387 OFFCURVE",
"131 1303 OFFCURVE",
"96 1211 CURVE SMOOTH",
"64 1120 OFFCURVE",
"40 1044 OFFCURVE",
"25 982 CURVE",
"39 961 LINE",
"319 961 LINE",
"342 1117 OFFCURVE",
"376 1284 OFFCURVE",
"420 1462 CURVE"
);
}
);
width = 444;
}
);
unicode = 2018;
},
{
glyphname = quoteright;
lastChange = "2013-03-07 06:32:14 +0200";
layers = (
{
layerId = "ECE8EDD2-0EDB-4EFB-866E-7B25CF44A28E";
name = Bold;
paths = (
{
closed = 1;
nodes = (
"125 1462 LINE",
"104 1325 OFFCURVE",
"71 1158 OFFCURVE",
"25 961 CURVE",
"244 961 LINE",
"328 1149 OFFCURVE",
"387 1309 OFFCURVE",
"420 1440 CURVE",
"406 1462 LINE"
);
}
);
width = 444;
}
);
unicode = 2019;
},
{
glyphname = quotesinglbase;
lastChange = "2013-03-07 06:32:14 +0200";
layers = (
{
layerId = "ECE8EDD2-0EDB-4EFB-866E-7B25CF44A28E";
name = Bold;
paths = (
{
closed = 1;
nodes = (
"164 238 LINE",
"140 81 OFFCURVE",
"106 -87 OFFCURVE",
"63 -264 CURVE",
"283 -264 LINE",
"366 -79 OFFCURVE",
"424 80 OFFCURVE",
"459 215 CURVE",
"444 238 LINE"
);
}
);
width = 596;
}
);
unicode = 201A;
},
{
glyphname = "geresh-hb";
lastChange = "2013-03-07 06:32:14 +0200";
layers = (
{
layerId = "ECE8EDD2-0EDB-4EFB-866E-7B25CF44A28E";
name = Bold;
paths = (
{
closed = 1;
nodes = (
"125 1290 LINE",
"104 1153 OFFCURVE",
"71 985 OFFCURVE",
"25 789 CURVE",
"244 789 LINE",
"328 976 OFFCURVE",
"387 1137 OFFCURVE",
"420 1268 CURVE",
"406 1290 LINE"
);
}
);
width = 444;
}
);
unicode = 05F3;
},
{
glyphname = "gershayim-hb";
lastChange = "2013-03-07 06:32:14 +0200";
layers = (
{
layerId = "ECE8EDD2-0EDB-4EFB-866E-7B25CF44A28E";
name = Bold;
paths = (
{
closed = 1;
nodes = (
"592 1290 LINE",
"571 1153 OFFCURVE",
"538 985 OFFCURVE",
"492 789 CURVE",
"711 789 LINE",
"795 976 OFFCURVE",
"854 1137 OFFCURVE",
"887 1268 CURVE",
"872 1290 LINE"
);
},
{
closed = 1;
nodes = (
"125 1290 LINE",
"104 1153 OFFCURVE",
"71 985 OFFCURVE",
"25 789 CURVE",
"244 789 LINE",
"328 976 OFFCURVE",
"387 1137 OFFCURVE",
"420 1268 CURVE",
"406 1290 LINE"
);
}
);
width = 911;
}
);
unicode = 05F4;
},
{
glyphname = "maqaf-hb";
lastChange = "2013-03-07 06:32:14 +0200";
layers = (
{
layerId = "ECE8EDD2-0EDB-4EFB-866E-7B25CF44A28E";
name = Bold;
paths = (
{
closed = 1;
nodes = (
"61 1290 LINE",
"61 1040 LINE",
"598 1040 LINE",
"598 1290 LINE"
);
}
);
width = 659;
}
);
unicode = 05BE;
},
{
glyphname = florin;
lastChange = "2013-03-07 06:32:14 +0200";
layers = (
{
layerId = "ECE8EDD2-0EDB-4EFB-866E-7B25CF44A28E";
name = Bold;
paths = (
{
closed = 1;
nodes = (
"550 1483 OFFCURVE",
"440 1368 OFFCURVE",
"440 1116 CURVE SMOOTH",
"440 1034 LINE",
"272 952 LINE",
"272 805 LINE",
"440 805 LINE",
"440 -76 LINE SMOOTH",
"440 -189 OFFCURVE",
"398 -246 OFFCURVE",
"315 -246 CURVE SMOOTH",
"276 -246 OFFCURVE",
"236 -240 OFFCURVE",
"197 -227 CURVE",
"197 -467 LINE",
"248 -484 OFFCURVE",
"310 -492 OFFCURVE",
"381 -492 CURVE SMOOTH",
"616 -492 OFFCURVE",
"745 -357 OFFCURVE",
"745 -121 CURVE SMOOTH",
"745 805 LINE",
"972 805 LINE",
"972 1034 LINE",
"745 1034 LINE",
"745 1104 LINE SMOOTH",
"745 1195 OFFCURVE",
"781 1241 OFFCURVE",
"854 1241 CURVE SMOOTH",
"896 1241 OFFCURVE",
"944 1231 OFFCURVE",
"998 1212 CURVE",
"1071 1436 LINE",
"995 1467 OFFCURVE",
"909 1483 OFFCURVE",
"809 1483 CURVE SMOOTH"
);
}
);
width = 1169;
}
);
unicode = 0192;
},
{
glyphname = Euro;
lastChange = "2013-03-07 06:32:14 +0200";
layers = (
{
layerId = "ECE8EDD2-0EDB-4EFB-866E-7B25CF44A28E";
name = Bold;
paths = (
{
closed = 1;
nodes = (
"641 1473 OFFCURVE",
"506 1426 OFFCURVE",
"398 1332 CURVE SMOOTH",
"290 1239 OFFCURVE",
"224 1111 OFFCURVE",
"199 950 CURVE",
"66 950 LINE",
"66 774 LINE",
"182 774 LINE",
"180 721 LINE",
"180 695 OFFCURVE",
"181 674 OFFCURVE",
"184 659 CURVE",
"66 659 LINE",
"66 481 LINE",
"203 481 LINE",
"230 324 OFFCURVE",
"297 202 OFFCURVE",
"402 113 CURVE SMOOTH",
"507 24 OFFCURVE",
"642 -20 OFFCURVE",
"805 -20 CURVE SMOOTH",
"923 -20 OFFCURVE",
"1021 0 OFFCURVE",
"1098 39 CURVE",
"1098 295 LINE",
"1010 257 OFFCURVE",
"918 238 OFFCURVE",
"823 238 CURVE SMOOTH",
"643 238 OFFCURVE",
"536 319 OFFCURVE",
"502 481 CURVE",
"840 481 LINE",
"840 659 LINE",
"485 659 LINE",
"483 692 LINE",
"483 739 LINE",
"485 774 LINE",
"903 774 LINE",
"903 950 LINE",
"500 950 LINE",
"531 1129 OFFCURVE",
"640 1225 OFFCURVE",
"803 1225 CURVE SMOOTH",
"890 1225 OFFCURVE",
"965 1200 OFFCURVE",
"1057 1159 CURVE",
"1155 1391 LINE",
"1046 1446 OFFCURVE",
"928 1473 OFFCURVE",
"803 1473 CURVE SMOOTH"
);
}
);
width = 1169;
}
);
unicode = 20AC;
},
{
glyphname = cent;
lastChange = "2013-03-07 06:32:14 +0200";
layers = (
{
layerId = "ECE8EDD2-0EDB-4EFB-866E-7B25CF44A28E";
name = Bold;
paths = (
{
closed = 1;
nodes = (
"563 1483 LINE",
"563 1317 LINE",
"282 1276 OFFCURVE",
"143 1089 OFFCURVE",
"143 741 CURVE SMOOTH",
"143 404 OFFCURVE",
"283 215 OFFCURVE",
"563 176 CURVE",
"563 -20 LINE",
"741 -20 LINE",
"741 168 LINE",
"833 174 OFFCURVE",
"921 197 OFFCURVE",
"1006 238 CURVE",
"1006 492 LINE",
"939 462 OFFCURVE",
"884 442 OFFCURVE",
"840 431 CURVE SMOOTH",
"796 421 OFFCURVE",
"747 416 OFFCURVE",
"692 416 CURVE SMOOTH",
"534 416 OFFCURVE",
"455 525 OFFCURVE",
"455 743 CURVE SMOOTH",
"455 970 OFFCURVE",
"531 1081 OFFCURVE",
"692 1081 CURVE SMOOTH",
"775 1081 OFFCURVE",
"854 1055 OFFCURVE",
"950 1016 CURVE",
"1040 1251 LINE",
"951 1294 OFFCURVE",
"852 1319 OFFCURVE",
"741 1325 CURVE",
"741 1483 LINE"
);
}
);
width = 1169;
}
);
unicode = 00A2;
},
{
glyphname = dollar;
lastChange = "2013-03-07 06:32:14 +0200";
layers = (
{
layerId = "ECE8EDD2-0EDB-4EFB-866E-7B25CF44A28E";
name = Bold;
paths = (
{
closed = 1;
nodes = (
"518 1554 LINE",
"518 1401 LINE",
"383 1388 OFFCURVE",
"277 1350 OFFCURVE",
"201 1287 CURVE SMOOTH",
"126 1225 OFFCURVE",
"88 1146 OFFCURVE",
"88 1049 CURVE SMOOTH",
"88 959 OFFCURVE",
"115 883 OFFCURVE",
"170 822 CURVE SMOOTH",
"225 761 OFFCURVE",
"319 705 OFFCURVE",
"451 653 CURVE SMOOTH",
"518 627 LINE",
"518 317 LINE",
"454 321 OFFCURVE",
"381 334 OFFCURVE",
"299 356 CURVE SMOOTH",
"218 378 OFFCURVE",
"148 403 OFFCURVE",
"90 432 CURVE",
"90 168 LINE",
"213 114 OFFCURVE",
"355 85 OFFCURVE",
"518 82 CURVE",
"518 -119 LINE",
"655 -119 LINE",
"655 86 LINE",
"793 98 OFFCURVE",
"900 137 OFFCURVE",
"976 201 CURVE SMOOTH",
"1054 266 OFFCURVE",
"1092 351 OFFCURVE",
"1092 457 CURVE SMOOTH",
"1092 574 OFFCURVE",
"1043 659 OFFCURVE",
"932 732 CURVE SMOOTH",
"877 769 OFFCURVE",
"785 812 OFFCURVE",
"655 862 CURVE",
"655 1157 LINE",
"764 1148 OFFCURVE",
"871 1122 OFFCURVE",
"974 1079 CURVE",
"1069 1313 LINE",
"946 1368 OFFCURVE",
"808 1398 OFFCURVE",
"655 1405 CURVE",
"655 1554 LINE"
);
},
{
closed = 1;
nodes = (
"746 532 OFFCURVE",
"791 498 OFFCURVE",
"791 442 CURVE SMOOTH",
"791 379 OFFCURVE",
"746 339 OFFCURVE",
"655 324 CURVE",
"655 573 LINE"
);
},
{
closed = 1;
nodes = (
"518 918 LINE",
"427 958 OFFCURVE",
"389 989 OFFCURVE",
"389 1049 CURVE SMOOTH",
"389 1106 OFFCURVE",
"432 1140 OFFCURVE",
"518 1153 CURVE"
);
}
);
width = 1169;
}
);
unicode = 0024;
},
{
glyphname = "sheqel-hb";
lastChange = "2013-03-07 06:32:14 +0200";
layers = (
{
layerId = "ECE8EDD2-0EDB-4EFB-866E-7B25CF44A28E";
name = Bold;
paths = (
{
closed = 1;
nodes = (
"160 1290 LINE",
"160 0 LINE",
"464 0 LINE",
"464 1057 LINE",
"794 1057 LINE SMOOTH",
"1053 1057 OFFCURVE",
"1116 975 OFFCURVE",
"1116 727 CURVE SMOOTH",
"1116 463 LINE",
"1408 463 LINE",
"1408 727 LINE SMOOTH",
"1408 1019 OFFCURVE",
"1385 1290 OFFCURVE",
"794 1290 CURVE SMOOTH"
);
},
{
closed = 1;
nodes = (
"1584 1290 LINE",
"1584 776 LINE SMOOTH",
"1584 485 OFFCURVE",
"1422 233 OFFCURVE",
"1106 233 CURVE SMOOTH",
"942 233 LINE",
"942 827 LINE",
"638 827 LINE",
"638 0 LINE",
"1107 0 LINE SMOOTH",
"1729 0 OFFCURVE",
"1876 454 OFFCURVE",
"1876 776 CURVE SMOOTH",
"1876 1290 LINE"
);
}
);
width = 2026;
}
);
unicode = 20AA;
},
{
glyphname = sterling;
lastChange = "2013-03-07 06:32:14 +0200";
layers = (
{
layerId = "ECE8EDD2-0EDB-4EFB-866E-7B25CF44A28E";
name = Bold;
paths = (
{
closed = 1;
nodes = (
"421 1483 OFFCURVE",
"262 1333 OFFCURVE",
"262 1065 CURVE SMOOTH",
"262 870 LINE",
"84 870 LINE",
"84 651 LINE",
"262 651 LINE",
"262 506 LINE SMOOTH",
"262 439 OFFCURVE",
"249 387 OFFCURVE",
"223 349 CURVE SMOOTH",
"198 311 OFFCURVE",
"151 277 OFFCURVE",
"82 248 CURVE",
"82 0 LINE",
"1130 0 LINE",
"1130 260 LINE",
"412 260 LINE",
"513 312 OFFCURVE",
"563 395 OFFCURVE",
"563 508 CURVE SMOOTH",
"563 651 LINE",
"938 651 LINE",
"938 870 LINE",
"563 870 LINE",
"563 1063 LINE SMOOTH",
"563 1174 OFFCURVE",
"621 1235 OFFCURVE",
"725 1235 CURVE SMOOTH",
"802 1235 OFFCURVE",
"892 1214 OFFCURVE",
"996 1171 CURVE",
"1090 1401 LINE",
"960 1456 OFFCURVE",
"830 1483 OFFCURVE",
"700 1483 CURVE SMOOTH"
);
}
);
width = 1169;
}
);
unicode = 00A3;
},
{
glyphname = yen;
lastChange = "2013-03-07 06:32:14 +0200";
layers = (
{
layerId = "ECE8EDD2-0EDB-4EFB-866E-7B25CF44A28E";
name = Bold;
paths = (
{
closed = 1;
nodes = (
"848 1462 LINE",
"584 860 LINE",
"322 1462 LINE",
"6 1462 LINE",
"383 715 LINE",
"193 715 LINE",
"193 537 LINE",
"440 537 LINE",
"440 399 LINE",
"193 399 LINE",
"193 221 LINE",
"440 221 LINE",
"440 0 LINE",
"727 0 LINE",
"727 221 LINE",
"972 221 LINE",
"972 399 LINE",
"727 399 LINE",
"727 537 LINE",
"972 537 LINE",
"972 715 LINE",
"778 715 LINE",
"1161 1462 LINE"
);
}
);
width = 1169;
}
);
unicode = 00A5;
},
{
glyphname = asciitilde;
lastChange = "2013-03-07 06:32:14 +0200";
layers = (
{
layerId = "ECE8EDD2-0EDB-4EFB-866E-7B25CF44A28E";
name = Bold;
paths = (
{
closed = 1;
nodes = (
"1009 817 OFFCURVE",
"919 772 OFFCURVE",
"848 772 CURVE SMOOTH",
"783 772 OFFCURVE",
"707 790 OFFCURVE",
"621 827 CURVE SMOOTH",
"521 870 OFFCURVE",
"441 891 OFFCURVE",
"344 891 CURVE SMOOTH",
"242 891 OFFCURVE",
"157 855 OFFCURVE",
"88 782 CURVE",
"88 551 LINE",
"160 623 OFFCURVE",
"249 672 OFFCURVE",
"322 672 CURVE SMOOTH",
"386 672 OFFCURVE",
"462 653 OFFCURVE",
"549 616 CURVE SMOOTH",
"609 591 OFFCURVE",
"659 575 OFFCURVE",
"699 566 CURVE SMOOTH",
"739 557 OFFCURVE",
"781 553 OFFCURVE",
"825 553 CURVE SMOOTH",
"928 553 OFFCURVE",
"1014 589 OFFCURVE",
"1081 662 CURVE",
"1081 893 LINE"
);
}
);
width = 1169;
}
);
unicode = 007E;
},
{
glyphname = divide;
lastChange = "2013-03-07 06:32:14 +0200";
layers = (
{
layerId = "ECE8EDD2-0EDB-4EFB-866E-7B25CF44A28E";
name = Bold;
paths = (
{
closed = 1;
nodes = (
"88 831 LINE",
"88 612 LINE",
"1081 612 LINE",
"1081 831 LINE"
);
},
{
closed = 1;
nodes = (
"496 524 OFFCURVE",
"444 474 OFFCURVE",
"444 373 CURVE SMOOTH",
"444 274 OFFCURVE",
"497 221 OFFCURVE",
"584 221 CURVE SMOOTH",
"671 221 OFFCURVE",
"723 280 OFFCURVE",
"723 373 CURVE SMOOTH",
"723 470 OFFCURVE",
"672 524 OFFCURVE",
"584 524 CURVE SMOOTH"
);
},
{
closed = 1;
nodes = (
"496 1223 OFFCURVE",
"444 1171 OFFCURVE",
"444 1071 CURVE SMOOTH",
"444 973 OFFCURVE",
"497 920 OFFCURVE",
"584 920 CURVE SMOOTH",
"671 920 OFFCURVE",
"723 977 OFFCURVE",
"723 1071 CURVE SMOOTH",
"723 1166 OFFCURVE",
"673 1223 OFFCURVE",
"584 1223 CURVE SMOOTH"
);
}
);
width = 1169;
}
);
unicode = 00F7;
},
{
glyphname = equal;
lastChange = "2013-03-07 06:32:14 +0200";
layers = (
{
layerId = "ECE8EDD2-0EDB-4EFB-866E-7B25CF44A28E";
name = Bold;
paths = (
{
closed = 1;
nodes = (
"88 1024 LINE",
"88 805 LINE",
"1081 805 LINE",
"1081 1024 LINE"
);
},
{
closed = 1;
nodes = (
"88 637 LINE",
"88 418 LINE",
"1081 418 LINE",
"1081 637 LINE"
);
}
);
width = 1169;
}
);
unicode = 003D;
},
{
glyphname = greater;
lastChange = "2013-03-07 06:32:14 +0200";
layers = (
{
layerId = "ECE8EDD2-0EDB-4EFB-866E-7B25CF44A28E";
name = Bold;
paths = (
{
closed = 1;
nodes = (
"88 1040 LINE",
"772 723 LINE",
"88 442 LINE",
"88 203 LINE",
"1081 641 LINE",
"1081 784 LINE",
"88 1280 LINE"
);
}
);
width = 1169;
}
);
unicode = 003E;
},
{
glyphname = less;
lastChange = "2013-03-07 06:32:14 +0200";
layers = (
{
layerId = "ECE8EDD2-0EDB-4EFB-866E-7B25CF44A28E";
name = Bold;
paths = (
{
closed = 1;
nodes = (
"88 784 LINE",
"88 641 LINE",
"1081 203 LINE",
"1081 442 LINE",
"397 723 LINE",
"1081 1040 LINE",
"1081 1280 LINE"
);
}
);
width = 1169;
}
);
unicode = 003C;
},
{
glyphname = logicalnot;
lastChange = "2013-03-07 06:32:14 +0200";
layers = (
{
layerId = "ECE8EDD2-0EDB-4EFB-866E-7B25CF44A28E";
name = Bold;
paths = (
{
closed = 1;
nodes = (
"88 831 LINE",
"88 612 LINE",
"862 612 LINE",
"862 248 LINE",
"1081 248 LINE",
"1081 831 LINE"
);
}
);
width = 1169;
}
);
unicode = 00AC;
},
{
glyphname = multiply;
lastChange = "2013-03-07 06:32:14 +0200";
layers = (
{
layerId = "ECE8EDD2-0EDB-4EFB-866E-7B25CF44A28E";
name = Bold;
paths = (
{
closed = 1;
nodes = (
"582 879 LINE",
"281 1178 LINE",
"129 1024 LINE",
"428 723 LINE",
"131 422 LINE",
"281 270 LINE",
"582 569 LINE",
"887 268 LINE",
"1036 420 LINE",
"735 723 LINE",
"1040 1028 LINE",
"887 1178 LINE"
);
}
);
width = 1169;
}
);
unicode = 00D7;
},
{
glyphname = percent;
lastChange = "2013-03-07 06:32:14 +0200";
layers = (
{
layerId = "ECE8EDD2-0EDB-4EFB-866E-7B25CF44A28E";
name = Bold;
paths = (
{
closed = 1;
nodes = (
"1206 1462 LINE",
"395 0 LINE",
"635 0 LINE",
"1446 1462 LINE"
);
},
{
closed = 1;
nodes = (
"474 1274 OFFCURVE",
"506 1191 OFFCURVE",
"506 1024 CURVE SMOOTH",
"506 856 OFFCURVE",
"474 772 OFFCURVE",
"410 772 CURVE SMOOTH",
"343 772 OFFCURVE",
"315 855 OFFCURVE",
"315 1024 CURVE SMOOTH",
"315 1193 OFFCURVE",
"343 1274 OFFCURVE",
"410 1274 CURVE SMOOTH"
);
},
{
closed = 1;
nodes = (
"178 1483 OFFCURVE",
"63 1331 OFFCURVE",
"63 1026 CURVE SMOOTH",
"63 727 OFFCURVE",
"188 565 OFFCURVE",
"408 565 CURVE SMOOTH",
"637 565 OFFCURVE",
"758 719 OFFCURVE",
"758 1026 CURVE SMOOTH",
"758 1319 OFFCURVE",
"633 1483 OFFCURVE",
"408 1483 CURVE SMOOTH"
);
},
{
closed = 1;
nodes = (
"1498 690 OFFCURVE",
"1530 607 OFFCURVE",
"1530 440 CURVE SMOOTH",
"1530 272 OFFCURVE",
"1498 188 OFFCURVE",
"1434 188 CURVE SMOOTH",
"1367 188 OFFCURVE",
"1339 271 OFFCURVE",
"1339 440 CURVE SMOOTH",
"1339 609 OFFCURVE",
"1367 690 OFFCURVE",
"1434 690 CURVE SMOOTH"
);
},
{
closed = 1;
nodes = (
"1202 899 OFFCURVE",
"1087 747 OFFCURVE",
"1087 442 CURVE SMOOTH",
"1087 145 OFFCURVE",
"1212 -18 OFFCURVE",
"1432 -18 CURVE SMOOTH",
"1661 -18 OFFCURVE",
"1782 137 OFFCURVE",
"1782 442 CURVE SMOOTH",
"1782 735 OFFCURVE",
"1657 899 OFFCURVE",
"1432 899 CURVE SMOOTH"
);
}
);
width = 1845;
}
);
unicode = 0025;
},
{
glyphname = perthousand;
lastChange = "2013-03-07 06:32:14 +0200";
layers = (
{
layerId = "ECE8EDD2-0EDB-4EFB-866E-7B25CF44A28E";
name = Bold;
paths = (
{
closed = 1;
nodes = (
"1206 1462 LINE",
"395 0 LINE",
"635 0 LINE",
"1446 1462 LINE"
);
},
{
closed = 1;
nodes = (
"474 1274 OFFCURVE",
"506 1191 OFFCURVE",
"506 1024 CURVE SMOOTH",
"506 856 OFFCURVE",
"474 772 OFFCURVE",
"410 772 CURVE SMOOTH",
"343 772 OFFCURVE",
"315 855 OFFCURVE",
"315 1024 CURVE SMOOTH",
"315 1193 OFFCURVE",
"343 1274 OFFCURVE",
"410 1274 CURVE SMOOTH"
);
},
{
closed = 1;
nodes = (
"178 1483 OFFCURVE",
"63 1331 OFFCURVE",
"63 1026 CURVE SMOOTH",
"63 727 OFFCURVE",
"188 565 OFFCURVE",
"408 565 CURVE SMOOTH",
"637 565 OFFCURVE",
"758 719 OFFCURVE",
"758 1026 CURVE SMOOTH",
"758 1319 OFFCURVE",
"633 1483 OFFCURVE",
"408 1483 CURVE SMOOTH"
);
},
{
closed = 1;
nodes = (
"1498 690 OFFCURVE",
"1530 607 OFFCURVE",
"1530 440 CURVE SMOOTH",
"1530 272 OFFCURVE",
"1498 188 OFFCURVE",
"1434 188 CURVE SMOOTH",
"1367 188 OFFCURVE",
"1339 271 OFFCURVE",
"1339 440 CURVE SMOOTH",
"1339 609 OFFCURVE",
"1367 690 OFFCURVE",
"1434 690 CURVE SMOOTH"
);
},
{
closed = 1;
nodes = (
"1202 899 OFFCURVE",
"1087 747 OFFCURVE",
"1087 442 CURVE SMOOTH",
"1087 145 OFFCURVE",
"1212 -18 OFFCURVE",
"1432 -18 CURVE SMOOTH",
"1661 -18 OFFCURVE",
"1782 137 OFFCURVE",
"1782 442 CURVE SMOOTH",
"1782 735 OFFCURVE",
"1657 899 OFFCURVE",
"1432 899 CURVE SMOOTH"
);
},
{
closed = 1;
nodes = (
"2276 690 OFFCURVE",
"2308 607 OFFCURVE",
"2308 440 CURVE SMOOTH",
"2308 272 OFFCURVE",
"2276 188 OFFCURVE",
"2212 188 CURVE SMOOTH",
"2145 188 OFFCURVE",
"2118 271 OFFCURVE",
"2118 440 CURVE SMOOTH",
"2118 609 OFFCURVE",
"2145 690 OFFCURVE",
"2212 690 CURVE SMOOTH"
);
},
{
closed = 1;
nodes = (
"1981 899 OFFCURVE",
"1866 747 OFFCURVE",
"1866 442 CURVE SMOOTH",
"1866 145 OFFCURVE",
"1991 -18 OFFCURVE",
"2210 -18 CURVE SMOOTH",
"2442 -18 OFFCURVE",
"2560 138 OFFCURVE",
"2560 442 CURVE SMOOTH",
"2560 735 OFFCURVE",
"2435 899 OFFCURVE",
"2210 899 CURVE SMOOTH"
);
}
);
width = 2623;
}
);
unicode = 2030;
},
{
glyphname = plus;
lastChange = "2013-03-07 06:32:14 +0200";
layers = (
{
layerId = "ECE8EDD2-0EDB-4EFB-866E-7B25CF44A28E";
name = Bold;
paths = (
{
closed = 1;
nodes = (
"475 1221 LINE",
"475 831 LINE",
"88 831 LINE",
"88 612 LINE",
"475 612 LINE",
"475 227 LINE",
"694 227 LINE",
"694 612 LINE",
"1081 612 LINE",
"1081 831 LINE",
"694 831 LINE",
"694 1221 LINE"
);
}
);
width = 1169;
}
);
unicode = 002B;
},
{
glyphname = plusminus;
lastChange = "2013-03-07 06:32:14 +0200";
layers = (
{
layerId = "ECE8EDD2-0EDB-4EFB-866E-7B25CF44A28E";
name = Bold;
paths = (
{
closed = 1;
nodes = (
"475 1282 LINE",
"475 893 LINE",
"88 893 LINE",
"88 674 LINE",
"475 674 LINE",
"475 289 LINE",
"694 289 LINE",
"694 674 LINE",
"1081 674 LINE",
"1081 893 LINE",
"694 893 LINE",
"694 1282 LINE"
);
},
{
closed = 1;
nodes = (
"88 219 LINE",
"88 0 LINE",
"1081 0 LINE",
"1081 219 LINE"
);
}
);
width = 1169;
}
);
unicode = 00B1;
},
{
glyphname = ampersand;
lastChange = "2013-03-07 06:32:14 +0200";
layers = (
{
layerId = "ECE8EDD2-0EDB-4EFB-866E-7B25CF44A28E";
name = Bold;
paths = (
{
closed = 1;
nodes = (
"505 1483 OFFCURVE",
"401 1452 OFFCURVE",
"323 1390 CURVE SMOOTH",
"246 1328 OFFCURVE",
"207 1246 OFFCURVE",
"207 1145 CURVE SMOOTH",
"207 1021 OFFCURVE",
"250 924 OFFCURVE",
"350 809 CURVE",
"252 753 OFFCURVE",
"183 693 OFFCURVE",
"142 628 CURVE SMOOTH",
"102 564 OFFCURVE",
"82 486 OFFCURVE",
"82 395 CURVE SMOOTH",
"82 268 OFFCURVE",
"130 167 OFFCURVE",
"225 92 CURVE SMOOTH",
"320 17 OFFCURVE",
"449 -20 OFFCURVE",
"612 -20 CURVE SMOOTH",
"773 -20 OFFCURVE",
"917 24 OFFCURVE",
"1044 113 CURVE",
"1159 0 LINE",
"1536 0 LINE",
"1235 293 LINE",
"1342 425 OFFCURVE",
"1429 604 OFFCURVE",
"1477 784 CURVE",
"1159 784 LINE",
"1124 661 OFFCURVE",
"1083 561 OFFCURVE",
"1036 483 CURVE",
"752 760 LINE",
"957 879 OFFCURVE",
"1044 1006 OFFCURVE",
"1044 1165 CURVE SMOOTH",
"1044 1262 OFFCURVE",
"1007 1339 OFFCURVE",
"932 1396 CURVE SMOOTH",
"858 1454 OFFCURVE",
"759 1483 OFFCURVE",
"635 1483 CURVE SMOOTH"
);
},
{
closed = 1;
nodes = (
"860 297 LINE",
"793 256 OFFCURVE",
"717 236 OFFCURVE",
"633 236 CURVE SMOOTH",
"566 236 OFFCURVE",
"510 253 OFFCURVE",
"467 287 CURVE SMOOTH",
"424 321 OFFCURVE",
"403 367 OFFCURVE",
"403 424 CURVE SMOOTH",
"403 508 OFFCURVE",
"451 568 OFFCURVE",
"528 627 CURVE"
);
},
{
closed = 1;
nodes = (
"709 1247 OFFCURVE",
"762 1204 OFFCURVE",
"762 1133 CURVE SMOOTH",
"762 1050 OFFCURVE",
"699 993 OFFCURVE",
"584 930 CURVE",
"521 1001 OFFCURVE",
"489 1065 OFFCURVE",
"489 1124 CURVE SMOOTH",
"489 1203 OFFCURVE",
"544 1247 OFFCURVE",
"633 1247 CURVE SMOOTH"
);
}
);
width = 1536;
}
);
unicode = 0026;
},
{
glyphname = asciicircum;
lastChange = "2013-03-07 06:32:14 +0200";
layers = (
{
layerId = "ECE8EDD2-0EDB-4EFB-866E-7B25CF44A28E";
name = Bold;
paths = (
{
closed = 1;
nodes = (
"446 1470 LINE",
"8 520 LINE",
"244 520 LINE",
"524 1163 LINE",
"846 520 LINE",
"1085 520 LINE",
"590 1470 LINE"
);
}
);
width = 1090;
}
);
unicode = 005E;
},
